<svg width="280" height="359" viewBox="0 0 280 359" fill="none" xmlns="http://www.w3.org/2000/svg">
<path d="M66.4705 91.5158C66.9836 95.8479 62.5501 97.6465 59.7542 97.5952C48.2199 97.932 47.5047 82.9615 54.7604 83.4838C57.9899 83.7163 66.0321 87.8145 66.4705 91.5158Z" stroke="#FF4900" stroke-width="3" stroke-linecap="round"/>
<path d="M108.501 120.088C118.062 121.876 118.732 107.168 108.924 108.979C102.903 110.091 100.958 120.313 108.502 120.093" stroke="#FF4900" stroke-width="3" stroke-linecap="round"/>
<path d="M115.705 135.433C114.356 131.085 107.82 132.559 105.839 135.556C100.025 144.354 113.931 145.896 115.707 135.434" stroke="#FF4900" stroke-width="3" stroke-linecap="round"/>
<path d="M157.531 149.024C155.94 152.173 148.04 159.307 143.976 157.421C141.211 156.779 143.126 154.107 142.741 150.688C142.225 146.12 147.486 143.839 151.261 144.307C153.325 144.563 159.164 145.79 157.531 149.024Z" stroke="#FF4900" stroke-width="3" stroke-linecap="round"/>
<path d="M150.454 191.579C152.934 195.245 146.707 202.87 142.532 201.819C132.455 199.283 137.46 190.119 141.192 188.21C144.192 186.675 148.749 189.058 150.454 191.579Z" stroke="#FF4900" stroke-width="3" stroke-linecap="round"/>
<path d="M109.342 166.825C108.004 170.769 104.283 175.278 100.152 175.399C92.7389 178.429 88.0484 158.84 100.704 159.243C103.942 159.346 110.812 162.488 109.342 166.825Z" stroke="#FF4900" stroke-width="3" stroke-linecap="round"/>
<path d="M76.3428 163.136C83.403 153.517 73.9271 149.368 66.108 154.023C57.4719 159.163 71.3319 171.458 76.3429 163.138" stroke="#FF4900" stroke-width="3" stroke-linecap="round"/>
<path d="M72.2395 191.784C73.6574 195.394 73.3645 199.031 70.1992 199.194C66.8985 200.305 62.6003 200.617 60.5289 196.985C59.0514 194.394 60.9393 191.394 63.2489 190.123C65.6197 188.817 71.0056 188.642 72.2395 191.784Z" stroke="#FF4900" stroke-width="3" stroke-linecap="round"/>
<path d="M117.772 202.427C118.791 205.812 114.692 210.875 112.167 211.422C105.66 213.126 101.785 200.661 109.371 199.157C111.395 198.756 117.08 200.126 117.772 202.427Z" stroke="#FF4900" stroke-width="3" stroke-linecap="round"/>
<path d="M121.777 221.024C124.622 219.529 130.73 219.796 130.508 224.229C128.584 226.585 123.632 235.025 120.292 231.781C117.006 228.589 117.661 223.186 121.777 221.024Z" stroke="#FF4900" stroke-width="3" stroke-linecap="round"/>
<path d="M191.081 226.057C203.313 219.576 201.915 208.67 190.708 211.289C183.826 212.897 182.575 230.294 191.084 226.061" stroke="#FF4900" stroke-width="3" stroke-linecap="round"/>
<path d="M168.828 252.732C170.555 255.539 169.568 263.277 165.444 263.877C161.351 265.952 157.039 257.907 157.609 253.448C158.384 247.375 166.305 248.635 168.828 252.732Z" stroke="#FF4900" stroke-width="3" stroke-linecap="round"/>
<path d="M120.311 260.337C126.56 261.754 127.635 269.501 124.933 273.089C122.765 275.565 120.646 277.093 117.223 275.931C112.678 274.387 110.061 270.795 111.827 266.081C112.985 262.99 116.746 259.529 120.311 260.337Z" stroke="#FF4900" stroke-width="3" stroke-linecap="round"/>
<path d="M140.765 305.128C150.476 295.431 138.173 296.146 132.884 295.946C128.507 295.78 126.089 300.478 128.416 304.105C130.139 306.791 137.493 305.225 140.765 305.129" stroke="#FF4900" stroke-width="3" stroke-linecap="round"/>
<path d="M192.278 295.373C195.894 292.819 198.464 287.433 192.478 286.121C187.582 285.048 178.976 285.576 177.975 291.916C177.115 297.368 189.238 296.721 192.278 295.372" stroke="#FF4900" stroke-width="3" stroke-linecap="round"/>
<path d="M80.5695 289.588C82.7997 282.668 66.798 276.648 65.3868 286.35C64.6534 291.393 76.1729 293.667 80.5695 289.587" stroke="#FF4900" stroke-width="3" stroke-linecap="round"/>
<path d="M62.2896 296.442C63.6875 292.288 66.9556 282.362 68.858 278.425C73.5474 268.721 77.1155 258.662 80.2331 248.348C87.703 223.638 93.5837 195.651 85.5818 170.301C82.0725 159.184 76.6308 148.405 68.8499 139.649C61.3646 131.225 51.961 123.619 42.4911 117.549C34.2154 112.244 24.5029 106.682 14.4262 106.445C6.34834 106.254 -3.32203 106.671 -10.9667 109.487C-17.8899 112.038 -23.6788 117.404 -28.8434 122.49C-34.9228 128.478 -41.2149 134.168 -45.7142 141.49C-49.7858 148.115 -54.6451 153.78 -59.3214 159.938C-63.7985 165.835 -67.6633 172.387 -71.0328 178.972C-77.6853 191.974 -84.0932 205.734 -86.9513 220.13C-87.7887 224.348 -88.7222 228.515 -89.473 232.753" stroke="#F8149D" stroke-width="13" stroke-linecap="square"/>
<path d="M40.0901 286.752C42.3802 280.449 44.1404 273.97 46.4569 267.661C49.0783 260.521 51.875 253.718 53.5685 246.28C57.9702 226.946 58.0219 206.793 56.7488 187.459C55.712 171.713 50.0552 153.786 36.5586 146.266C26.7039 140.775 16.3665 139.876 5.55789 144.607C-17.8689 154.859 -36.4885 175.423 -48.8704 198.884C-54.0944 208.782 -57.6304 219.098 -61.0947 229.68C-62.3326 233.462 -63.501 237.377 -64.9993 241.065" stroke="#BC7AED" stroke-width="13" stroke-linecap="square"/>
<path d="M19.0642 278.881C23.4411 269.62 24.9692 260.048 26.1914 249.924C27.6685 237.69 28.4295 225.705 28.4235 213.382C28.4208 208.009 28.044 202.621 27.2457 197.306C26.5156 192.445 26.0213 186.362 23.0762 182.227C21.1743 179.557 17.8114 178.232 14.6508 177.775C10.3393 177.152 6.38534 179.628 2.93143 181.861C-5.19006 187.112 -11.0663 194.423 -16.6977 202.168C-21.626 208.947 -26.6866 215.514 -29.4007 223.54C-31.4621 229.637 -33.5902 235.241 -36.5254 240.924C-37.8626 243.513 -39.1884 246.075 -40.3106 248.769" stroke="#3BF7EB" stroke-width="13" stroke-linecap="square"/>
</svg>
