<svg width="345" height="443" viewBox="0 0 345 443" fill="none" xmlns="http://www.w3.org/2000/svg">
<path fill-rule="evenodd" clip-rule="evenodd" d="M141.19 88.8572C162.15 68.894 191.354 58.6495 219.854 57.9935C248.267 57.3396 273.269 70.8707 296.966 85.2718C322.167 100.587 353.603 114.577 360.261 143.32C366.866 171.839 340.662 197.736 329.477 225.639C319.071 251.6 315.929 279.801 297.09 300.909C274.845 325.833 247.711 354.626 214.827 354.099C181.997 353.573 166.836 315.217 139.52 298.383C109.722 280.02 55.2861 285.735 48.1867 251.407C40.8435 215.901 92.6277 193.947 111.206 161.477C124.606 138.057 121.509 107.603 141.19 88.8572Z" fill="#9DC13E"/>
<path d="M291.565 326.344C298.187 333.885 301.107 356.421 310.797 349.674C318.204 344.515 312.38 334.374 313.015 326.667C313.508 320.682 312.594 315.126 312.399 309.192C311.911 294.303 323.364 280.464 333.823 271.101C342.435 263.391 349.454 256.79 354.319 246.122C357.051 240.129 360.867 231.981 359.985 225.23C357.999 210.018 334.109 220.43 327.61 226.27C321.625 231.647 316.506 238.01 310.566 243.492C307.923 245.931 302.215 251.69 298.342 247.812C295.285 244.753 297.384 236.24 298.001 232.615C299.263 225.208 302.326 218.214 305.108 211.269C308.98 201.604 311.456 192.214 313.242 181.973C314.414 175.251 316.815 165.073 313.328 158.709C307.719 148.468 292.502 169.66 290.506 173.959C288.531 178.212 281.851 215.142 272.795 208.418C268.448 205.191 269.372 197.489 269.719 192.87C270.369 184.227 271.311 175.627 271.991 166.983C272.905 155.341 275.491 143.9 277.787 132.473C279.507 123.913 281.624 114.534 278.001 106.167C275.43 100.232 268.022 91.4556 260.71 93.6177C252.489 96.0484 250.891 109.069 250.256 116.085C249.458 124.901 251.621 134.055 250.317 142.767C249.682 147.012 246.783 148.138 244.467 144.351C240.038 137.108 237.657 128.475 234.319 120.705C230.805 112.524 224.63 105.364 218.741 98.8067C214.831 94.453 207.348 86.1771 200.497 89.9229C194.76 93.0597 192.324 102.428 192.299 108.52C192.244 121.928 199.082 137.192 208.524 146.589C213.284 151.326 219.206 154.91 223.771 159.82C224.652 160.768 234.535 172.492 233.416 173.835C233.051 174.273 224.593 167.081 224.046 166.627C218.316 161.866 212.624 157.989 205.13 156.824C197.919 155.703 191.482 156.038 185.574 160.671C182.034 163.447 182.337 166.906 184.578 170.415C191.947 181.954 198.969 191.486 210.086 199.263C216.146 203.502 222.377 208.111 228.775 211.795C232.857 214.145 258.501 223.504 254.933 229.87C253.155 233.042 246.692 231.569 243.903 231.031C237.344 229.766 231.932 227.325 226.596 223.428C222.127 220.165 217.408 217.215 211.684 218.518C205.87 219.843 201.096 223.779 198.191 228.936C194.878 234.818 200.592 238.62 204.973 241.839C210.435 245.853 215.436 250.691 221.123 254.347C231.006 260.703 241.876 266.809 252.938 270.809C258.081 272.668 262.936 275.869 265.486 280.843C267.341 284.463 264.616 283.031 262.235 282.066C254.155 278.794 244.824 273.831 236.14 273.11C227.234 272.37 220.225 282.136 220.473 290.287C221.148 312.416 246.308 315.113 263.268 317.502C266.491 317.956 270.677 318.668 273.862 317.791C276.034 317.193 278.181 315.739 280.54 316.434C284.996 317.748 288.96 323.377 291.565 326.344Z" stroke="black" stroke-width="7" stroke-linecap="round"/>
</svg>
