<svg width="367" height="641" viewBox="0 0 367 641" fill="none" xmlns="http://www.w3.org/2000/svg">
<path d="M-133.668 157.539C-108.128 193.113 -81.3098 228.135 -57.7686 265.11C-34.2275 302.085 -91.5013 274.675 -112.595 282.338C-130.455 288.826 -141.656 297.192 -157.676 300.642C-183.851 306.279 -211.345 303.649 -237.937 307.791C-254.012 310.294 -299.1 314.497 -303.127 337.207C-305.414 350.1 -295.798 364.714 -289.291 374.878C-280.316 388.894 -268.665 401.555 -252.672 407.309C-218.999 419.426 -180.955 418.396 -147.876 404.977C-135.45 399.936 -40.1238 335.712 -44.9218 380.573C-47.5368 405.023 -71.0022 425.236 -90.2101 437.857C-113.52 453.174 -136.504 468.61 -158.633 485.629C-177.718 500.307 -192.225 519.196 -187.254 544.538C-182.932 566.575 -163.749 569.974 -147.252 558.932C-126.138 544.801 -105.901 529.663 -84.3306 516.146C-65.1589 504.133 -41.1855 491.575 -27.5995 473.034C-18.7441 460.948 -13.9433 441.766 3.32166 439.825C16.1905 438.378 24.3346 451.19 27.4269 461.948C34.2294 485.612 23.6292 499.932 20.2519 522.414C16.6203 546.59 17.8862 572.827 20.2127 597.129C20.8471 603.756 21.3028 621.273 31.1681 620.474C41.7351 619.618 46.1386 605.668 48.3548 597.238C50.7611 588.085 48.255 553.612 60.3087 553.494C70.4851 553.395 81.0174 556.667 87.335 545.922C102.085 520.834 102.129 480.46 96.4859 452.962C91.7538 429.903 81.328 408.193 76.8096 385.17C73.9301 370.497 94.8043 401.058 96.2183 402.954C115.745 429.142 136.524 454.785 157.52 479.819C172.582 497.778 190.645 526.171 214.421 533.83C230.639 539.054 245.091 527.07 251.772 513.334C261.003 494.353 246.446 473.171 237.389 457.237C225.346 436.051 211.509 414.301 195.646 395.746C186.724 385.31 159.368 365.905 162.742 350.057C166.403 332.86 210.085 346.441 219.571 349.236C250.29 358.287 278.894 375.108 307.07 390.023C319.88 396.803 350.734 414.93 357.51 391.076C363.638 369.501 345.01 342.201 337.679 323.123C328.848 300.139 309.294 272.758 289.065 258.46C267.71 243.366 243.472 240.265 218.077 244.375C209.088 245.83 200.292 249.917 191.282 250.798C184.913 251.42 196.677 240.765 197.578 239.897C220.354 217.978 251.212 202.767 280.1 190.659C288.136 187.291 329.847 173.084 327.395 160.696C325.169 149.449 289.984 148.568 282.356 148.884C256.554 149.951 229.108 155.783 204.377 163.106C198.485 164.851 188.152 169.643 181.932 167.196C180.022 166.445 189.282 160.024 189.793 159.631C223.102 134.015 278.714 112.202 275.441 61.4455C273.095 25.0827 204.327 42.44 184.567 52.1294C148.578 69.7775 135.155 122.639 95.106 132.509C51.9374 143.147 76.8937 75.9898 79.3033 56.9717C82.8847 28.7061 81.8384 0.0512742 86.5733 -28.1011C87.9597 -36.3446 94.5205 -57.9085 81.9377 -60.8238C43.0142 -69.8417 20.9382 -25.2262 1.78299 -0.679666C-29.7106 39.678 -29.9835 106.168 -17.9696 153.47C-16.3542 159.83 -8.64202 177.995 -21.8849 171.813C-38.07 164.257 -52.429 154.933 -67.1655 144.885C-84.0068 133.401 -99.7697 120.957 -116.972 110.106C-130.563 101.533 -143.563 90.7111 -155.311 79.8453L-155.418 79.7466C-164.565 71.2857 -180.907 56.1701 -192.835 67.6493C-196.902 71.5631 -194.137 70.5146 -188.282 79.6453C-173.954 101.992 -147.043 138.909 -133.668 157.539Z" fill="#FF6122" stroke="#FF6122" stroke-width="3" stroke-linecap="round"/>
<path d="M-191.063 170.431C-165.523 206.006 -138.704 241.027 -115.163 278.002C-91.622 314.978 -148.896 287.568 -169.99 295.231C-187.849 301.719 -199.051 310.084 -215.071 313.535C-241.245 319.172 -268.74 316.542 -295.332 320.683C-311.406 323.187 -356.494 327.39 -360.522 350.1C-362.808 362.993 -353.193 377.607 -346.685 387.77C-337.71 401.786 -326.059 414.448 -310.067 420.202C-276.394 432.318 -238.35 431.288 -205.27 417.87C-192.844 412.829 -97.5184 348.604 -102.316 393.465C-104.931 417.916 -128.397 438.128 -147.605 450.75C-170.915 466.067 -193.898 481.503 -216.028 498.522C-235.113 513.199 -249.619 532.089 -244.649 557.431C-240.327 579.468 -221.143 582.866 -204.646 571.825C-183.533 557.694 -163.296 542.555 -141.725 529.039C-122.553 517.025 -98.5801 504.468 -84.9941 485.926C-76.1386 473.841 -71.3379 454.658 -54.0729 452.718C-41.204 451.271 -33.0599 464.083 -29.9676 474.84C-23.1652 498.504 -33.7654 512.824 -37.1426 535.307C-40.7743 559.483 -39.5083 585.72 -37.1818 610.022C-36.5474 616.649 -36.0918 634.165 -26.2265 633.366C-15.6595 632.511 -11.2559 618.561 -9.03978 610.131C-6.63341 600.978 -9.13952 566.504 2.91413 566.387C13.0906 566.288 23.6228 569.56 29.9404 558.815C44.6909 533.726 44.7346 493.353 39.0914 465.855C34.3592 442.796 23.9334 421.085 19.4151 398.062C16.5356 383.39 37.4098 413.95 38.8237 415.847C58.3502 442.034 79.1297 467.678 100.126 492.712C115.188 510.67 133.25 539.063 157.026 546.722C173.244 551.946 187.697 539.963 194.377 526.227C203.608 507.245 189.052 486.064 179.994 470.13C167.951 448.943 154.114 427.193 138.251 408.639C129.33 398.203 101.974 378.798 105.348 362.949C109.009 345.752 152.69 359.334 162.176 362.129C192.895 371.179 221.499 388.001 249.675 402.915C262.485 409.696 293.34 427.823 300.115 403.968C306.243 382.393 287.615 355.094 280.285 336.016C271.453 313.032 251.9 285.651 231.67 271.352C210.315 256.258 186.077 253.157 160.682 257.268C151.693 258.723 142.897 262.809 133.887 263.69C127.519 264.313 139.282 253.657 140.183 252.79C162.96 230.87 193.818 215.66 222.706 203.551C230.741 200.183 272.453 185.977 270.001 173.589C267.774 162.342 232.59 161.461 224.961 161.776C199.159 162.843 171.713 168.676 146.982 175.999C141.091 177.743 130.758 182.536 124.537 180.089C122.628 179.338 131.887 172.917 132.398 172.524C165.707 146.907 221.32 125.095 218.046 74.3381C215.701 37.9752 146.932 55.3325 127.173 65.022C91.1834 82.6701 77.7606 135.532 37.7114 145.402C-5.45709 156.04 19.4991 88.8824 21.9088 69.8643C25.4901 41.5987 24.4439 12.9439 29.1787 -15.2085C30.5652 -23.452 37.126 -45.016 24.5431 -47.9312C-14.3804 -56.9492 -36.4564 -12.3336 -55.6115 12.2129C-87.1052 52.5706 -87.378 119.06 -75.3641 166.362C-73.7487 172.723 -66.0366 190.887 -79.2794 184.705C-95.4645 177.15 -109.824 167.826 -124.56 157.777C-141.401 146.293 -157.164 133.849 -174.366 122.999C-187.957 114.426 -200.958 103.604 -212.706 92.7379L-212.812 92.6392C-221.96 84.1783 -238.301 69.0626 -250.229 80.5419C-254.296 84.4557 -251.531 83.4072 -245.677 92.5379C-231.348 114.884 -204.437 151.802 -191.063 170.431Z" stroke="#5E1B00" stroke-width="9" stroke-linecap="round"/>
</svg>
