<svg width="451" height="563" viewBox="0 0 451 563" fill="none" xmlns="http://www.w3.org/2000/svg">
<path d="M207.074 203.615C220.255 207.522 232.091 217.112 243.282 224.703C255.227 232.806 267.122 240.988 278.648 249.681C301.423 266.856 322.087 287.239 340.604 308.905C361.728 333.621 382.259 358.783 401.773 384.796C414.302 401.496 427.529 417.698 439.469 434.835C451.123 451.562 461.193 469.345 471.506 486.912" stroke="#D90175" stroke-width="19" stroke-linecap="round"/>
<path d="M335.219 195.862C331.467 221.464 329.202 246.728 308.613 269.17C292.164 287.097 277.821 286.788 254.438 299.937C232.655 312.187 209.042 321.347 185.476 329.535C167.77 335.686 149.845 340.201 131.274 342.783C121.017 344.208 108.629 345.697 99.0738 340.698C79.7473 330.588 99.4819 313.77 111.184 306.906C129.547 296.135 149.936 289.995 169.241 281.439C173.893 279.377 182.281 274.716 180.253 268.455C178.554 263.209 173.63 259.799 168.901 257.508C158.912 252.671 146.6 254.326 135.935 255.101C123.78 255.984 111.984 258.455 100.037 260.727C82.4141 264.079 56.28 268.084 40.4547 256.372C28.6477 247.633 39.5971 236.839 49.6445 233.309C66.8783 227.253 84.3658 235.155 101.793 235.908C114.296 236.448 131.732 235.417 132.494 219.235C133.29 202.335 114.691 191.578 101.532 185.503C81.7145 176.355 60.6887 170.353 40.674 161.825C27.3909 156.166 6.7731 142.79 18.6321 126.468C28.9742 112.234 48.182 115.023 62.3315 120.684C82.8314 128.888 98.5141 142.645 116.216 155.402C126.502 162.815 142.004 175.323 155.034 166.683C161.462 162.421 161.809 154.368 161.748 147.345C161.671 138.321 160.166 130.619 155.879 122.567C145.639 103.329 126.653 90.1999 119.75 69.0495C117.82 63.1344 116.214 53.5075 124.008 50.7928C129.128 49.0094 135.743 52.3177 139.709 55.254C147.538 61.0501 153.707 68.8462 159.845 76.3133C166.213 84.061 172.275 91.7686 177.582 100.301C184.082 110.752 189.664 121.782 194.977 132.872C198.913 141.088 202.491 149.886 208.185 157.087C214.454 165.017 226.443 175.074 233.391 162.102C242.661 144.792 232.66 121.908 230.124 104.139C228.522 92.9176 226.983 67.196 241.925 62.9764C248.544 61.1075 251.675 71.314 253.312 75.6543C257.577 86.9621 259.799 98.9238 262.168 110.732C266.887 134.257 263.88 159.382 270.444 182.437C271.906 187.572 275.393 196.525 282.513 193.177C289.837 189.733 295.577 180.976 298.969 173.983C310.917 149.353 309.03 123.827 306.54 97.2967C305.213 83.1679 302.812 69.0547 303.464 54.8217L303.468 54.7466C303.759 48.4011 304.264 37.3634 311.183 34.2382C317.723 31.2842 322.848 42.3759 324.163 46.7899C328.219 60.4093 328.647 75.3006 329.538 89.3738C330.651 106.942 332.322 124.379 334.167 141.882C336.07 159.941 337.866 177.807 335.219 195.862Z" fill="#D90175" stroke="#D90175" stroke-width="3" stroke-linecap="round"/>
<path d="M230.297 212.217C241.725 215.604 251.987 223.919 261.69 230.501C272.047 237.526 282.36 244.62 292.353 252.157C312.1 267.049 330.017 284.721 346.071 303.506C364.387 324.936 382.187 346.752 399.107 369.306C409.97 383.786 421.438 397.833 431.79 412.692C441.895 427.194 450.625 442.612 459.567 457.843" stroke="#FF8FC8" stroke-width="8" stroke-linecap="round"/>
<path d="M341.403 205.494C338.15 227.692 336.186 249.597 318.334 269.054C304.073 284.598 291.637 284.33 271.363 295.731C252.477 306.352 232.004 314.294 211.571 321.392C196.219 326.726 180.678 330.641 164.576 332.879C155.683 334.115 144.942 335.405 136.658 331.072C119.901 322.306 137.012 307.724 147.158 301.773C163.079 292.434 180.756 287.11 197.495 279.692C201.528 277.904 208.801 273.863 207.043 268.434C205.569 263.886 201.3 260.929 197.2 258.944C188.54 254.749 177.865 256.185 168.618 256.856C158.079 257.622 147.851 259.764 137.493 261.734C122.213 264.64 99.5543 268.113 85.8333 257.958C75.5962 250.381 85.0897 241.023 93.8011 237.962C108.743 232.712 123.906 239.563 139.016 240.215C149.856 240.684 164.973 239.789 165.634 225.76C166.324 211.106 150.199 201.78 138.789 196.513C121.607 188.581 103.377 183.377 86.0234 175.983C74.5065 171.076 56.6303 159.48 66.9124 145.328C75.8793 132.986 92.5331 135.404 104.801 140.313C122.575 147.425 136.172 159.353 151.521 170.414C160.439 176.841 173.879 187.686 185.177 180.196C190.751 176.5 191.051 169.517 190.998 163.428C190.931 155.604 189.626 148.927 185.91 141.945C177.031 125.266 160.57 113.882 154.585 95.544C152.911 90.4154 151.519 82.0686 158.277 79.7148C162.716 78.1686 168.451 81.037 171.89 83.5829C178.678 88.6082 184.027 95.3677 189.348 101.842C194.869 108.559 200.125 115.242 204.727 122.64C210.363 131.701 215.202 141.265 219.809 150.88C223.222 158.003 226.324 165.632 231.26 171.876C236.696 178.751 247.091 187.471 253.115 176.223C261.152 161.215 252.482 141.374 250.282 125.968C248.894 116.238 247.559 93.937 260.515 90.2785C266.253 88.658 268.968 97.5074 270.387 101.27C274.085 111.075 276.011 121.446 278.065 131.684C282.157 152.081 279.55 173.865 285.241 193.855C286.508 198.306 289.532 206.069 295.705 203.166C302.056 200.181 307.033 192.587 309.973 186.525C320.332 165.169 318.696 143.038 316.537 120.035C315.387 107.785 313.305 95.5485 313.871 83.208L313.874 83.1428C314.126 77.6411 314.564 68.0711 320.563 65.3615C326.233 62.8003 330.677 72.4172 331.817 76.2443C335.334 88.0527 335.705 100.964 336.477 113.166C337.442 128.398 338.891 143.516 340.49 158.692C342.14 174.349 343.698 189.84 341.403 205.494Z" stroke="#FF8FC8" stroke-width="8" stroke-linecap="round"/>
</svg>
