<svg width="130" height="119" viewBox="0 0 130 119" fill="none" xmlns="http://www.w3.org/2000/svg">
<path d="M5.27233 33.5996C5.28442 33.3708 5.34379 33.1644 5.40881 32.9447M5.40881 32.9447C6.78641 28.2895 10.2241 23.5155 12.5492 19.4071C14.1114 16.6467 16.8529 11.8038 18.7219 8.82289C19.656 7.33293 19.3315 7.60229 20.1735 7.02488C20.8604 6.55387 21.5199 6.05116 22.258 5.65937C24.6896 4.36862 27.3011 3.57745 30.0498 4.23826C31.4114 4.5656 32.7261 4.30366 34.107 4.3742C35.8885 4.46519 37.7869 4.64783 39.529 5.01678C43.359 5.82795 45.642 8.4524 47.8109 11.4612C50.0536 14.5725 51.9648 18.0393 53.7168 21.4461C55.2296 24.3877 56.1689 27.1866 56.1921 30.5103C56.2135 33.5927 55.7403 36.5661 54.6163 39.4509C53.6831 41.846 51.8055 43.6917 50.2241 45.6605C48.8695 47.347 47.2607 49.0325 46.3903 51.036C45.3071 53.5292 47.1972 56.1992 48.5057 58.1539C50.4343 61.0352 52.9447 63.4715 55.3732 65.9268C57.6225 68.2011 59.5667 70.7198 62.3833 72.3527C66.6375 74.819 71.5194 74.9497 76.2175 74.1074C79.7452 73.475 82.4537 71.5939 85.4237 69.7082C86.5325 69.0042 87.8802 68.0928 89.1956 67.8546C90.6066 67.599 92.0496 67.5698 93.4637 67.3603C96.4018 66.925 99.3347 65.5464 102.335 65.7661C105.653 66.0091 109.26 67.8293 111.802 69.8688C114.905 72.3588 117.828 75.1519 120.847 77.7529C122.103 78.835 123.365 79.9361 124.166 81.4169C124.772 82.5391 124.934 83.8153 125.127 85.0562C125.428 86.9865 125.897 88.9998 125.977 90.9569C126.229 97.1056 124.431 102.791 119.023 106.262C116.674 107.769 113.964 109.257 111.467 110.5C108.39 112.033 105.537 112.402 102.198 112.922C96.3185 113.84 90.8027 115.541 84.791 114.832C83.1106 114.633 81.4628 114.145 79.7784 113.923C77.4127 113.612 75.0186 113.594 72.6566 113.207C68.1589 112.468 63.7258 110.958 60.0569 108.183C54.0621 103.65 48.4529 98.8227 41.8306 95.1584C34.3088 90.9965 26.5583 87.0357 20.645 80.6446C15.1037 74.6554 10.6521 67.1036 7.23269 59.7419C5.74122 56.5308 4.40622 53.2387 4.09364 49.6767C3.66549 44.7979 4.81037 37.7726 5.40881 32.9447Z" stroke="#D90175" stroke-width="7" stroke-linecap="square"/>
</svg>
