<svg width="102" height="93" viewBox="0 0 102 93" fill="none" xmlns="http://www.w3.org/2000/svg">
<path d="M5.1142 8.94541C5.45274 8.26834 5.0125 8.58968 4.74698 9.00049C3.84049 10.403 3.9664 12.2504 4.07679 13.8479C4.28248 16.8243 4.62128 19.7907 4.51746 22.7806C4.38393 26.6265 3.93296 30.4462 4.04007 34.3023C4.13537 37.733 4.1227 41.1617 4.1227 44.5938C4.1227 47.9632 4.39685 51.2919 4.51746 54.6557C4.6204 57.5265 4.51951 60.4068 4.43484 63.2763C4.36029 65.8028 4.81562 68.1507 4.98568 70.6529C5.1196 72.6236 4.97282 74.6411 4.86633 76.6112C4.781 78.1898 5.02667 79.5199 5.24273 81.0684C5.64996 83.9868 6.38389 86.5156 9.52549 87.4351C11.8139 88.1049 14.3688 88.0557 16.7323 88.0961C19.6208 88.1455 22.371 88.3889 25.2106 88.927C28.0615 89.4671 30.6097 89.5223 33.4915 89.1106C36.6 88.6665 39.6946 87.8945 42.8282 87.66C45.4089 87.4669 48.0171 87.7043 50.5904 87.8941C53.4465 88.1048 56.3899 88.0316 59.2523 87.9171C61.9589 87.8088 64.6338 87.4397 67.3496 87.4397C69.7228 87.4397 72.0631 87.5415 74.4371 87.403C79.0283 87.1352 83.6006 85.7909 88.2263 86.4666C89.5279 86.6567 90.9907 86.9125 92.2842 86.5492C93.4224 86.2295 94.3259 85.6071 95.3505 85.0436C96.3548 84.4912 97.5224 83.8081 97.6824 82.574C97.8768 81.0744 97.4681 79.4441 97.5539 77.9194C97.8203 73.1835 98.3904 68.5233 98.146 63.7583C97.9977 60.8654 97.543 58.0012 97.4942 55.0964C97.445 52.1706 97.5455 49.2522 97.6365 46.3289C97.7981 41.1387 97.1836 36.0314 96.9938 30.8595C96.8283 26.3485 96.2309 21.8316 96.4568 17.3135C96.642 13.6092 97.1842 8.45388 93.8724 5.89744C91.9322 4.39968 89.0956 4.25866 86.7483 4.10722C82.1457 3.81028 77.5107 4.21318 72.9085 4.31837C64.8484 4.5026 56.9211 5.36117 48.9058 6.13614C45.363 6.47867 41.8219 6.59099 38.293 7.09092C34.6614 7.60539 30.9686 8.14892 27.3084 8.40375C21.9978 8.77347 16.5577 7.68332 11.3478 6.73288C9.07089 6.31749 5.06597 6.07559 4.21909 8.98672C3.77432 10.5156 5.80975 11.8752 6.84934 12.6406C9.79945 14.8127 13.2115 16.3125 16.3513 18.1811C20.0461 20.3801 23.2914 22.9985 26.505 25.8377C29.3207 28.3254 31.9249 30.0642 35.1991 33.0032C39.0147 36.4283 42.0784 38 44.5266 42.2435V42.2435C45.8807 44.5906 50.1207 44.5714 51.8015 42.446C57.4631 35.2865 66.7205 29.9117 73.2895 24.3872C77.5888 20.7715 82.473 18.0652 86.8906 14.6236C88.419 13.4329 89.8894 12.1853 91.3891 10.9606C92.3287 10.1932 93.8559 9.44698 93.4409 8.11915" stroke="#D90175" stroke-width="7" stroke-linecap="square"/>
</svg>
