<svg width="122" height="111" viewBox="0 0 122 111" fill="none" xmlns="http://www.w3.org/2000/svg">
<path d="M14.5366 4.74524C9.06293 6.27506 4 9.68753 4 14.7999C4.5919 19.4681 5.196 24.1616 9.67457 26.6659C12.8694 28.4524 15.4153 28.1466 19.0098 27.4622C24.3566 26.4442 28.9223 25.3084 30.5113 19.5775C32.3155 13.0704 28.9813 6.95811 22.8592 4.74491C19.802 3.63969 17.6673 3.87027 14.5366 4.74524Z" stroke="#D90175" stroke-width="7" stroke-linecap="square"/>
<path d="M14.5524 41.7522C11.4534 41.9857 5.06096 39.2843 4.77276 42.8965C4.39925 47.5778 5.11648 69.5189 5.11648 79.4436C5.11648 82.6145 5.22793 85.7447 4.77276 88.8823C4.38561 91.5511 3.46866 94.1583 4.41342 96.8273C5.3028 99.34 7.00827 103.637 9.63172 104.804C15.2817 107.318 22.7347 108.001 28.427 105.106C31.3114 103.639 30.9893 96.9649 30.9893 94.0307C30.9893 89.3391 30.5791 84.4601 29.3644 79.7932C27.9809 74.4776 29.5831 66.763 29.5831 61.2018C29.5831 56.2872 29.956 51.6859 28.9582 46.8372C28.0882 42.6098 27.3007 41.7524 23.2868 41.7524C20.2139 41.7524 17.6185 41.5212 14.5524 41.7522Z" stroke="#D90175" stroke-width="7" stroke-linecap="square"/>
<path d="M49.7721 60.8505C49.5387 54.6413 47.9919 48.5984 50.0712 42.5684C54.5871 42.0647 65.4388 39.2231 68.913 42.7106C70.6899 44.4944 69.3482 51.8539 71.9509 51.9544C77.5995 52.1725 81.4147 46.5934 86.1806 44.4487C93.1621 41.3071 100.717 42.5636 105.872 48.2569C108.204 50.8316 109.635 54.7639 111.697 57.6429C114.613 61.7157 114.592 66.5824 115.522 71.2952C116.524 76.3814 117.577 81.5813 117.772 86.7805C117.927 90.9027 118.491 97.2857 116.938 101.097C116.074 103.218 112.743 104.396 110.988 105.647C108.481 107.435 103.959 106.993 101.071 106.832C97.8296 106.652 90.5881 106.932 90.5881 102.313C90.5881 97.9803 89.9443 93.7566 90.0214 89.4983C90.1537 82.195 88.8852 75.9791 86.7631 69.1146C85.9242 66.4011 83.7444 61.4497 79.9945 62.7783C76.6945 63.9475 75.6988 71.2789 75.288 74.0446C73.8497 83.7267 74.5469 93.6056 72.8009 103.246C72.5118 104.842 70.3136 105.751 68.7713 105.711C65.3891 105.621 63.3656 105.367 59.9564 106.137C53.9464 107.495 51.5966 106.055 52.3536 99.5954C52.7415 96.2861 52.9172 92.6263 51.6295 89.4667C49.9786 85.4157 50.7052 80.45 50.2916 76.1936C49.7921 71.0542 49.9656 65.9982 49.7721 60.8505Z" stroke="#D90175" stroke-width="7" stroke-linecap="square"/>
</svg>
