<svg width="814" height="618" viewBox="0 0 814 618" fill="none" xmlns="http://www.w3.org/2000/svg">
<path d="M0 521.01V395.51H57.1956C68.6347 395.51 78.4652 397.363 86.6871 401.068C95.0281 404.773 101.463 410.152 105.991 417.204C110.519 424.136 112.783 432.383 112.783 441.945C112.783 451.388 110.519 459.575 105.991 466.507C101.463 473.32 95.0281 478.579 86.6871 482.285C78.4652 485.87 68.6347 487.663 57.1956 487.663H19.661L35.3898 472.782V521.01H0ZM77.3928 521.01L46.2927 475.292H84.006L115.285 521.01H77.3928ZM35.3898 476.547L19.661 460.232H55.0508C62.4385 460.232 67.9198 458.619 71.4945 455.392C75.1884 452.165 77.0353 447.682 77.0353 441.945C77.0353 436.088 75.1884 431.547 71.4945 428.319C67.9198 425.092 62.4385 423.479 55.0508 423.479H19.661L35.3898 407.164V476.547Z" fill="white"/>
<path d="M190.039 523.52C171.569 523.52 157.151 518.441 146.784 508.281C136.418 498.122 131.234 483.719 131.234 465.073V395.51H166.624V463.997C166.624 474.755 168.709 482.464 172.88 487.125C177.17 491.787 183.008 494.118 190.396 494.118C197.784 494.118 203.563 491.787 207.733 487.125C211.904 482.464 213.989 474.755 213.989 463.997V395.51H248.843V465.073C248.843 483.719 243.659 498.122 233.293 508.281C222.926 518.441 208.508 523.52 190.039 523.52Z" fill="white"/>
<path d="M316.786 523.52C306.539 523.52 296.649 522.265 287.116 519.755C277.703 517.126 270.017 513.779 264.059 509.715L275.677 483.54C281.277 487.125 287.712 490.113 294.98 492.504C302.368 494.775 309.696 495.91 316.965 495.91C321.85 495.91 325.783 495.492 328.762 494.655C331.741 493.699 333.885 492.504 335.196 491.07C336.626 489.516 337.341 487.723 337.341 485.691C337.341 482.822 336.03 480.552 333.409 478.878C330.787 477.205 327.391 475.83 323.221 474.755C319.05 473.679 314.403 472.603 309.279 471.527C304.275 470.452 299.211 469.077 294.087 467.404C289.082 465.731 284.495 463.579 280.324 460.95C276.154 458.2 272.758 454.675 270.136 450.372C267.515 445.949 266.204 440.391 266.204 433.698C266.204 426.168 268.23 419.355 272.281 413.259C276.451 407.164 282.648 402.263 290.87 398.558C299.091 394.853 309.339 393 321.612 393C329.834 393 337.877 393.956 345.742 395.869C353.725 397.661 360.815 400.351 367.011 403.936L356.108 430.292C350.15 427.064 344.252 424.674 338.413 423.12C332.575 421.447 326.915 420.61 321.433 420.61C316.548 420.61 312.616 421.148 309.637 422.224C306.658 423.18 304.513 424.495 303.202 426.168C301.892 427.841 301.236 429.754 301.236 431.905C301.236 434.654 302.487 436.865 304.99 438.539C307.611 440.093 311.007 441.407 315.178 442.483C319.467 443.439 324.114 444.455 329.119 445.531C334.243 446.607 339.307 447.981 344.312 449.654C349.435 451.208 354.083 453.36 358.253 456.109C362.424 458.738 365.76 462.264 368.262 466.687C370.884 470.99 372.195 476.428 372.195 483.002C372.195 490.293 370.109 497.046 365.939 503.261C361.887 509.357 355.751 514.257 347.529 517.963C339.426 521.668 329.179 523.52 316.786 523.52Z" fill="white"/>
<path d="M413.428 521.01V423.658H375V395.51H487.067V423.658H448.818V521.01H413.428Z" fill="white"/>
<path d="M500.252 521.01V395.51H535.642V521.01H500.252Z" fill="white"/>
<path d="M623.378 523.52C613.487 523.52 604.312 521.967 595.852 518.859C587.392 515.632 580.064 511.09 573.868 505.233C567.791 499.377 563.024 492.504 559.569 484.615C556.113 476.607 554.385 467.822 554.385 458.26C554.385 448.698 556.113 439.973 559.569 432.084C563.024 424.076 567.85 417.144 574.046 411.287C580.243 405.431 587.571 400.948 596.031 397.841C604.61 394.614 613.964 393 624.093 393C635.889 393 646.435 394.972 655.729 398.916C665.023 402.861 672.709 408.538 678.786 415.949L656.265 436.387C651.975 431.726 647.328 428.26 642.324 425.989C637.438 423.598 631.957 422.403 625.88 422.403C620.518 422.403 615.632 423.24 611.224 424.913C606.815 426.586 603.061 429.037 599.963 432.264C596.865 435.371 594.422 439.136 592.635 443.559C590.967 447.862 590.133 452.762 590.133 458.26C590.133 463.519 590.967 468.36 592.635 472.782C594.422 477.205 596.865 481.03 599.963 484.257C603.061 487.364 606.755 489.815 611.045 491.608C615.454 493.281 620.279 494.118 625.522 494.118C630.765 494.118 635.889 493.281 640.894 491.608C645.898 489.815 650.963 486.827 656.086 482.643L675.926 507.564C668.777 512.704 660.495 516.648 651.082 519.397C641.668 522.146 632.434 523.52 623.378 523.52ZM644.647 502.903V455.571H675.926V507.564L644.647 502.903Z" fill="white"/>
<path d="M698.363 521.01V395.51H755.559C766.998 395.51 776.828 397.363 785.05 401.068C793.391 404.773 799.826 410.152 804.354 417.204C808.882 424.136 811.146 432.383 811.146 441.945C811.146 451.388 808.882 459.575 804.354 466.507C799.826 473.32 793.391 478.579 785.05 482.285C776.828 485.87 766.998 487.663 755.559 487.663H718.024L733.753 472.782V521.01H698.363ZM775.756 521.01L744.656 475.292H782.369L813.648 521.01H775.756ZM733.753 476.547L718.024 460.232H753.414C760.802 460.232 766.283 458.619 769.858 455.392C773.551 452.165 775.398 447.682 775.398 441.945C775.398 436.088 773.551 431.547 769.858 428.319C766.283 425.092 760.802 423.479 753.414 423.479H718.024L733.753 407.164V476.547Z" fill="white"/>
<path d="M177.788 606.319C175.256 606.319 172.967 605.758 170.92 604.636C168.91 603.477 167.309 601.776 166.118 599.532C164.964 597.288 164.387 594.483 164.387 591.118C164.387 587.752 164.983 584.947 166.174 582.704C167.402 580.46 169.021 578.777 171.031 577.655C173.079 576.533 175.331 575.972 177.788 575.972C180.691 575.972 183.259 576.608 185.493 577.88C187.726 579.151 189.494 580.927 190.797 583.208C192.1 585.452 192.752 588.089 192.752 591.118C192.752 594.147 192.1 596.802 190.797 599.083C189.494 601.364 187.726 603.14 185.493 604.412C183.259 605.683 180.691 606.319 177.788 606.319ZM162.098 605.983V564.361H167.458V584.162L166.9 591.062L167.235 597.961V605.983H162.098ZM177.341 601.607C179.239 601.607 180.933 601.177 182.422 600.317C183.948 599.457 185.139 598.242 185.995 596.671C186.889 595.063 187.335 593.212 187.335 591.118C187.335 588.986 186.889 587.154 185.995 585.621C185.139 584.05 183.948 582.835 182.422 581.974C180.933 581.114 179.239 580.684 177.341 580.684C175.48 580.684 173.786 581.114 172.26 581.974C170.771 582.835 169.58 584.05 168.686 585.621C167.83 587.154 167.402 588.986 167.402 591.118C167.402 593.212 167.83 595.063 168.686 596.671C169.58 598.242 170.771 599.457 172.26 600.317C173.786 601.177 175.48 601.607 177.341 601.607Z" fill="white"/>
<path d="M212.609 606.319C210.078 606.319 207.844 605.852 205.909 604.917C204.01 603.982 202.521 602.561 201.442 600.654C200.4 598.709 199.878 596.278 199.878 593.361V576.253H205.239V592.744C205.239 595.661 205.927 597.849 207.305 599.307C208.719 600.766 210.692 601.495 213.223 601.495C215.084 601.495 216.704 601.121 218.081 600.373C219.458 599.588 220.519 598.466 221.264 597.008C222.008 595.512 222.38 593.717 222.38 591.623V576.253H227.741V605.983H222.66V597.961L223.497 600.093C222.529 602.075 221.078 603.608 219.142 604.692C217.206 605.777 215.029 606.319 212.609 606.319Z" fill="white"/>
<path d="M237.945 605.983V576.253H243.082V584.33L242.579 582.311C243.398 580.254 244.776 578.684 246.711 577.599C248.647 576.515 251.029 575.972 253.858 575.972V581.189C253.635 581.152 253.412 581.133 253.188 581.133C253.002 581.133 252.816 581.133 252.63 581.133C249.764 581.133 247.493 581.993 245.818 583.713C244.143 585.434 243.305 587.92 243.305 591.174V605.983H237.945Z" fill="white"/>
<path d="M273.146 617.201C270.429 617.201 267.786 616.809 265.217 616.023C262.686 615.275 260.62 614.191 259.02 612.77L261.588 608.619C262.965 609.816 264.659 610.751 266.669 611.424C268.679 612.134 270.782 612.489 272.979 612.489C276.478 612.489 279.046 611.667 280.684 610.021C282.322 608.376 283.141 605.87 283.141 602.505V596.222L283.699 590.332L283.42 584.386V576.253H288.501V601.944C288.501 607.179 287.198 611.031 284.592 613.499C281.987 615.967 278.171 617.201 273.146 617.201ZM272.476 604.749C269.61 604.749 267.041 604.15 264.771 602.954C262.537 601.719 260.751 600.018 259.41 597.849C258.108 595.68 257.456 593.174 257.456 590.332C257.456 587.453 258.108 584.947 259.41 582.816C260.751 580.647 262.537 578.964 264.771 577.767C267.041 576.571 269.61 575.972 272.476 575.972C275.007 575.972 277.315 576.496 279.4 577.543C281.484 578.553 283.141 580.123 284.369 582.255C285.635 584.386 286.268 587.079 286.268 590.332C286.268 593.548 285.635 596.222 284.369 598.354C283.141 600.485 281.484 602.093 279.4 603.178C277.315 604.225 275.007 604.749 272.476 604.749ZM273.09 600.037C275.063 600.037 276.813 599.625 278.339 598.803C279.865 597.98 281.056 596.839 281.912 595.381C282.806 593.922 283.252 592.24 283.252 590.332C283.252 588.425 282.806 586.742 281.912 585.284C281.056 583.826 279.865 582.704 278.339 581.918C276.813 581.096 275.063 580.684 273.09 580.684C271.117 580.684 269.349 581.096 267.786 581.918C266.26 582.704 265.05 583.826 264.157 585.284C263.3 586.742 262.872 588.425 262.872 590.332C262.872 592.24 263.3 593.922 264.157 595.381C265.05 596.839 266.26 597.98 267.786 598.803C269.349 599.625 271.117 600.037 273.09 600.037Z" fill="white"/>
<path d="M311.92 606.319C308.756 606.319 305.964 605.665 303.545 604.356C301.163 603.047 299.301 601.252 297.961 598.971C296.658 596.69 296.007 594.072 296.007 591.118C296.007 588.163 296.64 585.546 297.905 583.265C299.208 580.983 300.976 579.207 303.21 577.936C305.48 576.627 308.03 575.972 310.859 575.972C313.726 575.972 316.257 576.608 318.453 577.88C320.649 579.151 322.362 580.946 323.59 583.265C324.856 585.546 325.488 588.22 325.488 591.286C325.488 591.51 325.47 591.772 325.433 592.071C325.433 592.37 325.414 592.651 325.377 592.913H300.195V589.042H322.585L320.407 590.388C320.445 588.481 320.054 586.78 319.235 585.284C318.416 583.788 317.28 582.629 315.829 581.806C314.414 580.946 312.758 580.516 310.859 580.516C308.998 580.516 307.342 580.946 305.89 581.806C304.438 582.629 303.303 583.807 302.484 585.34C301.665 586.836 301.256 588.556 301.256 590.501V591.398C301.256 593.38 301.702 595.156 302.596 596.727C303.526 598.26 304.81 599.457 306.448 600.317C308.086 601.177 309.966 601.607 312.088 601.607C313.837 601.607 315.419 601.308 316.834 600.71C318.286 600.111 319.551 599.214 320.631 598.017L323.59 601.495C322.25 603.066 320.575 604.262 318.565 605.085C316.592 605.908 314.377 606.319 311.92 606.319Z" fill="white"/>
<path d="M332.932 605.983V576.253H338.068V584.33L337.566 582.311C338.385 580.254 339.762 578.684 341.698 577.599C343.633 576.515 346.016 575.972 348.845 575.972V581.189C348.621 581.152 348.398 581.133 348.175 581.133C347.989 581.133 347.803 581.133 347.616 581.133C344.75 581.133 342.479 581.993 340.804 583.713C339.129 585.434 338.292 587.92 338.292 591.174V605.983H332.932Z" fill="white"/>
<path d="M379.315 606.319C376.858 606.319 374.513 605.983 372.28 605.309C370.083 604.636 368.353 603.814 367.087 602.841L369.32 598.578C370.586 599.438 372.149 600.168 374.011 600.766C375.872 601.364 377.77 601.663 379.706 601.663C382.2 601.663 383.987 601.308 385.066 600.598C386.183 599.887 386.741 598.896 386.741 597.625C386.741 596.69 386.406 595.96 385.736 595.437C385.066 594.913 384.173 594.521 383.056 594.259C381.977 593.997 380.767 593.773 379.427 593.586C378.087 593.361 376.747 593.1 375.407 592.801C374.066 592.464 372.838 592.015 371.721 591.454C370.605 590.856 369.711 590.052 369.041 589.042C368.371 587.995 368.036 586.611 368.036 584.891C368.036 583.096 368.539 581.526 369.544 580.179C370.549 578.833 371.963 577.805 373.787 577.094C375.648 576.346 377.845 575.972 380.376 575.972C382.312 575.972 384.266 576.215 386.239 576.702C388.249 577.15 389.887 577.805 391.152 578.665L388.863 582.928C387.523 582.03 386.127 581.413 384.675 581.077C383.224 580.74 381.772 580.572 380.32 580.572C377.975 580.572 376.225 580.965 375.071 581.75C373.918 582.498 373.341 583.47 373.341 584.667C373.341 585.677 373.676 586.462 374.346 587.023C375.053 587.546 375.946 587.958 377.026 588.257C378.142 588.556 379.371 588.818 380.711 589.042C382.051 589.229 383.391 589.491 384.731 589.828C386.071 590.127 387.281 590.557 388.36 591.118C389.477 591.679 390.371 592.464 391.041 593.474C391.748 594.483 392.101 595.83 392.101 597.512C392.101 599.307 391.58 600.859 390.538 602.168C389.496 603.477 388.025 604.505 386.127 605.253C384.229 605.964 381.958 606.319 379.315 606.319Z" fill="white"/>
<path d="M398.8 605.983V576.253H404.161V605.983H398.8ZM401.481 570.531C400.438 570.531 399.564 570.195 398.856 569.522C398.186 568.848 397.851 568.026 397.851 567.053C397.851 566.044 398.186 565.202 398.856 564.529C399.564 563.856 400.438 563.52 401.481 563.52C402.523 563.52 403.379 563.856 404.049 564.529C404.756 565.165 405.11 565.969 405.11 566.941C405.11 567.951 404.775 568.811 404.105 569.522C403.435 570.195 402.56 570.531 401.481 570.531Z" fill="white"/>
<path d="M430.197 575.972C432.616 575.972 434.738 576.44 436.562 577.375C438.423 578.31 439.875 579.731 440.917 581.638C441.96 583.545 442.481 585.957 442.481 588.874V605.983H437.12V589.491C437.12 586.611 436.413 584.443 434.999 582.984C433.621 581.526 431.667 580.796 429.136 580.796C427.238 580.796 425.581 581.17 424.167 581.918C422.752 582.666 421.654 583.769 420.872 585.228C420.128 586.686 419.755 588.5 419.755 590.669V605.983H414.395V576.253H419.532V584.274L418.695 582.143C419.662 580.198 421.151 578.684 423.161 577.599C425.172 576.515 427.517 575.972 430.197 575.972Z" fill="white"/>
<path d="M465.299 606.319C462.284 606.319 459.585 605.665 457.203 604.356C454.858 603.047 453.015 601.252 451.675 598.971C450.335 596.69 449.665 594.072 449.665 591.118C449.665 588.163 450.335 585.546 451.675 583.265C453.015 580.983 454.858 579.207 457.203 577.936C459.585 576.627 462.284 575.972 465.299 575.972C467.979 575.972 470.361 576.515 472.446 577.599C474.568 578.646 476.205 580.217 477.359 582.311L473.283 584.947C472.316 583.489 471.124 582.423 469.71 581.75C468.333 581.04 466.844 580.684 465.243 580.684C463.307 580.684 461.576 581.114 460.05 581.974C458.524 582.835 457.314 584.05 456.421 585.621C455.528 587.154 455.081 588.986 455.081 591.118C455.081 593.249 455.528 595.1 456.421 596.671C457.314 598.242 458.524 599.457 460.05 600.317C461.576 601.177 463.307 601.607 465.243 601.607C466.844 601.607 468.333 601.271 469.71 600.598C471.124 599.887 472.316 598.803 473.283 597.344L477.359 599.924C476.205 601.981 474.568 603.571 472.446 604.692C470.361 605.777 467.979 606.319 465.299 606.319Z" fill="white"/>
<path d="M497.04 606.319C493.876 606.319 491.084 605.665 488.665 604.356C486.283 603.047 484.421 601.252 483.081 598.971C481.778 596.69 481.127 594.072 481.127 591.118C481.127 588.163 481.76 585.546 483.025 583.265C484.328 580.983 486.096 579.207 488.33 577.936C490.6 576.627 493.15 575.972 495.979 575.972C498.846 575.972 501.377 576.608 503.573 577.88C505.769 579.151 507.482 580.946 508.71 583.265C509.976 585.546 510.608 588.22 510.608 591.286C510.608 591.51 510.59 591.772 510.553 592.071C510.553 592.37 510.534 592.651 510.497 592.913H485.315V589.042H507.705L505.527 590.388C505.565 588.481 505.174 586.78 504.355 585.284C503.536 583.788 502.4 582.629 500.949 581.806C499.534 580.946 497.878 580.516 495.979 580.516C494.118 580.516 492.462 580.946 491.01 581.806C489.558 582.629 488.423 583.807 487.604 585.34C486.785 586.836 486.376 588.556 486.376 590.501V591.398C486.376 593.38 486.822 595.156 487.716 596.727C488.646 598.26 489.93 599.457 491.568 600.317C493.206 601.177 495.086 601.607 497.208 601.607C498.957 601.607 500.539 601.308 501.954 600.71C503.406 600.111 504.671 599.214 505.751 598.017L508.71 601.495C507.37 603.066 505.695 604.262 503.685 605.085C501.712 605.908 499.497 606.319 497.04 606.319Z" fill="white"/>
<path d="M537.234 605.983V568.961L539.635 571.597H528.412V566.717H542.762V605.983H537.234Z" fill="white"/>
<path d="M563.986 566.268C567.522 566.268 570.5 567.035 572.92 568.568C575.377 570.101 577.238 572.326 578.504 575.243C579.769 578.123 580.402 581.657 580.402 585.845C580.402 590.295 579.62 594.053 578.057 597.12C576.493 600.186 574.334 602.505 571.58 604.075C568.825 605.646 565.605 606.431 561.92 606.431C560.096 606.431 558.328 606.244 556.616 605.87C554.941 605.496 553.47 604.917 552.205 604.131L554.327 599.756C555.369 600.429 556.523 600.915 557.788 601.215C559.091 601.476 560.45 601.607 561.864 601.607C565.81 601.607 568.956 600.373 571.301 597.905C573.646 595.4 574.818 591.697 574.818 586.798C574.818 586.013 574.781 585.078 574.707 583.994C574.632 582.909 574.465 581.844 574.204 580.796L576.047 582.704C575.526 584.424 574.651 585.882 573.422 587.079C572.231 588.238 570.78 589.117 569.067 589.715C567.392 590.276 565.55 590.557 563.54 590.557C560.971 590.557 558.682 590.071 556.672 589.098C554.662 588.126 553.08 586.761 551.926 585.003C550.772 583.208 550.195 581.096 550.195 578.665C550.195 576.122 550.79 573.934 551.981 572.102C553.21 570.232 554.866 568.792 556.951 567.783C559.073 566.773 561.418 566.268 563.986 566.268ZM564.21 570.812C562.534 570.812 561.045 571.13 559.743 571.765C558.44 572.401 557.416 573.28 556.672 574.402C555.964 575.524 555.611 576.87 555.611 578.44C555.611 580.759 556.411 582.61 558.012 583.994C559.612 585.34 561.771 586.013 564.489 586.013C566.275 586.013 567.839 585.677 569.179 585.003C570.556 584.33 571.617 583.414 572.362 582.255C573.143 581.096 573.534 579.805 573.534 578.384C573.534 577.001 573.18 575.748 572.473 574.626C571.766 573.504 570.724 572.588 569.346 571.878C567.969 571.167 566.257 570.812 564.21 570.812Z" fill="white"/>
<path d="M598.447 566.268C601.984 566.268 604.962 567.035 607.381 568.568C609.838 570.101 611.699 572.326 612.965 575.243C614.23 578.123 614.863 581.657 614.863 585.845C614.863 590.295 614.081 594.053 612.518 597.12C610.955 600.186 608.796 602.505 606.041 604.075C603.286 605.646 600.067 606.431 596.381 606.431C594.558 606.431 592.789 606.244 591.077 605.87C589.402 605.496 587.932 604.917 586.666 604.131L588.788 599.756C589.83 600.429 590.984 600.915 592.25 601.215C593.552 601.476 594.911 601.607 596.326 601.607C600.271 601.607 603.417 600.373 605.762 597.905C608.107 595.4 609.28 591.697 609.28 586.798C609.28 586.013 609.242 585.078 609.168 583.994C609.093 582.909 608.926 581.844 608.665 580.796L610.508 582.704C609.987 584.424 609.112 585.882 607.884 587.079C606.692 588.238 605.241 589.117 603.528 589.715C601.853 590.276 600.011 590.557 598.001 590.557C595.432 590.557 593.143 590.071 591.133 589.098C589.123 588.126 587.541 586.761 586.387 585.003C585.233 583.208 584.656 581.096 584.656 578.665C584.656 576.122 585.252 573.934 586.443 572.102C587.671 570.232 589.328 568.792 591.412 567.783C593.534 566.773 595.879 566.268 598.447 566.268ZM598.671 570.812C596.996 570.812 595.507 571.13 594.204 571.765C592.901 572.401 591.877 573.28 591.133 574.402C590.426 575.524 590.072 576.87 590.072 578.44C590.072 580.759 590.872 582.61 592.473 583.994C594.074 585.34 596.233 586.013 598.95 586.013C600.737 586.013 602.3 585.677 603.64 585.003C605.017 584.33 606.078 583.414 606.823 582.255C607.604 581.096 607.995 579.805 607.995 578.384C607.995 577.001 607.642 575.748 606.934 574.626C606.227 573.504 605.185 572.588 603.808 571.878C602.43 571.167 600.718 570.812 598.671 570.812Z" fill="white"/>
<path d="M636.65 606.431C633.188 606.431 630.228 605.665 627.772 604.131C625.315 602.598 623.435 600.392 622.132 597.512C620.867 594.596 620.234 591.043 620.234 586.855C620.234 582.404 621.016 578.646 622.579 575.58C624.142 572.513 626.32 570.195 629.112 568.624C631.904 567.053 635.105 566.268 638.716 566.268C640.577 566.268 642.345 566.455 644.02 566.829C645.732 567.203 647.203 567.783 648.431 568.568L646.309 572.943C645.304 572.233 644.15 571.747 642.847 571.485C641.582 571.223 640.242 571.092 638.827 571.092C634.844 571.092 631.68 572.345 629.335 574.85C626.99 577.319 625.817 581.002 625.817 585.901C625.817 586.686 625.855 587.621 625.929 588.706C626.004 589.79 626.19 590.856 626.488 591.903L624.589 589.996C625.147 588.276 626.022 586.836 627.213 585.677C628.442 584.48 629.893 583.601 631.569 583.04C633.281 582.442 635.123 582.143 637.096 582.143C639.702 582.143 642.01 582.629 644.02 583.601C646.03 584.573 647.612 585.957 648.766 587.752C649.92 589.51 650.497 591.604 650.497 594.035C650.497 596.54 649.883 598.728 648.654 600.598C647.426 602.467 645.769 603.907 643.685 604.917C641.6 605.926 639.255 606.431 636.65 606.431ZM636.426 601.888C638.139 601.888 639.628 601.57 640.893 600.934C642.196 600.298 643.22 599.42 643.964 598.298C644.709 597.138 645.081 595.792 645.081 594.259C645.081 591.94 644.281 590.108 642.68 588.762C641.079 587.378 638.902 586.686 636.147 586.686C634.36 586.686 632.797 587.023 631.457 587.696C630.117 588.369 629.056 589.285 628.274 590.445C627.53 591.566 627.158 592.857 627.158 594.315C627.158 595.661 627.511 596.914 628.218 598.073C628.926 599.195 629.968 600.111 631.345 600.822C632.722 601.532 634.416 601.888 636.426 601.888Z" fill="white"/>
<path d="M390 46.3476C401.435 37.7713 431.614 26.5103 460.847 50.0764" stroke="white" stroke-width="8" stroke-linecap="round"/>
<path d="M438.881 249.202C448.576 245.1 463.5 235.5 469.084 229.439" stroke="white" stroke-width="7" stroke-linecap="round"/>
<path d="M476.5 78.9998C465.564 80.2171 451.179 84.645 438.885 90.424C427.548 95.7537 419.663 105.947 414.273 117.256L403.457 139.948L423.764 131.675C430.275 129.022 437.308 128.017 444.338 127.904C455.286 127.729 468.364 126.16 472.067 120.931C474.445 117.573 476.261 113.647 477.582 110.014C479.902 103.634 482.381 97.1999 486.422 91.7448L495.186 79.9139C486.5 78.9998 484.711 78.0856 476.5 78.9998Z" fill="white" stroke="white"/>
<path d="M572 139.202C565.635 122.276 554.406 107.439 543.5 97.2279C538.18 92.2468 532.937 88.3663 528.373 85.8804C528.79 89.7361 529.114 94.1987 529.268 99C530.074 124.226 526.171 158.801 506.373 163.813C482.807 169.779 484.249 219.191 487.729 242.219C535.176 215.28 572 183.07 572 139.202Z" fill="white"/>
<path d="M411.661 170.525C408.977 175.596 394.633 174.378 387.797 173.135V207.44C403.831 203.711 419.492 180.219 418.746 178.355C418 176.491 415.017 164.186 411.661 170.525Z" fill="white"/>
<path d="M411.661 246.965C419.716 240.104 419.74 229.054 418.746 224.386C413.717 226.26 408.457 227.602 403.458 228.522C404.102 230.577 405.11 233.546 406.259 236.524C407.992 241.016 410.047 245.53 411.661 246.965Z" fill="white"/>
<path d="M550.746 3.47362C534.712 -0.628074 492.204 23.2363 481.399 24.102C490.557 34.8262 509.754 58.3011 522.568 77C524.706 80.1203 526.667 83.1076 528.373 85.8804C530.533 81.5384 532.985 76.3661 535.5 70.7583C547.688 43.5876 561.379 6.1936 550.746 3.47362Z" fill="white"/>
<path d="M403.458 228.522C397.621 229.595 392.139 230.092 387.797 230.186V236.524C388.483 236.771 390.121 237.037 391.899 237.278C394.294 237.603 396.945 237.884 397.865 238.016C403.683 238.853 403.871 237.402 406.259 236.524C405.11 233.546 404.102 230.577 403.458 228.522Z" fill="white"/>
<path d="M411.661 290.219C411.661 290.219 402.712 298.174 398.238 299.169L393.39 296.931L391.526 298.423L387.797 311.474C393.26 311.787 397.948 312.003 401.966 312.071C409.797 308.689 411.661 290.219 411.661 290.219Z" fill="white"/>
<path d="M528.373 85.8804C530.533 81.5384 532.985 76.3661 535.5 70.7583C533.333 78.1575 535.5 88.5 543.5 97.2279C538.18 92.2468 532.937 88.3663 528.373 85.8804Z" fill="white"/>
<path d="M481.399 24.102C492.204 23.2363 534.712 -0.628074 550.746 3.47362C561.379 6.1936 547.688 43.5876 535.5 70.7583M481.399 24.102C456.61 13.9132 419.297 12.0573 403.458 12.4228H387.797M481.399 24.102C481.899 24.3072 480.45 24.102 481.399 24.102ZM481.399 24.102C490.557 34.8262 509.754 58.3011 522.568 77M528.373 85.8804C530.533 81.5384 532.985 76.3661 535.5 70.7583M528.373 85.8804C532.937 88.3663 538.18 92.2468 543.5 97.2279M528.373 85.8804C526.667 83.1076 524.706 80.1203 522.568 77M528.373 85.8804C528.79 89.7361 529.114 94.1987 529.268 99M424.339 273.813C420.983 251.813 438.882 214.897 444.475 198.491M424.339 273.813C446.049 263.894 467.824 253.52 487.729 242.219M424.339 273.813C425.304 305.643 430.451 312.555 401.966 312.071M387.797 311.474V244.728V240.626M387.797 311.474L391.526 298.423L393.39 296.931L398.238 299.169C402.712 298.174 411.661 290.219 411.661 290.219C411.661 290.219 409.797 308.689 401.966 312.071M387.797 311.474C393.26 311.787 397.948 312.003 401.966 312.071M387.797 207.44V173.135C394.633 174.378 408.977 175.596 411.661 170.525C415.017 164.186 418 176.491 418.746 178.355C419.492 180.219 403.831 203.711 387.797 207.44ZM387.797 207.44C388.5 213.5 413.749 232.199 444.475 198.491M444.475 198.491C442.553 211.62 431.378 219.679 418.746 224.386M418.746 224.386C419.74 229.054 419.716 240.104 411.661 246.965C410.047 245.53 407.992 241.016 406.259 236.524M418.746 224.386C413.717 226.26 408.457 227.602 403.458 228.522M403.458 228.522C397.621 229.595 392.139 230.092 387.797 230.186V236.524M403.458 228.522C404.102 230.577 405.11 233.546 406.259 236.524M487.729 242.219C535.176 215.28 572 183.07 572 139.202C565.635 122.276 554.406 107.439 543.5 97.2279M487.729 242.219C484.249 219.191 482.807 169.779 506.373 163.813C526.171 158.801 530.074 124.226 529.268 99M406.259 236.524L401.966 240.999L397.865 238.016M406.259 236.524C403.871 237.402 403.683 238.853 397.865 238.016M387.797 236.524C388.483 236.771 390.121 237.037 391.899 237.278M387.797 236.524V240.626M397.865 238.016L394.882 240.999L391.899 237.278M397.865 238.016C396.945 237.884 394.294 237.603 391.899 237.278M391.899 237.278L387.797 240.626M535.5 70.7583C533.333 78.1575 535.5 88.5 543.5 97.2279M522.568 77C525.1 80.3333 529.983 89.4 529.268 99" stroke="white" stroke-width="5"/>
<path d="M450.322 170.395C461.654 173.885 473.931 172.962 477.483 173.071C468.448 165.576 462.168 170.369 451.325 166.589C440.755 162.904 427.21 152.333 422.999 151.134C428.264 157.694 440.729 167.44 450.322 170.395Z" fill="white" stroke="white" stroke-width="5"/>
<path d="M389.662 80.6598C392.521 72.5807 402.34 57.1682 418.747 60.1513" stroke="white" stroke-width="8" stroke-linecap="round"/>
<path d="M314.83 105.099C336.542 101.798 325.336 109.186 339.694 105.099L352.865 107.407V121.761C338.858 124.748 357.904 116.102 336.542 116.417C315.18 116.731 344.597 119.561 322.184 121.761C299.772 123.962 322.184 117.36 301.173 114.688C280.161 112.015 285.764 119.089 271.056 116.417C256.348 113.745 271.056 110.601 257.749 111.544C244.441 112.487 257.749 111.544 242.691 105.099C235.907 102.196 250.395 106.828 271.056 103.684C291.718 100.54 270.356 109.5 292.418 105.099C314.48 100.698 293.118 108.4 314.83 105.099Z" fill="white" stroke="white" stroke-width="5"/>
<path d="M356.376 12.4219C266.344 12.4221 242.456 59.9642 251.112 81.7778H353.304L356.376 12.4219Z" fill="white" stroke="white" stroke-width="5"/>
<path d="M353.407 152.589C336.297 148.747 268.885 152.852 251.761 154.651C250.17 154.819 249 156.169 249 157.769C249 159.43 250.246 160.818 251.9 160.967C278.259 163.342 337.25 166.674 353.407 164.519V152.589Z" fill="white" stroke="white" stroke-width="5"/>
<path d="M242.11 209.534C242.11 214.364 239.612 223.28 242.11 231.694C261.737 238.797 352.864 238.797 352.864 238.797V203C352.864 203 242.11 204.705 242.11 209.534Z" fill="white" stroke="white" stroke-width="5"/>
<path d="M242 278.39C249.476 303.017 271.108 310.853 280.99 311.692C300.25 311.88 327.584 312.098 353.864 312.219V272.693C309.73 273.049 264.652 275.025 242 278.39Z" fill="white" stroke="white" stroke-width="5"/>
<line x1="373.033" y1="17.4219" x2="373.033" y2="307.227" stroke="white" stroke-width="10" stroke-linecap="round"/>
<path d="M458.679 88.4102C451.305 87.5735 433.79 87.6971 430.6 91.8806C427.41 96.064 425.357 113.511 425.003 118.392C424.649 123.272 457.544 123.133 462.932 118.392C469.668 112.465 467.895 89.4561 458.679 88.4102Z" fill="#11115B" stroke="#11115B" stroke-width="5"/>
</svg>
