<svg width="34" height="37" viewBox="0 0 34 37" fill="none" xmlns="http://www.w3.org/2000/svg">
<path d="M4.50004 36.75C3.35421 36.75 2.37296 36.3417 1.55629 35.525C0.739627 34.7083 0.331989 33.7278 0.333378 32.5833V13.8333C0.333378 13.1736 0.481294 12.5486 0.777127 11.9583C1.07296 11.3681 1.4806 10.8819 2.00004 10.5L14.5 1.125C14.882 0.84722 15.2813 0.638886 15.698 0.499997C16.1146 0.361108 16.5487 0.291664 17 0.291664C17.4514 0.291664 17.8855 0.361108 18.3021 0.499997C18.7188 0.638886 19.1181 0.84722 19.5 1.125L32 10.5C32.5209 10.8819 32.9292 11.3681 33.225 11.9583C33.5209 12.5486 33.6681 13.1736 33.6667 13.8333V32.5833C33.6667 33.7292 33.2584 34.7104 32.4417 35.5271C31.625 36.3438 30.6445 36.7514 29.5 36.75H21.1667V22.1667H12.8334V36.75H4.50004Z" fill="black"/>
</svg>
