<svg width="205" height="199" viewBox="0 0 205 199" fill="none" xmlns="http://www.w3.org/2000/svg">
<path d="M36.3448 166.641C34.2748 166.641 32.4716 166.225 30.9351 165.393C29.3986 164.539 28.2036 163.28 27.35 161.616C26.5177 159.93 26.1016 157.871 26.1016 155.438C26.1016 152.962 26.5284 150.86 27.382 149.132C28.2356 147.382 29.452 146.048 31.0311 145.131C32.6316 144.213 34.5202 143.754 36.6969 143.754C37.8493 143.754 39.055 143.893 40.3141 144.17C41.5945 144.426 42.8855 144.832 44.1873 145.387L43.9632 150.38H42.3627L41.8185 146.443L42.2347 146.891C41.3384 146.571 40.4101 146.315 39.4498 146.123C38.4895 145.931 37.5825 145.835 36.7289 145.835C35.1284 145.835 33.7413 146.208 32.5676 146.955C31.3939 147.702 30.487 148.79 29.8467 150.22C29.2279 151.629 28.9185 153.347 28.9185 155.374C28.9185 158.319 29.6013 160.592 30.9671 162.192C32.3329 163.771 34.2321 164.561 36.6649 164.561C37.4758 164.561 38.3188 164.475 39.1937 164.305C40.09 164.113 41.0183 163.835 41.9786 163.472L41.6265 164.081V157.166L42.1066 157.647L38.8416 157.23V155.79L46.7481 155.63V157.07L43.7391 157.679L44.0913 157.166V164.945C42.7041 165.521 41.3597 165.948 40.058 166.225C38.7562 166.503 37.5185 166.641 36.3448 166.641Z" fill="white"/>
<path d="M56.5544 166.673C55.1247 166.673 53.8549 166.353 52.7452 165.713C51.6569 165.052 50.8033 164.091 50.1844 162.832C49.5656 161.573 49.2561 160.037 49.2561 158.223C49.2561 156.366 49.5762 154.766 50.2164 153.421C50.8566 152.077 51.7636 151.042 52.9373 150.316C54.111 149.569 55.4874 149.196 57.0666 149.196C58.5604 149.196 59.7875 149.516 60.7478 150.156C61.7294 150.775 62.455 151.639 62.9245 152.749C63.4153 153.859 63.6607 155.128 63.6607 156.558C63.6607 156.793 63.65 157.028 63.6287 157.262C63.6073 157.497 63.5753 157.785 63.5327 158.127H51.2088V156.302H61.2919L61.0039 156.494C61.0252 155.534 60.9078 154.648 60.6517 153.837C60.3957 153.026 59.9582 152.376 59.3393 151.885C58.7205 151.394 57.8989 151.149 56.8745 151.149C55.7862 151.149 54.8686 151.437 54.1217 152.013C53.3748 152.589 52.8199 153.379 52.4571 154.382C52.0944 155.385 51.913 156.548 51.913 157.871C51.913 159.279 52.1157 160.495 52.5212 161.52C52.9266 162.523 53.5135 163.302 54.2817 163.857C55.0713 164.411 56.0316 164.689 57.1626 164.689C57.9522 164.689 58.8165 164.539 59.7555 164.241C60.6944 163.921 61.6654 163.44 62.6684 162.8L63.5967 164.241C62.4016 165.052 61.2066 165.66 60.0115 166.065C58.8165 166.471 57.6641 166.673 56.5544 166.673Z" fill="white"/>
<path d="M66.4416 166.385V165.009L69.3225 164.369L68.9384 164.849V151.085L69.3225 151.565L66.4416 150.956V149.58L70.923 149.356L71.2751 152.493L70.923 152.365C71.99 151.277 73.0997 150.476 74.252 149.964C75.4257 149.452 76.5354 149.196 77.5811 149.196C78.9895 149.196 80.1526 149.633 81.0702 150.508C82.0092 151.362 82.468 152.696 82.4466 154.51V164.849L82.1265 164.401L84.9434 165.009V166.385H77.4851V165.009L80.2699 164.401L79.8858 164.881V155.054C79.8858 153.731 79.5871 152.76 78.9895 152.141C78.392 151.522 77.5918 151.213 76.5888 151.213C75.7992 151.213 74.9349 151.426 73.996 151.853C73.0783 152.28 72.1714 152.941 71.2751 153.837L71.4992 153.325V164.881L71.1791 164.433L73.8999 165.009V166.385H66.4416Z" fill="white"/>
<path d="M94.3164 166.673C92.8866 166.673 91.6169 166.353 90.5072 165.713C89.4188 165.052 88.5652 164.091 87.9464 162.832C87.3275 161.573 87.0181 160.037 87.0181 158.223C87.0181 156.366 87.3382 154.766 87.9784 153.421C88.6186 152.077 89.5255 151.042 90.6992 150.316C91.873 149.569 93.2494 149.196 94.8286 149.196C96.3224 149.196 97.5494 149.516 98.5097 150.156C99.4914 150.775 100.217 151.639 100.686 152.749C101.177 153.859 101.423 155.128 101.423 156.558C101.423 156.793 101.412 157.028 101.391 157.262C101.369 157.497 101.337 157.785 101.295 158.127H88.9707V156.302H99.0539L98.7658 156.494C98.7871 155.534 98.6698 154.648 98.4137 153.837C98.1576 153.026 97.7201 152.376 97.1013 151.885C96.4824 151.394 95.6608 151.149 94.6365 151.149C93.5481 151.149 92.6305 151.437 91.8836 152.013C91.1367 152.589 90.5819 153.379 90.2191 154.382C89.8563 155.385 89.6749 156.548 89.6749 157.871C89.6749 159.279 89.8777 160.495 90.2831 161.52C90.6886 162.523 91.2754 163.302 92.0437 163.857C92.8333 164.411 93.7936 164.689 94.9246 164.689C95.7142 164.689 96.5784 164.539 97.5174 164.241C98.4564 163.921 99.4273 163.44 100.43 162.8L101.359 164.241C100.164 165.052 98.9685 165.66 97.7735 166.065C96.5784 166.471 95.4261 166.673 94.3164 166.673Z" fill="white"/>
<path d="M112.638 149.58L119.328 149.356V150.764L117.151 151.405L117.6 150.924L112.03 166.449H109.021L103.931 150.988L104.379 151.405L102.171 150.956V149.58L109.213 149.356V150.764L106.3 151.309L106.556 150.924L110.845 164.817H110.589L115.231 151.02L115.423 151.309L112.638 150.956V149.58Z" fill="white"/>
<path d="M125.266 164.753L124.978 164.401L127.763 165.009V166.385H120.209V165.009L122.993 164.401L122.705 164.753V151.245L122.961 151.533L120.209 150.956V149.58L125.266 149.388V164.753ZM123.794 145.931C123.303 145.931 122.897 145.771 122.577 145.451C122.257 145.131 122.097 144.693 122.097 144.138C122.097 143.562 122.257 143.125 122.577 142.826C122.919 142.506 123.335 142.346 123.826 142.346C124.338 142.346 124.754 142.495 125.074 142.794C125.394 143.093 125.554 143.541 125.554 144.138C125.554 144.714 125.384 145.163 125.042 145.483C124.701 145.781 124.285 145.931 123.794 145.931Z" fill="white"/>
<path d="M137.361 166.673C135.931 166.673 134.662 166.353 133.552 165.713C132.464 165.052 131.61 164.091 130.991 162.832C130.372 161.573 130.063 160.037 130.063 158.223C130.063 156.366 130.383 154.766 131.023 153.421C131.663 152.077 132.57 151.042 133.744 150.316C134.918 149.569 136.294 149.196 137.873 149.196C139.367 149.196 140.594 149.516 141.555 150.156C142.536 150.775 143.262 151.639 143.731 152.749C144.222 153.859 144.468 155.128 144.468 156.558C144.468 156.793 144.457 157.028 144.435 157.262C144.414 157.497 144.382 157.785 144.339 158.127H132.016V156.302H142.099L141.811 156.494C141.832 155.534 141.715 154.648 141.459 153.837C141.202 153.026 140.765 152.376 140.146 151.885C139.527 151.394 138.706 151.149 137.681 151.149C136.593 151.149 135.675 151.437 134.928 152.013C134.182 152.589 133.627 153.379 133.264 154.382C132.901 155.385 132.72 156.548 132.72 157.871C132.72 159.279 132.923 160.495 133.328 161.52C133.733 162.523 134.32 163.302 135.089 163.857C135.878 164.411 136.838 164.689 137.969 164.689C138.759 164.689 139.623 164.539 140.562 164.241C141.501 163.921 142.472 163.44 143.475 162.8L144.403 164.241C143.208 165.052 142.013 165.66 140.818 166.065C139.623 166.471 138.471 166.673 137.361 166.673ZM135.505 140.617L141.202 145.195L140.21 146.539L134.032 142.538L135.505 140.617Z" fill="white"/>
<path d="M155.714 149.58L162.404 149.356V150.764L160.227 151.405L160.676 150.924L155.106 166.449H152.097L147.007 150.988L147.455 151.405L145.247 150.956V149.58L152.289 149.356V150.764L149.376 151.309L149.632 150.924L153.921 164.817H153.665L158.307 151.02L158.499 151.309L155.714 150.956V149.58Z" fill="white"/>
<path d="M170.465 166.673C169.036 166.673 167.766 166.353 166.656 165.713C165.568 165.052 164.714 164.091 164.095 162.832C163.477 161.573 163.167 160.037 163.167 158.223C163.167 156.366 163.487 154.766 164.127 153.421C164.768 152.077 165.675 151.042 166.848 150.316C168.022 149.569 169.398 149.196 170.978 149.196C172.471 149.196 173.699 149.516 174.659 150.156C175.64 150.775 176.366 151.639 176.835 152.749C177.326 153.859 177.572 155.128 177.572 156.558C177.572 156.793 177.561 157.028 177.54 157.262C177.518 157.497 177.486 157.785 177.444 158.127H165.12V156.302H175.203L174.915 156.494C174.936 155.534 174.819 154.648 174.563 153.837C174.307 153.026 173.869 152.376 173.25 151.885C172.632 151.394 171.81 151.149 170.786 151.149C169.697 151.149 168.78 151.437 168.033 152.013C167.286 152.589 166.731 153.379 166.368 154.382C166.005 155.385 165.824 156.548 165.824 157.871C165.824 159.279 166.027 160.495 166.432 161.52C166.838 162.523 167.425 163.302 168.193 163.857C168.982 164.411 169.943 164.689 171.074 164.689C171.863 164.689 172.728 164.539 173.666 164.241C174.605 163.921 175.576 163.44 176.579 162.8L177.508 164.241C176.313 165.052 175.118 165.66 173.923 166.065C172.728 166.471 171.575 166.673 170.465 166.673Z" fill="white"/>
<path d="M9.37897 198.427L2.40076 177.652L3.10498 178.164L0 177.588V176.212L8.45067 176.052V177.428L4.96157 178.1L5.28167 177.428L11.1715 196.09H10.7554L17.0614 177.588L17.3175 178.132L13.8924 177.588V176.212L21.8949 176.052V177.428L18.7899 178.1L19.4622 177.588L12.1318 198.427H9.37897Z" fill="white"/>
<path d="M32.1842 198.683C30.3489 198.683 28.6951 198.267 27.2226 197.435C25.7715 196.602 24.6191 195.354 23.7655 193.689C22.9333 192.003 22.5171 189.923 22.5171 187.447C22.5171 185.505 22.7732 183.809 23.2854 182.358C23.8189 180.885 24.5551 179.658 25.4941 178.677C26.433 177.695 27.5107 176.969 28.7271 176.5C29.9648 176.009 31.2879 175.764 32.6963 175.764C34.0621 175.764 35.3425 175.998 36.5376 176.468C37.7326 176.916 38.7783 177.61 39.6746 178.549C40.5708 179.466 41.2644 180.619 41.7552 182.006C42.2674 183.393 42.5235 185.004 42.5235 186.839C42.5235 189.357 42.0646 191.502 41.147 193.273C40.2507 195.023 39.0237 196.368 37.4659 197.306C35.908 198.224 34.1475 198.683 32.1842 198.683ZM32.3442 196.602C33.6673 196.602 34.8837 196.271 35.9934 195.61C37.1244 194.927 38.0207 193.881 38.6822 192.473C39.3651 191.065 39.7066 189.24 39.7066 186.999C39.7066 184.865 39.3865 183.126 38.7463 181.782C38.1274 180.437 37.2738 179.445 36.1855 178.805C35.1184 178.164 33.9127 177.844 32.5683 177.844C31.2666 177.844 30.0608 178.175 28.9512 178.837C27.8628 179.477 26.9879 180.501 26.3263 181.91C25.6648 183.297 25.334 185.111 25.334 187.351C25.334 189.485 25.6434 191.235 26.2623 192.601C26.9025 193.967 27.7454 194.98 28.7911 195.642C29.8581 196.282 31.0425 196.602 32.3442 196.602Z" fill="white"/>
<path d="M59.6846 192.697H61.2851V198.395H46.0163V197.018L49.1533 196.378L48.7692 196.922V177.588L49.1533 178.164L46.0163 177.588V176.212L54.531 176.052V177.428L51.0419 178.164L51.394 177.588V196.922L50.9139 196.442H59.5246L59.0764 196.922L59.6846 192.697Z" fill="white"/>
<path d="M77.3777 192.697H78.9782V198.395H63.7094V197.018L66.8464 196.378L66.4623 196.922V177.588L66.8464 178.164L63.7094 177.588V176.212L72.2241 176.052V177.428L68.735 178.164L69.0871 177.588V196.922L68.607 196.442H77.2177L76.7695 196.922L77.3777 192.697Z" fill="white"/>
<path d="M95.9671 193.145H97.5676V198.395H81.4025V197.018L84.5715 196.346L84.1554 196.922V177.588L84.5715 178.164L81.4025 177.588V176.212L86.7482 176.052H97.1835V181.109H95.583L95.0068 177.588L95.551 178.004H86.3001L86.7802 177.524V186.487L86.3001 186.007H94.8468V187.928H86.3001L86.7802 187.383V196.922L86.3001 196.442H95.9671L95.3909 196.922L95.9671 193.145Z" fill="white"/>
<path d="M107.692 198.395V197.018L110.861 196.346L110.445 196.922V177.588L110.989 178.196L107.692 177.588V176.212L113.166 176.052H116.911C119.322 176.052 121.147 176.553 122.385 177.556C123.622 178.559 124.241 180.01 124.241 181.91C124.241 183.66 123.686 185.089 122.577 186.199C121.488 187.309 119.824 187.981 117.583 188.216L117.551 187.896C118.383 187.981 119.056 188.173 119.568 188.472C120.101 188.749 120.549 189.133 120.912 189.624C121.275 190.094 121.627 190.68 121.969 191.385L124.657 196.826L123.857 196.282L126.546 197.018V198.395H122.609L119.664 192.089C119.258 191.171 118.864 190.467 118.479 189.976C118.117 189.464 117.658 189.101 117.103 188.888C116.57 188.674 115.801 188.568 114.798 188.568L112.59 188.6L113.07 188.152V196.922L112.654 196.346L116.367 197.018V198.395H107.692ZM113.07 187.383L112.59 186.679H115.631C117.53 186.679 118.992 186.295 120.016 185.527C121.04 184.737 121.552 183.585 121.552 182.07C121.552 180.747 121.136 179.744 120.304 179.061C119.472 178.356 118.234 178.004 116.591 178.004H112.59L113.07 177.524V187.383Z" fill="white"/>
<path d="M147.049 196.986L146.313 196.346L149.322 197.018V198.395H140.999V197.018L144.328 196.378L144.072 196.826L142.375 191.705L142.855 192.089H133.06L133.508 191.705L131.684 196.762L131.524 196.41L134.789 197.018V198.395H126.914V197.018L129.859 196.346L129.187 196.922L136.998 176.084L139.654 175.988L147.049 196.986ZM133.861 190.584L133.605 190.168H142.343L142.055 190.616L137.862 177.588L138.47 177.62L133.861 190.584Z" fill="white"/>
<path d="M156.144 198.427L149.166 177.652L149.87 178.164L146.765 177.588V176.212L155.216 176.052V177.428L151.727 178.1L152.047 177.428L157.937 196.09H157.521L163.827 177.588L164.083 178.132L160.658 177.588V176.212L168.66 176.052V177.428L165.555 178.1L166.227 177.588L158.897 198.427H156.144Z" fill="white"/>
<path d="M184.12 193.145H185.721V198.395H169.555V197.018L172.724 196.346L172.308 196.922V177.588L172.724 178.164L169.555 177.588V176.212L174.901 176.052H185.336V181.109H183.736L183.16 177.588L183.704 178.004H174.453L174.933 177.524V186.487L174.453 186.007H183V187.928H174.453L174.933 187.383V196.922L174.453 196.442H184.12L183.544 196.922L184.12 193.145Z" fill="white"/>
<path d="M203.105 192.697H204.706V198.395H189.437V197.018L192.574 196.378L192.19 196.922V177.588L192.574 178.164L189.437 177.588V176.212L197.951 176.052V177.428L194.462 178.164L194.814 177.588V196.922L194.334 196.442H202.945L202.497 196.922L203.105 192.697Z" fill="white"/>
<path d="M114.032 81.2485L109.325 88.3455L108.776 87.1627M104.618 78.8828L108.776 87.1627M108.776 87.1627V114.959L109.639 118.212L109.74 118.593C110.243 120.49 110.377 122.466 110.135 124.414V124.414C109.988 125.598 109.703 126.761 109.286 127.879L108.148 130.928H106.383H105.206H104.029" stroke="white" stroke-width="3"/>
<path d="M103.443 47.5389V40.8555C103.443 39.4891 104.783 38.525 106.079 38.9591L110.504 40.4419L116.389 38.0762" stroke="white" stroke-width="3"/>
<path d="M102.265 28.0225V29.2053V29.2053C102.265 30.596 101.32 31.8086 99.9708 32.1475L99.9114 32.1625L95.2041 33.3453L88.7314 36.3024L81.6704 40.4423L75.9366 43.3239C72.7103 44.9452 69.6954 46.9569 66.9598 49.3136V49.3136L61.0756 51.6793L56.9567 54.6364L55.7798 55.8193C55.4544 56.1464 55.4544 56.675 55.7798 57.0021V57.0021L56.9567 58.185L60.4872 57.5935L64.0177 56.4107L62.8409 59.9592L69.3135 51.6793L83.4356 45.1737L91.6735 41.6252L92.8417 41.3316C95.0159 40.7853 97.3133 41.4966 98.7984 43.1759L104.699 49.848C105.335 50.5674 105.37 51.6374 104.783 52.397L101.677 56.4107L74.6093 57.5935L92.262 74.7447L99.323 73.5619L103.442 78.8847L110.503 76.519L114.622 81.2504H134.04L129.921 73.5619L124.625 67.0563L116.976 61.1421L114.622 59.9592L115.799 54.6364L118.153 49.3136L119.329 45.7651V42.808L118.153 39.2595L115.799 37.4852L117.564 32.1625L121.095 25.6568L123.448 22.6997L125.214 19.7426V19.7426C125.994 18.1742 126.536 16.4984 126.823 14.7703L126.979 13.8284L127.567 9.68847L129.833 8.77752C130.283 8.59675 130.712 8.36965 131.115 8.09989V8.09989C131.88 7.5869 132.537 6.92739 133.046 6.15941L133.451 5.54852L134.628 3.18284V3.18284C134.864 2.70845 134.444 2.17248 133.927 2.28798L130.032 3.15812C129.958 3.17457 129.886 3.19699 129.816 3.22514L129.402 3.39143C127.841 4.019 126.565 5.19779 125.816 6.7041L125.802 6.73136L124.625 9.68847L123.448 13.8284L119.329 20.9255L116.79 24.3291C116.136 25.2049 115.31 25.9376 114.362 26.4819L111.68 28.0225" stroke="white" stroke-width="3"/>
<path d="M115.798 37.4869L109.914 31.5727L108.148 29.207" stroke="white" stroke-width="3"/>
<path d="M110.504 32.1603V32.1603C109.332 30.9827 108.322 29.6543 107.501 28.2103L106.385 26.2461" stroke="white" stroke-width="3"/>
<path d="M95.791 73.8574L99.91 87.1644L102.852 109.638L104.029 114.961L104.617 122.058V123.418C104.617 126.024 104.013 128.596 102.852 130.93V130.93H99.91H98.1447V125.015V125.015C98.1447 122.273 98.5847 119.549 99.4479 116.946L99.91 115.553" stroke="white" stroke-width="3"/>
<path d="M101.088 56.4082L104.618 61.731L110.503 62.9138L114.622 59.9567" stroke="white" stroke-width="3"/>
<path d="M110.502 62.916L119.917 81.2501" stroke="white" stroke-width="3"/>
<path d="M104.618 61.7344L99.3223 73.5628" stroke="white" stroke-width="3"/>
<path d="M102.266 58.7754L82.2598 65.281" stroke="white" stroke-width="3"/>
<path d="M96.9408 19.38L96.9634 19.5514L96.9465 19.7235C96.7038 22.1898 97.3912 24.2784 98.4913 25.6579C99.5891 27.0345 101.051 27.674 102.511 27.4789C104.075 27.2699 105.329 26.3696 106.084 24.9106C106.851 23.4265 107.134 21.2795 106.483 18.6384L106.463 18.5579L106.452 18.4757C106.059 15.4969 105.095 13.7636 103.989 12.8194C102.907 11.8952 101.472 11.544 99.7104 11.7794C98.7905 11.9023 98.1951 12.1083 97.8002 12.3527C97.4381 12.5768 97.1839 12.8694 96.9982 13.3171C96.5688 14.3522 96.5149 16.154 96.9408 19.38Z" stroke="white" stroke-width="3"/>
<path d="M104.819 12.2276V12.2276C105.66 12.3895 106.439 11.7453 106.439 10.888L106.438 10.4231C106.438 10.0946 106.346 9.77257 106.172 9.49374L106.125 9.41805C106.007 9.22957 105.86 9.06128 105.688 8.91968L105.416 8.69429C105.023 8.3694 104.56 8.14081 104.064 8.02679V8.02679C103.72 7.94782 103.366 7.92509 103.016 7.95949L102.274 8.03221C101.772 8.08152 101.31 8.32888 100.99 8.7198L100.822 8.92559C100.654 9.13164 100.562 9.38974 100.561 9.65629V9.65629C100.561 10.1911 100.927 10.6575 101.446 10.7845L102.181 10.9644V10.9644C102.84 11.1376 103.476 11.3894 104.076 11.7145L105.133 12.288" stroke="white" stroke-width="3"/>
</svg>
