<svg width="228" height="255" viewBox="0 0 228 255" fill="none" xmlns="http://www.w3.org/2000/svg">
<path d="M45.5101 153.115L91.3368 56.4777C92.0656 54.9407 94.2843 54.9984 94.9819 56.5724L122.673 119.051" stroke="#34211F" stroke-width="4" stroke-linecap="round"/>
<path d="M106 155.62L126.84 112.174C127.55 110.693 129.644 110.649 130.411 112.1L140.994 132.107L153.432 155.62" stroke="#34211F" stroke-width="4" stroke-linecap="round"/>
<path d="M117.294 105.124L139.409 71.0398C140.197 69.8247 141.965 69.797 142.758 70.9873L191.966 144.836" stroke="#34211F" stroke-width="4" stroke-linecap="round"/>
<path d="M181.643 90.7473C182.159 89.0448 183.191 87.9098 184.739 87.2004V85.0723H186.029V87.0585H186.545C187.963 87.0585 189.124 87.626 190.156 88.761L190.672 89.3285L192.478 88.6192C192.865 88.4773 193.252 88.3354 193.767 88.3354C194.541 88.3354 195.315 88.6192 195.96 89.1867C196.734 89.7542 197.121 90.4635 197.379 91.1729C197.637 92.166 197.637 93.0173 197.379 94.0104C196.992 95.0036 196.605 95.7129 195.96 96.1386C196.476 98.2667 196.089 100.111 194.67 101.672C193.638 102.807 192.478 103.374 191.059 103.374C190.414 103.374 190.027 103.374 189.64 103.232C188.866 104.367 187.834 105.077 186.545 105.077C186.158 105.077 185.642 105.077 185.255 104.935C184.481 104.651 183.965 104.084 183.449 103.374C182.933 102.523 182.675 101.814 182.675 100.962C182.675 100.395 182.675 99.9692 182.804 99.5436L183.449 97.2736L182.675 96.7061C181.643 95.5711 181.128 94.0104 181.257 92.3079H179.58V90.7473H181.643ZM194.154 94.0104C194.928 93.5848 195.186 93.0173 194.928 92.166C194.67 91.3148 194.154 91.031 193.38 91.3148L189.253 93.0173C191.317 94.1523 192.865 94.4361 194.154 94.0104ZM186.029 101.955C186.803 102.239 187.319 101.955 187.705 101.104C188.092 99.6855 187.834 97.983 186.803 95.7129L185.255 100.111C184.997 101.104 185.255 101.672 186.029 101.955ZM184.481 94.4361L185.255 92.166V92.0242L185.642 91.5985H185.771L187.834 90.7473C187.319 90.3217 186.803 90.0379 186.158 90.0379C185.513 90.0379 184.868 90.3217 184.352 90.8892C183.836 91.4567 183.578 92.0242 183.578 92.7336C183.836 93.1592 184.094 93.8686 184.481 94.4361Z" fill="#34211F"/>
<path d="M14.3991 187.205C13.6247 187.225 12.9892 187.086 12.4928 186.788C11.9765 186.49 11.5793 186.053 11.3013 185.477C11.0034 184.921 10.8148 184.236 10.7354 183.422C10.6559 182.628 10.6559 181.754 10.7354 180.801C10.8346 180.066 11.0134 179.301 11.2715 178.507C11.49 177.832 11.8275 177.087 12.2843 176.273C12.7211 175.459 13.3169 174.665 14.0715 173.89C14.2303 173.93 14.3594 173.979 14.4587 174.039C14.558 174.079 14.6374 174.128 14.697 174.188C14.7566 174.267 14.7963 174.337 14.8161 174.396C14.8559 174.615 14.7963 174.863 14.6374 175.141C14.4786 175.419 14.3197 175.717 14.1608 176.035C13.724 176.948 13.3963 177.812 13.1779 178.626C12.9594 179.44 12.8204 180.195 12.7609 180.89C12.7211 181.486 12.7311 182.022 12.7906 182.498C12.8304 182.995 12.8999 183.412 12.9992 183.75C13.0984 184.107 13.2077 184.375 13.3268 184.554C13.446 184.752 13.5552 184.852 13.6545 184.852C13.7538 184.852 13.853 184.782 13.9523 184.643C14.0715 184.504 14.1807 184.335 14.28 184.137C14.3991 183.938 14.5381 183.63 14.697 183.213C14.8559 182.816 15.0247 182.35 15.2034 181.813C15.3821 181.277 15.5509 180.701 15.7098 180.086C15.8885 179.45 16.0473 178.815 16.1863 178.179C16.4644 176.908 16.7622 175.479 17.0799 173.89C17.3977 172.282 17.8643 170.604 18.4799 168.856C18.6785 168.121 18.9267 167.317 19.2246 166.443C19.4629 165.689 19.7608 164.815 20.1182 163.822C20.4955 162.809 20.9224 161.717 21.399 160.546C21.399 160.446 21.4785 160.357 21.6373 160.277C21.8161 160.178 22.0146 160.079 22.2331 159.98C22.4714 159.88 22.7394 159.781 23.0373 159.682C23.4345 159.543 23.7423 159.463 23.9607 159.443C24.199 159.424 24.3777 159.453 24.4969 159.533C24.616 159.612 24.6954 159.721 24.7352 159.86C24.7749 159.98 24.7947 160.119 24.7947 160.277C24.8345 160.933 24.8543 161.548 24.8543 162.124C24.8742 162.7 24.894 163.207 24.9139 163.643C24.9337 164.16 24.9437 164.626 24.9437 165.043C24.9635 165.599 24.9337 166.344 24.8543 167.277C24.7749 168.191 24.6855 169.154 24.5862 170.167C24.5068 171.179 24.4274 172.172 24.3479 173.145C24.2884 174.099 24.2784 174.893 24.3181 175.528C24.3181 175.866 24.3281 176.184 24.3479 176.482C24.3876 176.76 24.4274 177.038 24.4671 177.316C24.7252 176.601 25.0132 175.856 25.3309 175.082C25.6486 174.287 25.9664 173.533 26.2841 172.818C26.6018 172.083 26.8997 171.408 27.1777 170.792C27.4557 170.157 27.6741 169.631 27.833 169.214C28.0713 168.658 28.389 167.953 28.7862 167.099C29.1833 166.245 29.5805 165.391 29.9776 164.537C30.3947 163.683 30.772 162.899 31.1095 162.184C31.467 161.469 31.7251 160.973 31.884 160.695C32.0031 160.496 32.2017 160.317 32.4797 160.158C32.7776 159.999 33.0854 159.86 33.4031 159.741C33.7407 159.622 34.0485 159.543 34.3265 159.503C34.6244 159.443 34.823 159.434 34.9223 159.473C35.1804 159.533 35.3591 159.612 35.4584 159.712C35.5776 159.811 35.6471 159.88 35.6669 159.92C35.7066 159.999 35.7364 160.138 35.7563 160.337C35.7761 160.516 35.7662 160.804 35.7265 161.201C35.6868 161.677 35.5676 162.402 35.3691 163.375C35.1903 164.348 34.962 165.46 34.684 166.711C34.4258 167.943 34.1379 169.263 33.8201 170.673C33.5223 172.083 33.2343 173.473 32.9563 174.843C32.6783 176.194 32.4301 177.464 32.2117 178.656C32.0131 179.847 31.884 180.85 31.8244 181.664C31.7847 182.578 31.8443 183.382 32.0031 184.077C32.0627 184.375 32.1521 184.663 32.2712 184.941C32.3904 185.219 32.5492 185.457 32.7478 185.656C32.9464 185.874 33.1847 186.033 33.4627 186.132C33.7407 186.232 34.0684 186.262 34.4457 186.222C33.9492 186.559 33.4627 186.808 32.9861 186.966C32.5095 187.125 32.0429 187.205 31.5861 187.205C31.0897 187.225 30.6528 187.145 30.2755 186.966C29.8982 186.808 29.5805 186.569 29.3223 186.252C29.0642 185.954 28.8755 185.586 28.7564 185.149C28.6372 184.732 28.5975 184.266 28.6372 183.75C28.677 183.273 28.806 182.489 29.0245 181.396C29.2429 180.304 29.5011 179.073 29.7989 177.703C30.1166 176.313 30.4542 174.873 30.8117 173.384C31.189 171.874 31.5365 170.465 31.8542 169.154C32.1918 167.823 32.4797 166.682 32.718 165.728C32.9563 164.775 33.1053 164.15 33.1648 163.852C33.2045 163.614 33.2343 163.395 33.2542 163.197C33.2939 162.978 33.3336 162.79 33.3733 162.631C33.1748 163.028 32.9265 163.504 32.6287 164.06C32.3507 164.616 32.0528 165.212 31.7351 165.848C31.4173 166.483 31.0897 167.148 30.7521 167.843C30.4344 168.519 30.1266 169.174 29.8287 169.809C29.3323 170.842 28.8457 171.904 28.3692 172.996C27.8926 174.069 27.4656 175.091 27.0883 176.065C26.711 177.038 26.3933 177.911 26.1351 178.686C25.8968 179.46 25.7578 180.056 25.7181 180.473V180.89C25.7181 181.009 25.7181 181.148 25.7181 181.307C25.738 181.466 25.7678 181.615 25.8075 181.754L24.616 182.677C24.4373 182.737 24.2784 182.786 24.1394 182.826C24.0203 182.866 23.9011 182.886 23.782 182.886C23.3253 182.886 22.9777 182.647 22.7394 182.171C22.5012 181.734 22.2827 180.88 22.0841 179.609C21.8856 178.338 21.826 176.779 21.9054 174.933C21.9451 174.019 22.0047 173.096 22.0841 172.162C22.1834 171.229 22.2728 170.336 22.3522 169.482C22.4515 168.628 22.5409 167.833 22.6203 167.099C22.6997 166.344 22.7394 165.699 22.7394 165.163C22.7593 164.765 22.7494 164.408 22.7097 164.09C22.6699 163.753 22.6302 163.445 22.5905 163.167C22.4118 163.624 22.2132 164.249 21.9948 165.043C21.7763 165.818 21.548 166.682 21.3097 167.635C21.0714 168.588 20.8232 169.591 20.565 170.643C20.3267 171.696 20.0884 172.709 19.8501 173.682C19.6317 174.655 19.4232 175.558 19.2246 176.392C19.026 177.206 18.8672 177.862 18.748 178.358C18.5494 179.152 18.3509 180.056 18.1523 181.069C17.9537 182.081 17.7055 183.035 17.4076 183.928C17.1097 184.842 16.7225 185.606 16.2459 186.222C15.7693 186.857 15.1537 187.185 14.3991 187.205Z" fill="#34211F"/>
<path d="M42.637 164.09C42.5775 164.309 42.4583 164.527 42.2796 164.746C42.1207 164.944 41.9321 165.113 41.7137 165.252C41.5151 165.371 41.3066 165.45 41.0881 165.49C40.8697 165.53 40.691 165.49 40.552 165.371C40.135 165.053 39.9165 164.716 39.8967 164.358C39.8768 163.981 39.9662 163.633 40.1647 163.316C40.3633 162.978 40.6115 162.7 40.9094 162.482C41.2073 162.243 41.4654 162.104 41.6839 162.065C41.9023 162.025 42.081 162.075 42.22 162.214C42.3789 162.333 42.498 162.502 42.5775 162.72C42.6569 162.919 42.6966 163.147 42.6966 163.405C42.7165 163.663 42.6966 163.892 42.637 164.09ZM38.5265 170.435C38.6258 170.316 38.8144 170.216 39.0924 170.137C39.3704 170.057 39.6584 169.998 39.9562 169.958C40.2541 169.899 40.5222 169.869 40.7605 169.869C41.0186 169.849 41.1676 169.849 41.2073 169.869C41.2271 169.889 41.1775 170.097 41.0583 170.494C40.9392 170.892 40.7903 171.358 40.6115 171.894C40.4328 172.431 40.2442 172.987 40.0456 173.562C39.847 174.118 39.6981 174.575 39.5988 174.933C39.4995 175.29 39.3804 175.697 39.2413 176.154C39.1023 176.591 38.9733 177.028 38.8541 177.464C38.7548 177.882 38.6853 178.279 38.6456 178.656C38.6059 179.033 38.6357 179.321 38.735 179.52C38.8343 179.758 38.9435 179.927 39.0626 180.026C39.1818 180.106 39.3109 180.145 39.4499 180.145C39.847 180.145 40.3435 179.927 40.9392 179.49C41.5548 179.053 42.1704 178.537 42.786 177.941C43.4214 177.325 44.0072 176.71 44.5434 176.094C45.0796 175.459 45.4767 174.952 45.7349 174.575C45.8937 174.377 46.0526 174.248 46.2115 174.188C46.3902 174.128 46.5292 174.138 46.6285 174.218C46.7476 174.297 46.8072 174.426 46.8072 174.605C46.8271 174.784 46.7675 174.992 46.6285 175.23C46.3108 175.786 45.8441 176.452 45.2285 177.226C44.6129 177.981 43.9576 178.716 43.2626 179.43C42.5675 180.125 41.8824 180.721 41.2073 181.218C40.552 181.714 40.0158 181.972 39.5988 181.992C39.2612 182.012 38.9236 181.952 38.586 181.813C38.2683 181.694 37.9704 181.525 37.6924 181.307C37.4343 181.069 37.2158 180.801 37.0371 180.503C36.8584 180.185 36.7591 179.857 36.7393 179.52C36.6797 179.023 36.6797 178.348 36.7393 177.494C36.7988 176.621 36.908 175.737 37.0669 174.843C37.2258 173.93 37.4244 173.066 37.6626 172.252C37.9208 171.438 38.2087 170.832 38.5265 170.435Z" fill="#34211F"/>
<path d="M57.9475 175.439C57.3517 176.313 56.6766 177.167 55.922 178.001C55.1674 178.815 54.3631 179.55 53.5092 180.205C52.6752 180.84 51.8114 181.357 50.9178 181.754C50.044 182.151 49.1901 182.35 48.3561 182.35C47.9192 182.35 47.4427 182.24 46.9263 182.022C46.4299 181.823 45.9732 181.506 45.5562 181.069C45.1391 180.632 44.8016 180.066 44.5434 179.371C44.3051 178.676 44.2356 177.832 44.3349 176.839C44.4143 176.025 44.6625 175.171 45.0796 174.277C45.5164 173.364 46.0427 172.53 46.6583 171.775C47.2937 171.021 47.9987 170.395 48.7731 169.899C49.5674 169.402 50.3618 169.154 51.1561 169.154C51.9107 169.154 52.4568 169.343 52.7944 169.72C53.1319 170.097 53.2809 170.564 53.2412 171.12C53.1816 171.735 53.0029 172.301 52.705 172.818C52.427 173.334 52.0894 173.801 51.6922 174.218C51.2951 174.635 50.8681 175.012 50.4114 175.35C49.9745 175.687 49.5575 175.995 49.1604 176.273C48.7235 176.571 48.3065 176.859 47.9093 177.137C47.5122 177.395 47.1646 177.633 46.8668 177.852C46.8866 178.348 46.976 178.765 47.1349 179.103C47.2937 179.44 47.4923 179.718 47.7306 179.937C47.9689 180.135 48.237 180.284 48.5348 180.384C48.8526 180.463 49.1703 180.503 49.488 180.503C50.1632 180.503 50.8681 180.294 51.6029 179.877C52.3376 179.44 53.0525 178.924 53.7475 178.328C54.4624 177.713 55.1177 177.077 55.7135 176.422C56.3291 175.767 56.8354 175.201 57.2326 174.724C57.3716 174.565 57.5106 174.476 57.6496 174.456C57.8085 174.416 57.9276 174.436 58.007 174.516C58.1063 174.575 58.156 174.694 58.156 174.873C58.156 175.032 58.0865 175.221 57.9475 175.439ZM50.322 170.852C50.0838 170.852 49.7958 170.971 49.4582 171.209C49.1405 171.448 48.8228 171.795 48.5051 172.252C48.1873 172.689 47.8895 173.235 47.6114 173.89C47.3334 174.526 47.1249 175.26 46.9859 176.094C47.2242 175.916 47.4824 175.737 47.7604 175.558C48.0384 175.36 48.3164 175.151 48.5944 174.933C49.4483 174.277 50.044 173.701 50.3816 173.205C50.7192 172.709 50.9079 172.282 50.9476 171.924C50.9873 171.547 50.9476 171.279 50.8284 171.12C50.7093 170.941 50.5405 170.852 50.322 170.852Z" fill="#34211F"/>
<path d="M55.356 181.158C56.2298 177.484 56.9248 174.535 57.4411 172.311C57.9773 170.087 58.3843 168.389 58.6624 167.218C58.9801 165.828 59.1985 164.865 59.3177 164.328C59.3772 163.951 59.4269 163.584 59.4666 163.226C59.5063 162.909 59.5262 162.581 59.5262 162.243C59.5262 161.906 59.4964 161.598 59.4368 161.32C59.5957 161.221 59.7645 161.141 59.9432 161.082C60.1418 161.022 60.3304 160.973 60.5091 160.933C60.7276 160.873 60.946 160.824 61.1645 160.784C61.3829 160.744 61.5815 160.724 61.7602 160.724C61.919 160.724 62.068 160.744 62.207 160.784C62.346 160.804 62.4354 160.863 62.4751 160.963C62.5942 161.062 62.6439 161.26 62.624 161.558C62.624 161.856 62.6041 162.164 62.5644 162.482C62.485 162.859 62.3956 163.266 62.2963 163.703C62.0581 164.557 61.7304 165.788 61.3134 167.397C60.9559 168.767 60.4694 170.633 59.8538 172.996C59.2581 175.36 58.5035 178.338 57.59 181.933C57.4907 182.032 57.3716 182.101 57.2326 182.141C57.0936 182.181 56.9645 182.201 56.8454 182.201C56.7064 182.201 56.5574 182.191 56.3986 182.171C56.2596 182.131 56.1205 182.072 55.9815 181.992C55.8624 181.913 55.7432 181.803 55.6241 181.664C55.505 181.545 55.4156 181.376 55.356 181.158Z" fill="#34211F"/>
<path d="M80.4961 175.945C80.3968 176.561 80.2975 177.147 80.1982 177.703C80.1188 178.259 80.0692 178.706 80.0493 179.043C80.0294 179.54 80.1188 179.897 80.3174 180.116C80.516 180.334 80.7344 180.443 80.9727 180.443C81.2507 180.443 81.5883 180.304 81.9854 180.026C82.4025 179.748 82.8393 179.401 83.2961 178.984C83.7528 178.567 84.2095 178.11 84.6663 177.613C85.123 177.117 85.54 176.65 85.9173 176.213C86.3145 175.757 86.6421 175.36 86.9003 175.022C87.1783 174.684 87.3669 174.466 87.4662 174.367C87.5854 174.248 87.7045 174.178 87.8237 174.158C87.9627 174.138 88.0719 174.158 88.1513 174.218C88.2307 174.277 88.2705 174.387 88.2705 174.545C88.2705 174.704 88.191 174.903 88.0322 175.141C87.7939 175.518 87.4861 175.965 87.1088 176.482C86.7315 176.978 86.3145 177.494 85.8577 178.03C85.401 178.567 84.9145 179.093 84.3982 179.609C83.9017 180.125 83.3953 180.582 82.879 180.979C82.3826 181.376 81.8961 181.694 81.4195 181.933C80.9628 182.191 80.5457 182.32 80.1684 182.32C79.8904 182.32 79.6224 182.24 79.3642 182.081C79.1259 181.923 78.9075 181.714 78.7089 181.456C78.5103 181.198 78.3514 180.91 78.2323 180.592C78.133 180.274 78.0933 179.957 78.1132 179.639C78.133 179.5 78.1628 179.262 78.2025 178.924C77.3685 179.857 76.5245 180.602 75.6706 181.158C74.8366 181.694 74.0324 181.962 73.2579 181.962C72.9799 181.962 72.682 181.893 72.3643 181.754C72.0466 181.615 71.7586 181.386 71.5005 181.069C71.2622 180.751 71.0636 180.334 70.9047 179.818C70.7459 179.301 70.6863 178.676 70.726 177.941C70.7856 176.789 71.014 175.697 71.4111 174.665C71.8083 173.632 72.3047 172.738 72.9005 171.984C73.5161 171.209 74.2011 170.604 74.9557 170.167C75.7302 169.71 76.5047 169.482 77.2791 169.482C77.6167 169.482 77.9245 169.571 78.2025 169.75C78.4805 169.909 78.7188 170.127 78.9174 170.405C79.116 170.663 79.2748 170.951 79.394 171.269C79.533 171.587 79.6323 171.884 79.6919 172.162C79.8309 171.587 79.9599 171.021 80.0791 170.465C80.1982 169.909 80.3174 169.382 80.4365 168.886C80.6351 168.151 80.8436 167.357 81.062 166.503C81.2606 165.768 81.489 164.924 81.7471 163.971C82.0053 163.018 82.2932 162.015 82.611 160.963C82.8095 160.804 82.9982 160.685 83.1769 160.605C83.3556 160.526 83.5244 160.466 83.6833 160.426C83.862 160.367 84.0308 160.337 84.1897 160.337C84.3882 160.337 84.567 160.367 84.7258 160.426C84.8847 160.466 85.0138 160.595 85.1131 160.814C85.2322 161.012 85.3116 161.32 85.3513 161.737C85.3911 162.154 85.3911 162.72 85.3513 163.435C85.3116 164.309 85.1528 165.262 84.8748 166.294C84.6166 167.327 84.2691 168.399 83.8322 169.511C83.3953 170.604 82.889 171.706 82.3131 172.818C81.7571 173.91 81.1514 174.952 80.4961 175.945ZM78.7387 176.333C78.8181 175.955 78.8876 175.578 78.9472 175.201C79.0266 174.823 79.116 174.436 79.2153 174.039C79.1756 174.059 79.1358 174.079 79.0961 174.099C79.0763 174.118 79.0465 174.138 79.0068 174.158C78.7883 174.257 78.6394 174.257 78.56 174.158C78.4805 174.039 78.4408 173.86 78.4408 173.622C78.4408 173.503 78.4309 173.294 78.411 172.996C78.3912 172.679 78.3316 172.361 78.2323 172.043C78.1529 171.706 78.0238 171.418 77.8451 171.179C77.6664 170.921 77.4181 170.792 77.1004 170.792C76.6437 170.792 76.177 171.031 75.7004 171.507C75.2238 171.964 74.777 172.53 74.36 173.205C73.943 173.86 73.5955 174.565 73.3175 175.32C73.0395 176.074 72.8806 176.75 72.8409 177.345C72.8012 178.299 72.9203 178.984 73.1983 179.401C73.4763 179.818 73.8536 180.026 74.3302 180.026C74.6877 180.026 75.0749 179.887 75.4919 179.609C75.9288 179.331 76.3458 178.994 76.743 178.596C77.16 178.199 77.5373 177.792 77.8749 177.375C78.2323 176.958 78.5202 176.611 78.7387 176.333Z" fill="#34211F"/>
<path d="M99.2618 175.439C98.6661 176.313 97.9909 177.167 97.2363 178.001C96.4817 178.815 95.6775 179.55 94.8236 180.205C93.9895 180.84 93.1257 181.357 92.2321 181.754C91.3584 182.151 90.5045 182.35 89.6704 182.35C89.2336 182.35 88.757 182.24 88.2407 182.022C87.7442 181.823 87.2875 181.506 86.8705 181.069C86.4535 180.632 86.1159 180.066 85.8577 179.371C85.6194 178.676 85.5499 177.832 85.6492 176.839C85.7287 176.025 85.9769 175.171 86.3939 174.277C86.8308 173.364 87.357 172.53 87.9726 171.775C88.608 171.021 89.313 170.395 90.0875 169.899C90.8818 169.402 91.6761 169.154 92.4704 169.154C93.225 169.154 93.7711 169.343 94.1087 169.72C94.4463 170.097 94.5952 170.564 94.5555 171.12C94.4959 171.735 94.3172 172.301 94.0193 172.818C93.7413 173.334 93.4037 173.801 93.0066 174.218C92.6094 174.635 92.1825 175.012 91.7257 175.35C91.2889 175.687 90.8718 175.995 90.4747 176.273C90.0378 176.571 89.6208 176.859 89.2236 177.137C88.8265 177.395 88.479 177.633 88.1811 177.852C88.201 178.348 88.2903 178.765 88.4492 179.103C88.608 179.44 88.8066 179.718 89.0449 179.937C89.2832 180.135 89.5513 180.284 89.8492 180.384C90.1669 180.463 90.4846 180.503 90.8023 180.503C91.4775 180.503 92.1825 180.294 92.9172 179.877C93.6519 179.44 94.3668 178.924 95.0619 178.328C95.7767 177.713 96.4321 177.077 97.0278 176.422C97.6434 175.767 98.1498 175.201 98.5469 174.724C98.6859 174.565 98.8249 174.476 98.9639 174.456C99.1228 174.416 99.2419 174.436 99.3214 174.516C99.4207 174.575 99.4703 174.694 99.4703 174.873C99.4703 175.032 99.4008 175.221 99.2618 175.439ZM91.6364 170.852C91.3981 170.852 91.1101 170.971 90.7726 171.209C90.4548 171.448 90.1371 171.795 89.8194 172.252C89.5016 172.689 89.2038 173.235 88.9258 173.89C88.6478 174.526 88.4393 175.26 88.3002 176.094C88.5385 175.916 88.7967 175.737 89.0747 175.558C89.3527 175.36 89.6307 175.151 89.9087 174.933C90.7626 174.277 91.3584 173.701 91.6959 173.205C92.0335 172.709 92.2222 172.282 92.2619 171.924C92.3016 171.547 92.2619 171.279 92.1427 171.12C92.0236 170.941 91.8548 170.852 91.6364 170.852Z" fill="#34211F"/>
<path d="M119.547 180.264C119.547 179.847 119.586 179.371 119.666 178.835C119.765 178.299 119.884 177.752 120.023 177.196C120.162 176.621 120.301 176.065 120.44 175.528C120.579 174.992 120.698 174.516 120.798 174.099C120.917 173.582 120.907 173.185 120.768 172.907C120.629 172.629 120.391 172.49 120.053 172.49C119.894 172.49 119.576 172.629 119.1 172.907C118.643 173.185 118.137 173.672 117.581 174.367C117.045 175.042 116.508 175.965 115.972 177.137C115.456 178.289 115.049 179.758 114.751 181.545C114.374 181.744 114.016 181.873 113.679 181.933C113.5 181.972 113.341 182.002 113.202 182.022C112.805 182.042 112.547 181.972 112.428 181.813C112.308 181.674 112.328 181.317 112.487 180.741C112.567 180.463 112.706 180.016 112.904 179.401C113.123 178.785 113.331 178.12 113.53 177.405C113.728 176.67 113.897 175.945 114.036 175.23C114.195 174.496 114.274 173.86 114.274 173.324C114.274 172.947 114.205 172.689 114.066 172.55C113.947 172.411 113.768 172.341 113.53 172.341C113.351 172.341 113.053 172.44 112.636 172.639C112.219 172.838 111.752 173.225 111.236 173.801C110.72 174.377 110.203 175.181 109.687 176.213C109.191 177.226 108.764 178.547 108.406 180.175V180.116C108.367 180.274 108.327 180.433 108.287 180.592C108.247 180.731 108.218 180.88 108.198 181.039C108.178 181.198 108.148 181.347 108.108 181.486L106.619 182.141C106.52 182.181 106.391 182.211 106.232 182.23C106.093 182.25 105.954 182.22 105.815 182.141C105.696 182.081 105.606 181.942 105.547 181.724C105.487 181.506 105.507 181.178 105.606 180.741L107.483 172.967C107.543 172.709 107.592 172.46 107.632 172.222C107.672 172.004 107.691 171.795 107.691 171.596C107.711 171.378 107.701 171.199 107.662 171.06C107.999 170.901 108.297 170.782 108.555 170.703C108.813 170.623 109.022 170.564 109.181 170.524C109.379 170.465 109.548 170.435 109.687 170.435C110.323 170.435 110.531 170.981 110.313 172.073C110.233 172.391 110.114 172.857 109.955 173.473C110.333 172.996 110.73 172.55 111.147 172.133C111.584 171.696 112.02 171.309 112.457 170.971C112.894 170.633 113.331 170.365 113.768 170.167C114.225 169.968 114.672 169.869 115.108 169.869C115.446 169.869 115.724 169.968 115.942 170.167C116.181 170.365 116.359 170.633 116.479 170.971C116.618 171.289 116.697 171.676 116.717 172.133C116.737 172.57 116.717 173.026 116.657 173.503C116.975 173.086 117.323 172.669 117.7 172.252C118.097 171.815 118.504 171.428 118.921 171.09C119.358 170.753 119.805 170.475 120.262 170.256C120.718 170.038 121.175 169.928 121.632 169.928C122.168 169.928 122.575 170.087 122.853 170.405C123.151 170.723 123.349 171.13 123.449 171.626C123.568 172.123 123.598 172.659 123.538 173.235C123.498 173.811 123.419 174.367 123.3 174.903L122.287 178.924C122.069 179.917 122.277 180.413 122.913 180.413C123.409 180.413 123.955 180.175 124.551 179.698C125.147 179.222 125.722 178.656 126.278 178.001C126.854 177.345 127.39 176.67 127.887 175.975C128.383 175.28 128.8 174.724 129.138 174.307C129.257 174.168 129.376 174.089 129.495 174.069C129.634 174.049 129.744 174.079 129.823 174.158C129.922 174.218 129.972 174.327 129.972 174.486C129.992 174.645 129.942 174.843 129.823 175.082C129.426 175.777 128.939 176.551 128.364 177.405C127.788 178.239 127.152 179.023 126.457 179.758C125.782 180.493 125.057 181.108 124.283 181.605C123.508 182.101 122.704 182.35 121.87 182.35C121.592 182.35 121.314 182.32 121.036 182.26C120.778 182.201 120.53 182.091 120.291 181.933C120.073 181.774 119.894 181.565 119.755 181.307C119.616 181.029 119.547 180.681 119.547 180.264Z" fill="#34211F"/>
<path d="M136.376 176.899C136.178 177.653 135.91 178.358 135.572 179.013C135.234 179.669 134.827 180.235 134.351 180.711C133.894 181.188 133.368 181.555 132.772 181.813C132.196 182.091 131.561 182.23 130.866 182.23C130.051 182.23 129.406 182.052 128.929 181.694C128.473 181.357 128.125 180.93 127.887 180.413C127.669 179.897 127.539 179.331 127.5 178.716C127.44 178.1 127.41 177.524 127.41 176.988C127.41 176.611 127.46 176.194 127.559 175.737C127.639 175.28 127.758 174.813 127.917 174.337C128.076 173.86 128.274 173.384 128.512 172.907C128.771 172.431 129.068 171.994 129.406 171.596C129.525 171.259 129.704 170.961 129.942 170.703C130.2 170.445 130.488 170.236 130.806 170.077C131.144 169.899 131.501 169.77 131.878 169.69C132.256 169.591 132.623 169.541 132.98 169.541C133.04 169.541 133.09 169.551 133.129 169.571C133.189 169.591 133.249 169.611 133.308 169.631C133.566 169.65 133.884 169.75 134.261 169.928C134.658 170.107 135.036 170.375 135.393 170.733C135.771 171.09 136.088 171.547 136.346 172.103C136.605 172.639 136.734 173.294 136.734 174.069C136.734 174.228 136.724 174.426 136.704 174.665C136.684 174.883 136.664 175.072 136.644 175.23C137.101 175.052 137.578 174.833 138.074 174.575C138.57 174.317 139.047 174.049 139.504 173.771C139.98 173.473 140.417 173.175 140.814 172.877C141.212 172.579 141.529 172.311 141.768 172.073C141.966 171.894 142.135 171.795 142.274 171.775C142.413 171.755 142.512 171.795 142.572 171.894C142.631 171.994 142.641 172.133 142.602 172.311C142.562 172.49 142.453 172.689 142.274 172.907C142.175 173.026 141.917 173.265 141.5 173.622C141.102 173.979 140.626 174.367 140.07 174.784C139.514 175.201 138.908 175.608 138.253 176.005C137.597 176.402 136.972 176.7 136.376 176.899ZM131.342 172.371C131.283 172.55 131.253 172.738 131.253 172.937C131.253 173.255 131.273 173.592 131.312 173.95C131.352 174.287 131.451 174.595 131.61 174.873C131.769 175.151 132.017 175.389 132.355 175.588C132.712 175.767 133.199 175.856 133.815 175.856C133.914 175.856 134.013 175.856 134.112 175.856C134.212 175.836 134.311 175.816 134.41 175.796C134.47 175.538 134.519 175.31 134.559 175.111C134.619 174.893 134.649 174.704 134.649 174.545C134.688 174.168 134.688 173.781 134.649 173.384C134.609 172.987 134.529 172.629 134.41 172.311C134.311 171.974 134.172 171.706 133.993 171.507C133.834 171.289 133.636 171.179 133.397 171.179C133.02 171.179 132.653 171.289 132.295 171.507C131.958 171.706 131.64 171.994 131.342 172.371ZM129.436 177.613C129.436 177.971 129.456 178.328 129.495 178.686C129.535 179.023 129.615 179.331 129.734 179.609C129.853 179.867 130.012 180.086 130.21 180.264C130.409 180.423 130.667 180.503 130.985 180.503C131.342 180.503 131.67 180.423 131.968 180.264C132.266 180.086 132.534 179.867 132.772 179.609C133.01 179.331 133.219 179.023 133.397 178.686C133.596 178.328 133.765 177.961 133.904 177.584C133.765 177.603 133.626 177.623 133.487 177.643C133.368 177.643 133.229 177.643 133.07 177.643C132.315 177.643 131.66 177.425 131.104 176.988C130.568 176.531 130.151 175.955 129.853 175.26C129.734 175.677 129.634 176.084 129.555 176.482C129.476 176.879 129.436 177.256 129.436 177.613Z" fill="#34211F"/>
<path d="M148.41 182.379C147.953 182.379 147.556 182.29 147.219 182.111C146.901 181.952 146.643 181.734 146.444 181.456C146.246 181.178 146.116 180.86 146.057 180.503C145.997 180.125 146.017 179.728 146.116 179.311C146.176 179.033 146.275 178.666 146.414 178.209C146.553 177.733 146.692 177.226 146.831 176.69C146.99 176.134 147.129 175.588 147.248 175.052C147.387 174.496 147.477 173.999 147.516 173.562C147.556 173.106 147.536 172.738 147.457 172.46C147.377 172.162 147.209 172.013 146.951 172.013C146.633 172.013 146.305 172.123 145.968 172.341C145.63 172.54 145.282 172.818 144.925 173.175C144.587 173.533 144.24 173.95 143.882 174.426C143.545 174.883 143.207 175.36 142.87 175.856C142.691 176.531 142.542 177.127 142.423 177.643C142.304 178.14 142.195 178.596 142.095 179.013C142.016 179.411 141.936 179.768 141.857 180.086C141.778 180.384 141.708 180.672 141.648 180.95C141.589 181.148 141.41 181.347 141.112 181.545C140.814 181.724 140.497 181.873 140.159 181.992C139.822 182.111 139.534 182.171 139.295 182.171C139.037 182.171 138.928 182.081 138.968 181.903C138.987 181.784 139.057 181.515 139.176 181.098C139.275 180.681 139.405 180.195 139.563 179.639C139.702 179.063 139.851 178.457 140.01 177.822C140.169 177.186 140.318 176.581 140.457 176.005C140.556 175.548 140.665 175.042 140.785 174.486C140.884 174.009 141.003 173.453 141.142 172.818C141.301 172.182 141.48 171.487 141.678 170.733C141.817 170.614 141.956 170.524 142.095 170.465C142.254 170.385 142.413 170.326 142.572 170.286C142.731 170.226 142.9 170.187 143.078 170.167C143.237 170.167 143.396 170.177 143.555 170.197C143.694 170.216 143.833 170.256 143.972 170.316C144.131 170.355 144.27 170.425 144.389 170.524C144.329 170.663 144.26 170.862 144.18 171.12C144.101 171.358 144.021 171.616 143.942 171.894C143.863 172.212 143.763 172.54 143.644 172.877C143.902 172.52 144.19 172.162 144.508 171.805C144.846 171.428 145.203 171.09 145.58 170.792C145.977 170.494 146.394 170.256 146.831 170.077C147.268 169.879 147.715 169.779 148.172 169.779C148.549 169.779 148.887 169.889 149.185 170.107C149.482 170.326 149.711 170.633 149.87 171.031C150.048 171.408 150.148 171.865 150.167 172.401C150.207 172.937 150.138 173.523 149.959 174.158L149.631 175.469C149.532 175.886 149.403 176.382 149.244 176.958C149.105 177.514 148.926 178.13 148.708 178.805C148.589 179.242 148.539 179.619 148.559 179.937C148.599 180.255 148.797 180.413 149.155 180.413C149.512 180.413 149.959 180.195 150.495 179.758C151.051 179.321 151.607 178.795 152.163 178.179C152.719 177.564 153.245 176.938 153.742 176.303C154.238 175.647 154.616 175.121 154.874 174.724C155.053 174.466 155.221 174.297 155.38 174.218C155.539 174.138 155.658 174.128 155.738 174.188C155.837 174.248 155.887 174.387 155.887 174.605C155.887 174.804 155.807 175.062 155.648 175.379C155.509 175.657 155.291 176.025 154.993 176.482C154.715 176.938 154.377 177.425 153.98 177.941C153.583 178.457 153.156 178.984 152.699 179.52C152.243 180.036 151.766 180.513 151.27 180.95C150.773 181.367 150.277 181.704 149.78 181.962C149.304 182.24 148.847 182.379 148.41 182.379Z" fill="#34211F"/>
<path d="M164.644 174.099C164.723 173.979 164.823 173.91 164.942 173.89C165.081 173.85 165.19 173.86 165.269 173.92C165.349 173.979 165.389 174.079 165.389 174.218C165.408 174.357 165.359 174.545 165.24 174.784C164.842 175.538 164.316 176.352 163.661 177.226C163.025 178.1 162.35 178.924 161.635 179.698C160.921 180.453 160.225 181.079 159.55 181.575C158.875 182.072 158.309 182.32 157.852 182.32C157.197 182.32 156.651 182.191 156.214 181.933C155.777 181.674 155.43 181.357 155.172 180.979C154.933 180.602 154.765 180.195 154.665 179.758C154.566 179.301 154.536 178.884 154.576 178.507C154.596 178.189 154.665 177.623 154.784 176.809C154.904 175.975 155.062 175.022 155.261 173.95C155.46 172.857 155.678 171.696 155.916 170.465C156.174 169.214 156.443 168.012 156.721 166.86C156.383 166.9 156.045 166.94 155.708 166.98C155.37 167.019 155.062 167.039 154.784 167.039C154.149 167.039 153.553 166.97 152.997 166.831C152.421 166.672 151.994 166.523 151.716 166.384C151.558 166.304 151.488 166.195 151.508 166.056C151.528 165.897 151.587 165.748 151.687 165.609C151.786 165.45 151.915 165.321 152.074 165.222C152.213 165.103 152.342 165.043 152.461 165.043C152.838 165.083 153.245 165.123 153.682 165.163C154.119 165.182 154.596 165.182 155.112 165.163C155.489 165.143 155.847 165.113 156.184 165.073C156.542 165.033 156.889 164.984 157.227 164.924C157.485 163.971 157.733 163.147 157.972 162.452C158.23 161.737 158.458 161.241 158.657 160.963C158.716 160.863 158.845 160.784 159.044 160.724C159.262 160.645 159.491 160.595 159.729 160.575C159.967 160.536 160.196 160.536 160.414 160.575C160.633 160.595 160.791 160.665 160.891 160.784C160.99 160.943 161.03 161.35 161.01 162.005C160.99 162.66 160.881 163.494 160.682 164.507C161.516 164.507 162.251 164.557 162.886 164.656C163.542 164.736 164.098 164.835 164.555 164.954C165.011 165.053 165.379 165.163 165.657 165.282C165.935 165.381 166.143 165.45 166.282 165.49C166.421 165.53 166.491 165.629 166.491 165.788C166.511 165.947 166.481 166.116 166.401 166.294C166.342 166.453 166.233 166.592 166.074 166.711C165.915 166.831 165.736 166.87 165.537 166.831C165.339 166.811 165.111 166.771 164.852 166.711C164.614 166.652 164.316 166.602 163.959 166.563C163.621 166.523 163.214 166.483 162.738 166.443C162.261 166.404 161.705 166.384 161.069 166.384C160.95 166.384 160.811 166.394 160.652 166.414C160.513 166.414 160.365 166.414 160.206 166.414C160.126 166.731 160.047 167.049 159.967 167.367C159.908 167.665 159.818 167.982 159.699 168.32C159.441 169.114 159.143 169.978 158.806 170.911C158.508 171.726 158.15 172.659 157.733 173.711C157.316 174.764 156.85 175.886 156.333 177.077C156.214 177.931 156.224 178.586 156.363 179.043C156.522 179.48 156.711 179.798 156.929 179.996C157.187 180.215 157.505 180.334 157.882 180.354C158.18 180.394 158.538 180.294 158.955 180.056C159.391 179.798 159.838 179.46 160.295 179.043C160.752 178.626 161.208 178.169 161.665 177.673C162.142 177.177 162.579 176.69 162.976 176.213C163.373 175.737 163.72 175.31 164.018 174.933C164.316 174.535 164.525 174.257 164.644 174.099Z" fill="#34211F"/>
<path d="M178.137 175.707C177.859 176.104 177.502 176.601 177.065 177.196C176.628 177.772 176.171 178.358 175.695 178.954C175.238 179.53 174.781 180.066 174.325 180.562C173.888 181.039 173.52 181.376 173.222 181.575C173.024 181.694 172.796 181.794 172.537 181.873C172.279 181.952 172.011 182.002 171.733 182.022C171.475 182.042 171.227 182.022 170.988 181.962C170.75 181.923 170.542 181.843 170.363 181.724C170.184 181.585 170.035 181.386 169.916 181.128C169.817 180.91 169.718 180.622 169.618 180.264C169.539 179.907 169.509 179.46 169.529 178.924C169.052 179.718 168.526 180.334 167.95 180.771C167.374 181.188 166.828 181.496 166.312 181.694C165.716 181.913 165.12 182.042 164.525 182.081C164.247 182.081 163.949 181.982 163.631 181.784C163.313 181.605 163.045 181.317 162.827 180.92C162.608 180.503 162.469 179.977 162.41 179.341C162.35 178.686 162.43 177.911 162.648 177.018C162.926 175.806 163.363 174.704 163.959 173.711C164.574 172.718 165.24 171.874 165.954 171.179C166.669 170.465 167.374 169.928 168.069 169.571C168.764 169.214 169.34 169.055 169.797 169.094C170.333 169.194 170.77 169.353 171.108 169.571C171.386 169.77 171.564 170.067 171.644 170.465C171.743 170.842 171.584 171.348 171.167 171.984C171.445 171.924 171.674 171.884 171.852 171.865C172.051 171.845 172.2 171.835 172.299 171.835C172.418 171.835 172.498 171.845 172.537 171.865C172.557 171.904 172.567 171.994 172.567 172.133C172.567 172.252 172.537 172.48 172.478 172.818C172.418 173.155 172.329 173.612 172.21 174.188C172.091 174.764 171.932 175.508 171.733 176.422C171.693 176.601 171.654 176.769 171.614 176.928C171.594 177.067 171.564 177.216 171.525 177.375C171.505 177.514 171.475 177.683 171.435 177.882C171.396 178.08 171.346 178.328 171.286 178.626C171.266 178.805 171.257 179.003 171.257 179.222C171.276 179.42 171.316 179.609 171.376 179.788C171.435 179.967 171.525 180.116 171.644 180.235C171.783 180.334 171.971 180.384 172.21 180.384C172.408 180.384 172.666 180.264 172.984 180.026C173.302 179.768 173.639 179.45 173.997 179.073C174.354 178.676 174.722 178.249 175.099 177.792C175.496 177.316 175.864 176.859 176.201 176.422C176.539 175.985 176.837 175.598 177.095 175.26C177.373 174.923 177.571 174.674 177.691 174.516C177.849 174.337 178.008 174.238 178.167 174.218C178.326 174.178 178.445 174.218 178.525 174.337C178.604 174.456 178.614 174.635 178.554 174.873C178.515 175.111 178.376 175.389 178.137 175.707ZM169.41 177.018C169.509 176.621 169.628 176.154 169.767 175.618C169.906 175.082 170.025 174.565 170.125 174.069C170.224 173.572 170.293 173.165 170.333 172.848C170.393 172.51 170.383 172.351 170.303 172.371C170.204 172.391 170.095 172.421 169.976 172.46C169.876 172.5 169.747 172.53 169.589 172.55C169.43 172.57 169.271 172.599 169.112 172.639C169.271 172.321 169.36 172.063 169.38 171.865C169.42 171.646 169.43 171.477 169.41 171.358C169.39 171.219 169.35 171.11 169.291 171.031C169.072 170.852 168.685 171.001 168.129 171.477C167.593 171.934 166.967 172.788 166.252 174.039C165.954 174.555 165.716 175.111 165.537 175.707C165.359 176.283 165.23 176.829 165.15 177.345C165.091 177.862 165.081 178.318 165.12 178.716C165.16 179.093 165.24 179.341 165.359 179.46C165.577 179.679 165.825 179.788 166.103 179.788C166.381 179.768 166.659 179.689 166.937 179.55C167.235 179.391 167.523 179.192 167.801 178.954C168.099 178.716 168.357 178.467 168.576 178.209C168.814 177.951 169.003 177.713 169.142 177.494C169.301 177.276 169.39 177.117 169.41 177.018Z" fill="#34211F"/>
<path d="M184.005 185.894C183.906 186.371 183.777 186.966 183.618 187.681C183.479 188.396 183.31 189.151 183.112 189.945C182.933 190.739 182.715 191.524 182.456 192.298C182.218 193.093 181.95 193.798 181.652 194.413C181.354 195.049 181.027 195.565 180.669 195.962C180.312 196.359 179.915 196.558 179.478 196.558C178.822 196.558 178.256 196.359 177.78 195.962C177.323 195.585 176.936 195.098 176.618 194.503C176.3 193.927 176.072 193.301 175.933 192.626C175.774 191.951 175.695 191.325 175.695 190.749C175.695 189.955 175.764 189.29 175.903 188.754C176.042 188.237 176.281 187.741 176.618 187.264C176.976 186.788 177.452 186.281 178.048 185.745C178.644 185.209 179.408 184.544 180.342 183.75C180.798 183.352 181.235 182.975 181.652 182.618C182.069 182.26 182.466 181.933 182.844 181.635C182.943 181.237 183.032 180.87 183.112 180.533C183.211 180.175 183.29 179.857 183.35 179.579C182.834 180.274 182.208 180.86 181.473 181.337C180.759 181.813 179.934 182.052 179.001 182.052C178.147 182.052 177.452 181.674 176.916 180.92C176.4 180.145 176.142 179.013 176.142 177.524C176.142 176.789 176.281 175.945 176.559 174.992C176.837 174.039 177.234 173.145 177.75 172.311C178.266 171.477 178.902 170.772 179.656 170.197C180.411 169.621 181.255 169.333 182.188 169.333C182.625 169.333 183.002 169.442 183.32 169.66C183.638 169.879 183.906 170.157 184.124 170.494C184.343 170.812 184.512 171.16 184.631 171.537C184.75 171.894 184.839 172.232 184.899 172.55C184.939 172.431 184.968 172.311 184.988 172.192C185.008 172.053 185.038 171.934 185.078 171.835C185.276 171.16 185.495 170.703 185.733 170.465C185.991 170.206 186.368 170.077 186.865 170.077C187.143 170.077 187.371 170.127 187.55 170.226C187.749 170.326 187.848 170.415 187.848 170.494C187.749 170.713 187.669 170.882 187.61 171.001C187.55 171.12 187.49 171.249 187.431 171.388C187.371 171.507 187.312 171.666 187.252 171.865C187.193 172.063 187.113 172.351 187.014 172.728C186.974 172.867 186.895 173.195 186.775 173.711C186.676 174.208 186.537 174.804 186.358 175.499C186.2 176.194 186.021 176.958 185.822 177.792C185.644 178.626 185.465 179.44 185.286 180.235C185.842 179.917 186.418 179.53 187.014 179.073C187.61 178.616 188.175 178.15 188.712 177.673C189.248 177.196 189.724 176.75 190.141 176.333C190.558 175.896 190.866 175.538 191.065 175.26C191.224 175.022 191.402 174.853 191.601 174.754C191.8 174.655 191.968 174.625 192.107 174.665C192.266 174.684 192.356 174.774 192.375 174.933C192.415 175.072 192.356 175.27 192.197 175.528C191.74 176.263 191.184 176.978 190.529 177.673C189.873 178.348 189.198 178.984 188.503 179.579C187.828 180.155 187.163 180.672 186.507 181.128C185.872 181.565 185.326 181.923 184.869 182.201C184.671 183.094 184.502 183.819 184.363 184.375C184.224 184.931 184.105 185.437 184.005 185.894ZM180.252 180.026C180.669 180.026 181.056 179.917 181.414 179.698C181.791 179.48 182.129 179.232 182.427 178.954C182.724 178.656 182.973 178.358 183.171 178.06C183.37 177.762 183.519 177.524 183.618 177.345C183.698 177.167 183.787 176.928 183.886 176.63C184.005 176.333 184.095 176.045 184.154 175.767C184.214 175.489 184.234 175.24 184.214 175.022C184.214 174.804 184.144 174.684 184.005 174.665C183.886 174.645 183.787 174.565 183.707 174.426C183.648 174.287 183.598 174.128 183.559 173.95C183.519 173.771 183.489 173.592 183.469 173.413C183.469 173.235 183.459 173.076 183.439 172.937C183.34 172.242 183.171 171.735 182.933 171.418C182.695 171.1 182.427 170.941 182.129 170.941C181.632 170.941 181.156 171.14 180.699 171.537C180.262 171.934 179.865 172.45 179.508 173.086C179.17 173.701 178.902 174.387 178.703 175.141C178.505 175.876 178.405 176.581 178.405 177.256C178.405 178.09 178.525 178.765 178.763 179.281C179.001 179.778 179.498 180.026 180.252 180.026ZM178.882 193.847C179.279 193.847 179.597 193.549 179.835 192.954C180.093 192.378 180.361 191.583 180.639 190.571C180.699 190.332 180.778 189.985 180.878 189.528C180.997 189.091 181.126 188.585 181.265 188.009C181.424 187.433 181.583 186.808 181.742 186.132C181.9 185.477 182.069 184.812 182.248 184.137C182.089 184.276 181.92 184.415 181.742 184.554C181.583 184.713 181.414 184.891 181.235 185.09C180.798 185.507 180.371 185.904 179.954 186.281C179.557 186.679 179.2 187.086 178.882 187.503C178.564 187.94 178.306 188.406 178.108 188.903C177.929 189.399 177.839 189.975 177.839 190.63C177.839 191.286 177.859 191.822 177.899 192.239C177.959 192.656 178.028 192.983 178.108 193.222C178.207 193.46 178.316 193.619 178.435 193.698C178.574 193.798 178.723 193.847 178.882 193.847Z" fill="#34211F"/>
<path d="M199.018 182.379C198.561 182.379 198.164 182.29 197.826 182.111C197.509 181.952 197.251 181.734 197.052 181.456C196.853 181.178 196.724 180.86 196.665 180.503C196.605 180.125 196.625 179.728 196.724 179.311C196.784 179.033 196.883 178.666 197.022 178.209C197.161 177.733 197.3 177.226 197.439 176.69C197.598 176.134 197.737 175.588 197.856 175.052C197.995 174.496 198.085 173.999 198.124 173.562C198.164 173.106 198.144 172.738 198.065 172.46C197.985 172.162 197.816 172.013 197.558 172.013C197.241 172.013 196.913 172.123 196.575 172.341C196.238 172.54 195.89 172.818 195.533 173.175C195.195 173.533 194.848 173.95 194.49 174.426C194.153 174.883 193.815 175.36 193.478 175.856C193.299 176.531 193.15 177.127 193.031 177.643C192.912 178.14 192.802 178.596 192.703 179.013C192.624 179.411 192.544 179.768 192.465 180.086C192.385 180.384 192.316 180.672 192.256 180.95C192.197 181.148 192.018 181.347 191.72 181.545C191.422 181.724 191.105 181.873 190.767 181.992C190.429 182.111 190.141 182.171 189.903 182.171C189.645 182.171 189.536 182.081 189.575 181.903C189.595 181.784 189.665 181.515 189.784 181.098C189.883 180.681 190.012 180.195 190.171 179.639C190.31 179.063 190.459 178.457 190.618 177.822C190.777 177.186 190.926 176.581 191.065 176.005C191.164 175.548 191.273 175.042 191.392 174.486C191.492 174.009 191.611 173.453 191.75 172.818C191.909 172.182 192.087 171.487 192.286 170.733C192.425 170.614 192.564 170.524 192.703 170.465C192.862 170.385 193.021 170.326 193.18 170.286C193.339 170.226 193.507 170.187 193.686 170.167C193.845 170.167 194.004 170.177 194.163 170.197C194.302 170.216 194.441 170.256 194.58 170.316C194.739 170.355 194.878 170.425 194.997 170.524C194.937 170.663 194.868 170.862 194.788 171.12C194.709 171.358 194.629 171.616 194.55 171.894C194.47 172.212 194.371 172.54 194.252 172.877C194.51 172.52 194.798 172.162 195.116 171.805C195.453 171.428 195.811 171.09 196.188 170.792C196.585 170.494 197.002 170.256 197.439 170.077C197.876 169.879 198.323 169.779 198.78 169.779C199.157 169.779 199.494 169.889 199.792 170.107C200.09 170.326 200.319 170.633 200.477 171.031C200.656 171.408 200.755 171.865 200.775 172.401C200.815 172.937 200.746 173.523 200.567 174.158L200.239 175.469C200.14 175.886 200.011 176.382 199.852 176.958C199.713 177.514 199.534 178.13 199.316 178.805C199.197 179.242 199.147 179.619 199.167 179.937C199.207 180.255 199.405 180.413 199.763 180.413C200.12 180.413 200.567 180.195 201.103 179.758C201.659 179.321 202.215 178.795 202.771 178.179C203.327 177.564 203.853 176.938 204.35 176.303C204.846 175.647 205.223 175.121 205.482 174.724C205.66 174.466 205.829 174.297 205.988 174.218C206.147 174.138 206.266 174.128 206.345 174.188C206.445 174.248 206.494 174.387 206.494 174.605C206.494 174.804 206.415 175.062 206.256 175.379C206.117 175.657 205.899 176.025 205.601 176.482C205.323 176.938 204.985 177.425 204.588 177.941C204.191 178.457 203.764 178.984 203.307 179.52C202.85 180.036 202.374 180.513 201.877 180.95C201.381 181.367 200.885 181.704 200.388 181.962C199.911 182.24 199.455 182.379 199.018 182.379Z" fill="#34211F"/>
<path d="M217.754 175.439C217.158 176.313 216.483 177.167 215.728 178.001C214.974 178.815 214.169 179.55 213.316 180.205C212.482 180.84 211.618 181.357 210.724 181.754C209.85 182.151 208.996 182.35 208.162 182.35C207.726 182.35 207.249 182.24 206.733 182.022C206.236 181.823 205.779 181.506 205.362 181.069C204.945 180.632 204.608 180.066 204.35 179.371C204.111 178.676 204.042 177.832 204.141 176.839C204.221 176.025 204.469 175.171 204.886 174.277C205.323 173.364 205.849 172.53 206.465 171.775C207.1 171.021 207.805 170.395 208.579 169.899C209.374 169.402 210.168 169.154 210.962 169.154C211.717 169.154 212.263 169.343 212.601 169.72C212.938 170.097 213.087 170.564 213.047 171.12C212.988 171.735 212.809 172.301 212.511 172.818C212.233 173.334 211.896 173.801 211.499 174.218C211.101 174.635 210.674 175.012 210.218 175.35C209.781 175.687 209.364 175.995 208.967 176.273C208.53 176.571 208.113 176.859 207.716 177.137C207.318 177.395 206.971 177.633 206.673 177.852C206.693 178.348 206.782 178.765 206.941 179.103C207.1 179.44 207.299 179.718 207.537 179.937C207.775 180.135 208.043 180.284 208.341 180.384C208.659 180.463 208.977 180.503 209.294 180.503C209.969 180.503 210.674 180.294 211.409 179.877C212.144 179.44 212.859 178.924 213.554 178.328C214.269 177.713 214.924 177.077 215.52 176.422C216.135 175.767 216.642 175.201 217.039 174.724C217.178 174.565 217.317 174.476 217.456 174.456C217.615 174.416 217.734 174.436 217.813 174.516C217.913 174.575 217.962 174.694 217.962 174.873C217.962 175.032 217.893 175.221 217.754 175.439ZM210.128 170.852C209.89 170.852 209.602 170.971 209.265 171.209C208.947 171.448 208.629 171.795 208.311 172.252C207.994 172.689 207.696 173.235 207.418 173.89C207.14 174.526 206.931 175.26 206.792 176.094C207.031 175.916 207.289 175.737 207.567 175.558C207.845 175.36 208.123 175.151 208.401 174.933C209.255 174.277 209.85 173.701 210.188 173.205C210.526 172.709 210.714 172.282 210.754 171.924C210.794 171.547 210.754 171.279 210.635 171.12C210.516 170.941 210.347 170.852 210.128 170.852Z" fill="#34211F"/>
<path d="M68.8489 196.626V197.408H62.2586V196.626H68.8489ZM62.4745 191.764V202.606H61.5586V191.764H62.4745ZM69.5861 191.764V202.606H68.6702V191.764H69.5861Z" fill="#34211F"/>
<path d="M79.0304 201.161V197.006C79.0304 196.624 78.9509 196.294 78.7921 196.016C78.6332 195.738 78.3999 195.524 78.0921 195.375C77.7843 195.226 77.4045 195.152 76.9527 195.152C76.5357 195.152 76.1634 195.226 75.8357 195.375C75.513 195.519 75.2574 195.715 75.0687 195.964C74.885 196.207 74.7932 196.477 74.7932 196.775L73.8996 196.768C73.8996 196.465 73.974 196.172 74.123 195.889C74.2719 195.606 74.4829 195.353 74.7559 195.13C75.029 194.906 75.3542 194.73 75.7315 194.601C76.1137 194.467 76.5332 194.4 76.99 194.4C77.5658 194.4 78.0722 194.497 78.5091 194.69C78.9509 194.884 79.296 195.174 79.5442 195.562C79.7924 195.949 79.9165 196.435 79.9165 197.021V200.916C79.9165 201.194 79.9364 201.482 79.9761 201.78C80.0208 202.077 80.0828 202.323 80.1623 202.517V202.606H79.2165C79.1569 202.427 79.1098 202.204 79.075 201.936C79.0452 201.663 79.0304 201.405 79.0304 201.161ZM79.2389 197.915L79.2538 198.6H77.5038C77.047 198.6 76.6375 198.642 76.2751 198.726C75.9176 198.806 75.6148 198.925 75.3666 199.084C75.1184 199.238 74.9272 199.424 74.7932 199.642C74.6641 199.861 74.5996 200.109 74.5996 200.387C74.5996 200.675 74.6715 200.938 74.8155 201.176C74.9645 201.415 75.173 201.606 75.441 201.75C75.7141 201.889 76.0368 201.958 76.4091 201.958C76.9056 201.958 77.3424 201.866 77.7197 201.683C78.102 201.499 78.4172 201.258 78.6655 200.96C78.9137 200.663 79.08 200.337 79.1644 199.985L79.5516 200.499C79.4871 200.747 79.3679 201.003 79.1942 201.266C79.0254 201.524 78.8045 201.767 78.5314 201.995C78.2584 202.219 77.9357 202.403 77.5634 202.547C77.196 202.686 76.779 202.755 76.3123 202.755C75.7861 202.755 75.3269 202.656 74.9347 202.457C74.5474 202.259 74.2446 201.988 74.0262 201.645C73.8127 201.298 73.706 200.906 73.706 200.469C73.706 200.072 73.7904 199.717 73.9591 199.404C74.1279 199.086 74.3712 198.818 74.6889 198.6C75.0116 198.376 75.3988 198.208 75.8506 198.093C76.3073 197.974 76.8187 197.915 77.3846 197.915H79.2389Z" fill="#34211F"/>
<path d="M89.4501 200.744V194.549H90.3437V202.606H89.4873L89.4501 200.744ZM89.6139 199.255L90.0756 199.24C90.0756 199.747 90.016 200.213 89.8969 200.64C89.7777 201.067 89.5916 201.439 89.3384 201.757C89.0852 202.075 88.7575 202.321 88.3554 202.494C87.9533 202.668 87.4693 202.755 86.9033 202.755C86.5111 202.755 86.1512 202.7 85.8235 202.591C85.5008 202.477 85.2228 202.298 84.9895 202.055C84.7562 201.812 84.575 201.497 84.4459 201.109C84.3218 200.722 84.2597 200.253 84.2597 199.702V194.549H85.1459V199.717C85.1459 200.149 85.193 200.509 85.2874 200.797C85.3867 201.085 85.5207 201.315 85.6895 201.489C85.8633 201.663 86.0618 201.787 86.2852 201.861C86.5086 201.936 86.7494 201.973 87.0076 201.973C87.6629 201.973 88.1792 201.847 88.5565 201.593C88.9387 201.34 89.2093 201.008 89.3682 200.595C89.532 200.178 89.6139 199.732 89.6139 199.255Z" fill="#34211F"/>
<path d="M97.7028 194.549V195.279H93.6667V194.549H97.7028ZM95.1486 192.479H96.0348V200.648C96.0348 201.02 96.0844 201.3 96.1837 201.489C96.283 201.678 96.4121 201.804 96.5709 201.869C96.7298 201.933 96.9011 201.966 97.0847 201.966C97.2188 201.966 97.3479 201.958 97.472 201.943C97.5961 201.923 97.7078 201.904 97.8071 201.884L97.8443 202.636C97.7351 202.671 97.5936 202.698 97.4198 202.718C97.2461 202.743 97.0723 202.755 96.8986 202.755C96.556 202.755 96.2532 202.693 95.9901 202.569C95.727 202.44 95.5209 202.221 95.372 201.914C95.2231 201.601 95.1486 201.176 95.1486 200.64V192.479Z" fill="#34211F"/>
<path d="M104.667 202.755C104.141 202.755 103.657 202.658 103.215 202.465C102.778 202.271 102.396 201.998 102.068 201.645C101.746 201.293 101.495 200.876 101.316 200.394C101.143 199.908 101.056 199.377 101.056 198.801V198.481C101.056 197.86 101.147 197.299 101.331 196.798C101.515 196.296 101.768 195.867 102.091 195.509C102.413 195.152 102.781 194.879 103.193 194.69C103.61 194.497 104.047 194.4 104.503 194.4C105.015 194.4 105.469 194.492 105.866 194.675C106.263 194.854 106.596 195.11 106.864 195.442C107.137 195.77 107.343 196.16 107.482 196.612C107.621 197.058 107.691 197.552 107.691 198.093V198.637H101.592V197.877H106.804V197.773C106.795 197.321 106.703 196.899 106.529 196.507C106.36 196.11 106.107 195.787 105.769 195.539C105.432 195.291 105.01 195.167 104.503 195.167C104.126 195.167 103.779 195.246 103.461 195.405C103.148 195.564 102.878 195.792 102.649 196.09C102.426 196.383 102.252 196.733 102.128 197.14C102.009 197.542 101.949 197.989 101.949 198.481V198.801C101.949 199.248 102.014 199.665 102.143 200.052C102.277 200.434 102.466 200.772 102.709 201.065C102.957 201.358 103.25 201.586 103.588 201.75C103.925 201.914 104.297 201.995 104.705 201.995C105.181 201.995 105.603 201.909 105.97 201.735C106.338 201.556 106.668 201.276 106.961 200.893L107.519 201.325C107.346 201.583 107.127 201.822 106.864 202.04C106.606 202.259 106.296 202.432 105.933 202.561C105.571 202.691 105.149 202.755 104.667 202.755Z" fill="#34211F"/>
<path d="M116.256 200.551C116.256 200.332 116.202 200.116 116.092 199.903C115.983 199.689 115.772 199.493 115.459 199.315C115.152 199.136 114.697 198.985 114.097 198.86C113.65 198.761 113.25 198.649 112.898 198.525C112.55 198.401 112.257 198.252 112.019 198.079C111.781 197.905 111.599 197.696 111.475 197.453C111.351 197.21 111.289 196.922 111.289 196.589C111.289 196.291 111.354 196.011 111.483 195.748C111.617 195.48 111.805 195.246 112.049 195.048C112.297 194.844 112.595 194.685 112.942 194.571C113.295 194.457 113.69 194.4 114.126 194.4C114.747 194.4 115.278 194.507 115.72 194.72C116.167 194.929 116.507 195.214 116.74 195.576C116.978 195.939 117.098 196.348 117.098 196.805H116.211C116.211 196.527 116.13 196.264 115.966 196.016C115.807 195.768 115.571 195.564 115.258 195.405C114.95 195.246 114.573 195.167 114.126 195.167C113.665 195.167 113.29 195.236 113.002 195.375C112.714 195.514 112.503 195.691 112.369 195.904C112.24 196.118 112.175 196.338 112.175 196.567C112.175 196.746 112.203 196.909 112.257 197.058C112.317 197.202 112.421 197.336 112.57 197.46C112.724 197.585 112.942 197.701 113.225 197.81C113.508 197.92 113.876 198.026 114.327 198.131C114.978 198.275 115.509 198.451 115.921 198.659C116.338 198.863 116.646 199.116 116.844 199.419C117.043 199.717 117.142 200.079 117.142 200.506C117.142 200.839 117.073 201.144 116.934 201.422C116.795 201.695 116.594 201.931 116.331 202.13C116.072 202.328 115.76 202.482 115.392 202.591C115.03 202.7 114.623 202.755 114.171 202.755C113.491 202.755 112.915 202.643 112.443 202.42C111.977 202.192 111.622 201.894 111.379 201.526C111.14 201.154 111.021 200.759 111.021 200.342H111.907C111.937 200.759 112.069 201.089 112.302 201.333C112.535 201.571 112.821 201.74 113.158 201.839C113.501 201.938 113.838 201.988 114.171 201.988C114.628 201.988 115.01 201.921 115.318 201.787C115.626 201.653 115.859 201.477 116.018 201.258C116.177 201.04 116.256 200.804 116.256 200.551Z" fill="#34211F"/>
<path d="M123.913 197.438V198.205H120.346V197.438H123.913Z" fill="#34211F"/>
<path d="M131.272 192.412L127.519 202.606H126.566L130.662 191.764H131.324L131.272 192.412ZM134.683 202.606L130.922 192.412L130.87 191.764H131.533L135.636 202.606H134.683ZM134.013 198.779V199.568H128.256V198.779H134.013Z" fill="#34211F"/>
<path d="M140.009 191.168V202.606H139.123V191.168H140.009Z" fill="#34211F"/>
<path d="M145.305 196.098V205.704H144.412V194.549H145.246L145.305 196.098ZM150.905 198.503V198.659C150.905 199.26 150.836 199.811 150.697 200.313C150.558 200.814 150.357 201.248 150.094 201.616C149.836 201.978 149.515 202.259 149.133 202.457C148.751 202.656 148.316 202.755 147.83 202.755C147.348 202.755 146.919 202.681 146.542 202.532C146.164 202.383 145.839 202.172 145.566 201.899C145.298 201.621 145.082 201.298 144.918 200.931C144.759 200.558 144.648 200.151 144.583 199.709V197.647C144.658 197.16 144.779 196.718 144.948 196.321C145.117 195.924 145.333 195.581 145.596 195.293C145.864 195.006 146.182 194.785 146.549 194.631C146.916 194.477 147.336 194.4 147.808 194.4C148.299 194.4 148.736 194.497 149.118 194.69C149.505 194.879 149.831 195.154 150.094 195.517C150.362 195.874 150.563 196.306 150.697 196.813C150.836 197.314 150.905 197.877 150.905 198.503ZM150.012 198.659V198.503C150.012 198.031 149.962 197.594 149.863 197.192C149.769 196.79 149.622 196.44 149.423 196.142C149.23 195.84 148.982 195.604 148.679 195.435C148.381 195.266 148.026 195.182 147.614 195.182C147.187 195.182 146.822 195.254 146.519 195.398C146.221 195.537 145.973 195.723 145.775 195.956C145.576 196.185 145.42 196.435 145.305 196.708C145.191 196.981 145.107 197.249 145.052 197.513V199.888C145.147 200.265 145.298 200.615 145.507 200.938C145.715 201.256 145.993 201.511 146.341 201.705C146.693 201.894 147.122 201.988 147.629 201.988C148.036 201.988 148.388 201.904 148.686 201.735C148.984 201.566 149.23 201.33 149.423 201.027C149.622 200.725 149.769 200.372 149.863 199.97C149.962 199.568 150.012 199.131 150.012 198.659Z" fill="#34211F"/>
<path d="M157.982 202.755C157.455 202.755 156.971 202.658 156.529 202.465C156.093 202.271 155.71 201.998 155.383 201.645C155.06 201.293 154.809 200.876 154.631 200.394C154.457 199.908 154.37 199.377 154.37 198.801V198.481C154.37 197.86 154.462 197.299 154.645 196.798C154.829 196.296 155.082 195.867 155.405 195.509C155.728 195.152 156.095 194.879 156.507 194.69C156.924 194.497 157.361 194.4 157.818 194.4C158.329 194.4 158.783 194.492 159.18 194.675C159.578 194.854 159.91 195.11 160.178 195.442C160.451 195.77 160.657 196.16 160.796 196.612C160.935 197.058 161.005 197.552 161.005 198.093V198.637H154.906V197.877H160.119V197.773C160.109 197.321 160.017 196.899 159.843 196.507C159.674 196.11 159.421 195.787 159.084 195.539C158.746 195.291 158.324 195.167 157.818 195.167C157.44 195.167 157.093 195.246 156.775 195.405C156.462 195.564 156.192 195.792 155.963 196.09C155.74 196.383 155.566 196.733 155.442 197.14C155.323 197.542 155.263 197.989 155.263 198.481V198.801C155.263 199.248 155.328 199.665 155.457 200.052C155.591 200.434 155.78 200.772 156.023 201.065C156.271 201.358 156.564 201.586 156.902 201.75C157.239 201.914 157.612 201.995 158.019 201.995C158.495 201.995 158.917 201.909 159.285 201.735C159.652 201.556 159.982 201.276 160.275 200.893L160.834 201.325C160.66 201.583 160.441 201.822 160.178 202.04C159.92 202.259 159.61 202.432 159.247 202.561C158.885 202.691 158.463 202.755 157.982 202.755Z" fill="#34211F"/>
<path d="M169.57 200.551C169.57 200.332 169.516 200.116 169.407 199.903C169.297 199.689 169.086 199.493 168.774 199.315C168.466 199.136 168.012 198.985 167.411 198.86C166.964 198.761 166.564 198.649 166.212 198.525C165.864 198.401 165.572 198.252 165.333 198.079C165.095 197.905 164.914 197.696 164.79 197.453C164.665 197.21 164.603 196.922 164.603 196.589C164.603 196.291 164.668 196.011 164.797 195.748C164.931 195.48 165.12 195.246 165.363 195.048C165.611 194.844 165.909 194.685 166.257 194.571C166.609 194.457 167.004 194.4 167.441 194.4C168.061 194.4 168.592 194.507 169.034 194.72C169.481 194.929 169.821 195.214 170.054 195.576C170.293 195.939 170.412 196.348 170.412 196.805H169.526C169.526 196.527 169.444 196.264 169.28 196.016C169.121 195.768 168.885 195.564 168.573 195.405C168.265 195.246 167.887 195.167 167.441 195.167C166.979 195.167 166.604 195.236 166.316 195.375C166.028 195.514 165.817 195.691 165.683 195.904C165.554 196.118 165.49 196.338 165.49 196.567C165.49 196.746 165.517 196.909 165.572 197.058C165.631 197.202 165.735 197.336 165.884 197.46C166.038 197.585 166.257 197.701 166.54 197.81C166.823 197.92 167.19 198.026 167.642 198.131C168.292 198.275 168.823 198.451 169.235 198.659C169.652 198.863 169.96 199.116 170.159 199.419C170.357 199.717 170.457 200.079 170.457 200.506C170.457 200.839 170.387 201.144 170.248 201.422C170.109 201.695 169.908 201.931 169.645 202.13C169.387 202.328 169.074 202.482 168.707 202.591C168.344 202.7 167.937 202.755 167.485 202.755C166.805 202.755 166.229 202.643 165.758 202.42C165.291 202.192 164.936 201.894 164.693 201.526C164.454 201.154 164.335 200.759 164.335 200.342H165.222C165.251 200.759 165.383 201.089 165.616 201.333C165.85 201.571 166.135 201.74 166.473 201.839C166.815 201.938 167.153 201.988 167.485 201.988C167.942 201.988 168.324 201.921 168.632 201.787C168.94 201.653 169.173 201.477 169.332 201.258C169.491 201.04 169.57 200.804 169.57 200.551Z" fill="#34211F"/>
<path d="M226 189.93L110.182 252.24L2 189.93V64.039L110.182 3.00079L226 64.039V189.93Z" stroke="#34211F" stroke-width="4"/>
</svg>
