<svg width="260" height="221" viewBox="0 0 260 221" fill="none" xmlns="http://www.w3.org/2000/svg">
<path d="M74.4824 126.278V63.7305H124.109V77.532" stroke="white" stroke-width="5"/>
<path d="M105.021 56.095V5L165.513 37.0078V126.277" stroke="white" stroke-width="5"/>
<path d="M118.238 126.278V92.8017L137.325 77.2383L158.175 92.8017V126.278" stroke="#FFD434" stroke-width="5"/>
<path d="M26.5553 160.421C28.8481 161.06 30.6523 162.225 31.9678 163.917C33.2834 165.57 33.9412 167.675 33.9412 170.231C33.9412 173.652 32.6444 176.283 30.0509 178.125C27.495 179.966 23.7551 180.887 18.8311 180.887H0V141.421H17.7035C22.214 141.421 25.6908 142.323 28.134 144.127C30.6147 145.931 31.8551 148.431 31.8551 151.626C31.8551 153.693 31.3665 155.478 30.3892 156.982C29.4495 158.485 28.1715 159.632 26.5553 160.421ZM5.63807 145.988V158.617H17.1961C20.0903 158.617 22.308 158.091 23.849 157.038C25.4277 155.948 26.217 154.369 26.217 152.302C26.217 150.235 25.4277 148.675 23.849 147.623C22.308 146.533 20.0903 145.988 17.1961 145.988H5.63807ZM18.6056 176.32C21.8005 176.32 24.2061 175.794 25.8224 174.742C27.4386 173.689 28.2467 172.035 28.2467 169.78C28.2467 165.383 25.033 163.184 18.6056 163.184H5.63807V176.32H18.6056Z" fill="#FFD434"/>
<path d="M70.5794 166.115C70.5794 166.529 70.5418 167.074 70.4666 167.751H46.2229C46.5612 170.382 47.7076 172.505 49.6621 174.122C51.6542 175.7 54.1162 176.49 57.048 176.49C60.6188 176.49 63.4942 175.287 65.6742 172.881L68.6624 176.377C67.3093 177.955 65.6179 179.158 63.5882 179.985C61.596 180.812 59.3596 181.225 56.8789 181.225C53.7215 181.225 50.9213 180.587 48.4781 179.309C46.035 177.993 44.1368 176.17 42.7837 173.84C41.4681 171.509 40.8104 168.878 40.8104 165.946C40.8104 163.052 41.4493 160.44 42.7273 158.109C44.0429 155.779 45.8282 153.975 48.0835 152.697C50.3763 151.381 52.951 150.724 55.8076 150.724C58.6642 150.724 61.2014 151.381 63.419 152.697C65.6742 153.975 67.422 155.779 68.6624 158.109C69.9404 160.44 70.5794 163.109 70.5794 166.115ZM55.8076 155.29C53.2141 155.29 51.0341 156.08 49.2675 157.658C47.5385 159.237 46.5236 161.304 46.2229 163.86H65.3923C65.0916 161.342 64.058 159.293 62.2914 157.715C60.5624 156.099 58.4011 155.29 55.8076 155.29Z" fill="#FFD434"/>
<path d="M106.793 166.115C106.793 166.529 106.755 167.074 106.68 167.751H82.4365C82.7748 170.382 83.9212 172.505 85.8757 174.122C87.8678 175.7 90.3298 176.49 93.2616 176.49C96.8324 176.49 99.7078 175.287 101.888 172.881L104.876 176.377C103.523 177.955 101.831 179.158 99.8017 179.985C97.8096 180.812 95.5732 181.225 93.0924 181.225C89.9351 181.225 87.1349 180.587 84.6917 179.309C82.2485 177.993 80.3504 176.17 78.9973 173.84C77.6817 171.509 77.0239 168.878 77.0239 165.946C77.0239 163.052 77.6629 160.44 78.9409 158.109C80.2564 155.779 82.0418 153.975 84.297 152.697C86.5899 151.381 89.1646 150.724 92.0212 150.724C94.8778 150.724 97.415 151.381 99.6326 152.697C101.888 153.975 103.636 155.779 104.876 158.109C106.154 160.44 106.793 163.109 106.793 166.115ZM92.0212 155.29C89.4277 155.29 87.2476 156.08 85.481 157.658C83.752 159.237 82.7372 161.304 82.4365 163.86H101.606C101.305 161.342 100.272 159.293 98.505 157.715C96.776 156.099 94.6147 155.29 92.0212 155.29Z" fill="#FFD434"/>
<path d="M116 139.053H121.413V180.887H116V139.053Z" fill="white"/>
<path d="M161.629 139.053V180.887H156.442V176.151C155.239 177.805 153.717 179.064 151.875 179.929C150.033 180.793 148.004 181.225 145.786 181.225C142.892 181.225 140.298 180.587 138.005 179.309C135.713 178.031 133.908 176.245 132.593 173.952C131.315 171.622 130.676 168.953 130.676 165.946C130.676 162.939 131.315 160.289 132.593 157.997C133.908 155.704 135.713 153.918 138.005 152.64C140.298 151.363 142.892 150.724 145.786 150.724C147.928 150.724 149.902 151.137 151.706 151.964C153.51 152.753 155.014 153.937 156.216 155.516V139.053H161.629ZM146.237 176.49C148.116 176.49 149.827 176.057 151.368 175.193C152.909 174.291 154.111 173.05 154.976 171.472C155.84 169.855 156.273 168.014 156.273 165.946C156.273 163.879 155.84 162.056 154.976 160.477C154.111 158.861 152.909 157.621 151.368 156.756C149.827 155.892 148.116 155.46 146.237 155.46C144.32 155.46 142.591 155.892 141.05 156.756C139.546 157.621 138.344 158.861 137.442 160.477C136.577 162.056 136.145 163.879 136.145 165.946C136.145 168.014 136.577 169.855 137.442 171.472C138.344 173.05 139.546 174.291 141.05 175.193C142.591 176.057 144.32 176.49 146.237 176.49Z" fill="white"/>
<path d="M173.561 151.005H178.974V180.887H173.561V151.005ZM176.268 145.255C175.215 145.255 174.332 144.916 173.618 144.24C172.941 143.563 172.603 142.736 172.603 141.759C172.603 140.782 172.941 139.955 173.618 139.278C174.332 138.564 175.215 138.207 176.268 138.207C177.32 138.207 178.185 138.545 178.861 139.222C179.575 139.861 179.932 140.669 179.932 141.646C179.932 142.661 179.575 143.526 178.861 144.24C178.185 144.916 177.32 145.255 176.268 145.255Z" fill="white"/>
<path d="M206.955 150.724C210.752 150.724 213.759 151.832 215.976 154.05C218.232 156.23 219.359 159.444 219.359 163.691V180.887H213.947V164.311C213.947 161.417 213.251 159.237 211.861 157.771C210.47 156.305 208.478 155.572 205.884 155.572C202.952 155.572 200.641 156.437 198.949 158.166C197.258 159.857 196.412 162.3 196.412 165.495V180.887H191V151.005H196.187V155.516C197.277 153.975 198.743 152.791 200.584 151.964C202.464 151.137 204.587 150.724 206.955 150.724Z" fill="white"/>
<path d="M259.818 151.005V176.828C259.818 182.052 258.521 185.905 255.927 188.386C253.334 190.904 249.462 192.163 244.313 192.163C241.494 192.163 238.806 191.769 236.25 190.979C233.695 190.228 231.627 189.138 230.049 187.709L232.642 183.537C234.033 184.74 235.743 185.68 237.773 186.356C239.84 187.07 241.964 187.427 244.144 187.427C247.639 187.427 250.214 186.6 251.868 184.947C253.559 183.293 254.405 180.774 254.405 177.392V175.024C253.127 176.565 251.548 177.73 249.669 178.519C247.827 179.271 245.816 179.647 243.636 179.647C240.78 179.647 238.186 179.045 235.856 177.843C233.563 176.602 231.759 174.892 230.443 172.712C229.128 170.494 228.47 167.976 228.47 165.157C228.47 162.338 229.128 159.838 230.443 157.658C231.759 155.441 233.563 153.731 235.856 152.528C238.186 151.325 240.78 150.724 243.636 150.724C245.892 150.724 247.978 151.137 249.895 151.964C251.849 152.791 253.447 154.012 254.687 155.629V151.005H259.818ZM244.257 174.911C246.211 174.911 247.959 174.497 249.5 173.67C251.079 172.844 252.3 171.697 253.165 170.231C254.067 168.728 254.518 167.036 254.518 165.157C254.518 162.263 253.559 159.932 251.642 158.166C249.725 156.362 247.263 155.46 244.257 155.46C241.212 155.46 238.731 156.362 236.814 158.166C234.897 159.932 233.939 162.263 233.939 165.157C233.939 167.036 234.371 168.728 235.236 170.231C236.138 171.697 237.359 172.844 238.9 173.67C240.479 174.497 242.264 174.911 244.257 174.911Z" fill="white"/>
<path d="M49.1436 213.783C46.5125 213.783 44.1319 213.207 42.002 212.054C39.8971 210.877 38.2433 209.273 37.0405 207.243C35.8377 205.189 35.2363 202.883 35.2363 200.327C35.2363 197.771 35.8377 195.479 37.0405 193.449C38.2433 191.394 39.9097 189.79 42.0396 188.638C44.1695 187.46 46.5501 186.871 49.1812 186.871C51.2359 186.871 53.1153 187.222 54.8192 187.924C56.5232 188.6 57.9765 189.615 59.1793 190.968L56.7362 193.336C54.7566 191.256 52.2884 190.216 49.3315 190.216C47.377 190.216 45.6104 190.655 44.0317 191.532C42.4531 192.409 41.2127 193.624 40.3106 195.178C39.4336 196.706 38.995 198.423 38.995 200.327C38.995 202.232 39.4336 203.961 40.3106 205.514C41.2127 207.043 42.4531 208.246 44.0317 209.123C45.6104 210 47.377 210.438 49.3315 210.438C52.2633 210.438 54.7315 209.386 56.7362 207.281L59.1793 209.649C57.9765 211.002 56.5106 212.029 54.7816 212.731C53.0777 213.433 51.1983 213.783 49.1436 213.783Z" fill="white"/>
<path d="M72.8308 213.708C70.8512 213.708 69.0721 213.27 67.4934 212.393C65.9148 211.516 64.6744 210.313 63.7723 208.784C62.8953 207.231 62.4567 205.477 62.4567 203.522C62.4567 201.568 62.8953 199.826 63.7723 198.298C64.6744 196.744 65.9148 195.541 67.4934 194.689C69.0721 193.812 70.8512 193.374 72.8308 193.374C74.8104 193.374 76.577 193.812 78.1306 194.689C79.7092 195.541 80.9371 196.744 81.8141 198.298C82.7162 199.826 83.1672 201.568 83.1672 203.522C83.1672 205.477 82.7162 207.231 81.8141 208.784C80.9371 210.313 79.7092 211.516 78.1306 212.393C76.577 213.27 74.8104 213.708 72.8308 213.708ZM72.8308 210.551C74.1087 210.551 75.2489 210.263 76.2512 209.686C77.2786 209.085 78.0805 208.258 78.6568 207.206C79.2331 206.128 79.5213 204.9 79.5213 203.522C79.5213 202.144 79.2331 200.929 78.6568 199.876C78.0805 198.799 77.2786 197.972 76.2512 197.395C75.2489 196.819 74.1087 196.531 72.8308 196.531C71.5528 196.531 70.4002 196.819 69.3728 197.395C68.3705 197.972 67.5686 198.799 66.9672 199.876C66.3909 200.929 66.1027 202.144 66.1027 203.522C66.1027 204.9 66.3909 206.128 66.9672 207.206C67.5686 208.258 68.3705 209.085 69.3728 209.686C70.4002 210.263 71.5528 210.551 72.8308 210.551Z" fill="white"/>
<path d="M114.205 193.374C116.711 193.374 118.691 194.1 120.144 195.554C121.623 197.007 122.362 199.162 122.362 202.019V213.483H118.753V202.432C118.753 200.503 118.302 199.049 117.4 198.072C116.523 197.095 115.258 196.606 113.604 196.606C111.775 196.606 110.321 197.182 109.244 198.335C108.166 199.463 107.628 201.092 107.628 203.221V213.483H104.019V202.432C104.019 200.503 103.568 199.049 102.666 198.072C101.789 197.095 100.524 196.606 98.8699 196.606C97.0406 196.606 95.5872 197.182 94.5097 198.335C93.4323 199.463 92.8935 201.092 92.8935 203.221V213.483H89.2851V193.562H92.7432V196.531C93.4698 195.504 94.422 194.727 95.5998 194.201C96.7775 193.649 98.1181 193.374 99.6216 193.374C101.175 193.374 102.553 193.687 103.756 194.313C104.959 194.94 105.886 195.854 106.538 197.057C107.289 195.905 108.329 195.002 109.657 194.351C111.01 193.699 112.527 193.374 114.205 193.374Z" fill="white"/>
<path d="M140.691 193.374C142.62 193.374 144.349 193.8 145.878 194.652C147.406 195.504 148.597 196.694 149.449 198.222C150.326 199.751 150.764 201.518 150.764 203.522C150.764 205.527 150.326 207.306 149.449 208.86C148.597 210.388 147.406 211.578 145.878 212.43C144.349 213.282 142.62 213.708 140.691 213.708C139.263 213.708 137.947 213.433 136.744 212.881C135.566 212.33 134.564 211.528 133.737 210.476V220.775H130.129V193.562H133.587V196.719C134.389 195.616 135.404 194.789 136.631 194.238C137.859 193.662 139.212 193.374 140.691 193.374ZM140.39 210.551C141.668 210.551 142.808 210.263 143.811 209.686C144.838 209.085 145.64 208.258 146.216 207.206C146.818 206.128 147.118 204.9 147.118 203.522C147.118 202.144 146.818 200.929 146.216 199.876C145.64 198.799 144.838 197.972 143.811 197.395C142.808 196.819 141.668 196.531 140.39 196.531C139.137 196.531 137.997 196.832 136.97 197.433C135.967 198.009 135.166 198.824 134.564 199.876C133.988 200.929 133.7 202.144 133.7 203.522C133.7 204.9 133.988 206.128 134.564 207.206C135.14 208.258 135.942 209.085 136.97 209.686C137.997 210.263 139.137 210.551 140.39 210.551Z" fill="white"/>
<path d="M163.948 193.374C166.705 193.374 168.809 194.05 170.263 195.403C171.741 196.757 172.48 198.774 172.48 201.455V213.483H169.06V210.852C168.459 211.779 167.594 212.493 166.466 212.994C165.364 213.47 164.048 213.708 162.52 213.708C160.29 213.708 158.498 213.17 157.145 212.092C155.817 211.015 155.153 209.599 155.153 207.845C155.153 206.091 155.792 204.687 157.07 203.635C158.348 202.557 160.377 202.019 163.159 202.019H168.872V201.305C168.872 199.751 168.421 198.561 167.519 197.734C166.617 196.907 165.289 196.493 163.535 196.493C162.357 196.493 161.204 196.694 160.077 197.095C158.949 197.471 157.997 197.984 157.22 198.636L155.717 195.93C156.744 195.103 157.972 194.476 159.4 194.05C160.828 193.599 162.344 193.374 163.948 193.374ZM163.121 210.927C164.499 210.927 165.69 210.626 166.692 210.025C167.694 209.398 168.421 208.521 168.872 207.394V204.612H163.309C160.252 204.612 158.724 205.64 158.724 207.694C158.724 208.697 159.112 209.486 159.889 210.062C160.666 210.639 161.743 210.927 163.121 210.927Z" fill="white"/>
<path d="M190.923 193.374C193.454 193.374 195.458 194.113 196.937 195.591C198.44 197.045 199.192 199.187 199.192 202.019V213.483H195.584V202.432C195.584 200.503 195.12 199.049 194.193 198.072C193.266 197.095 191.938 196.606 190.209 196.606C188.254 196.606 186.713 197.182 185.585 198.335C184.458 199.463 183.894 201.092 183.894 203.221V213.483H180.286V193.562H183.744V196.569C184.47 195.541 185.448 194.752 186.675 194.201C187.928 193.649 189.344 193.374 190.923 193.374Z" fill="white"/>
<path d="M224.259 193.562L214.599 215.475C213.747 217.505 212.745 218.933 211.592 219.76C210.464 220.587 209.099 221 207.495 221C206.518 221 205.565 220.837 204.638 220.512C203.736 220.211 202.984 219.76 202.383 219.158L203.924 216.452C204.951 217.429 206.142 217.918 207.495 217.918C208.372 217.918 209.099 217.68 209.675 217.204C210.276 216.753 210.815 215.964 211.291 214.836L211.93 213.445L203.135 193.562H206.893L213.847 209.499L220.726 193.562H224.259Z" fill="white"/>
</svg>
