<svg width="677" height="675" viewBox="0 0 677 675" fill="none" xmlns="http://www.w3.org/2000/svg">
<path fill-rule="evenodd" clip-rule="evenodd" d="M653.36 515.021C612.037 573.915 520.775 554.847 455.062 583.627C397.505 608.834 356.239 665.629 293.909 672.447C221.508 680.366 142.126 671.017 86.7223 623.917C30.0595 575.746 1.42991 498.066 0.837733 423.3C0.291434 354.326 60.3924 303.927 83.6729 238.9C111.356 161.574 75.0106 41.6032 149.598 7.7842C226.101 -26.9038 294.8 78.1954 373.082 107.677C427.436 128.146 489.4 119.972 536.769 153.594C589.449 190.986 630.832 243.052 650.736 304.752C672.751 372.999 694.683 456.128 653.36 515.021Z" fill="#2E91DF" fill-opacity="0.5"/>
</svg>
