<svg width="1113" height="813" viewBox="0 0 1113 813" fill="none" xmlns="http://www.w3.org/2000/svg">
<path fill-rule="evenodd" clip-rule="evenodd" d="M581.284 13.174C682.04 16.0091 784.901 -1.22739 875.141 34.0806C975.519 73.3551 1073.25 133.605 1104.97 218.076C1136.44 301.861 1067.21 383.955 1038.21 468.286C1007.18 558.502 1016.18 664.053 929.546 728.12C839.454 794.747 701.774 828.375 581.284 806.201C466.98 785.164 427.506 674.705 334.363 618.584C245.189 564.854 108.52 562.912 51.3642 486.91C-9.96713 405.356 -14.3174 299.241 27.3681 210.364C68.3249 123.041 163.788 55.5232 271.717 17.1011C368.07 -17.1998 475.56 10.1991 581.284 13.174Z" fill="#FFED4E" fill-opacity="0.88"/>
</svg>
