<svg width="897" height="688" viewBox="0 0 897 688" fill="none" xmlns="http://www.w3.org/2000/svg">
<path fill-rule="evenodd" clip-rule="evenodd" d="M447.945 0.23758C544.914 -0.870308 648.147 -0.239587 725.881 52.0304C803.203 104.023 832.157 192.965 858.838 276.531C884.653 357.383 920.308 448.212 876.02 522.27C832.787 594.565 711.593 584.748 642.502 638.286C562.592 700.207 278.599 663.222 175.081 680.97C74.6277 698.192 74.3171 683.701 49.2002 638.286C21.4533 588.114 128.501 573.715 97.3086 499.588C63.8726 420.128 -12.9226 350.159 1.87025 266.227C17.3348 178.483 92.8814 107.338 175.081 58.3233C254.983 10.6784 352.152 1.33203 447.945 0.23758Z" fill="#FD5DC9" fill-opacity="0.54"/>
</svg>
