<svg width="155" height="134" viewBox="0 0 155 134" fill="none" xmlns="http://www.w3.org/2000/svg">
<path d="M67.6371 65.1869C54.9345 74.3547 42.0185 79.7098 27.3734 84.4888C25.613 82.0496 22.0409 76.0822 17.8814 77.9905C13.6305 79.9406 9.20063 83.9808 5.47032 86.8802C3.50117 88.4107 2.35873 94.4437 3.16839 96.4696C4.43303 99.6339 7.50366 102.855 10.3551 104.632C14.6965 107.338 17.2875 105.975 11.7664 110.389C7.04414 114.165 8.98493 121.743 11.4952 125.222C15.9201 131.352 28.6897 134.01 34.1437 125.341C36.5867 121.459 38.1282 118.468 38.3718 114.091C38.6433 109.212 40.413 107.327 42.3673 102.94C45.3563 96.2308 60.9045 88.3416 66.847 84.0527L98.4207 61.265L111 52.186C114.066 49.9735 120.735 45.0463 124.658 45.4459C134.169 46.415 137.414 59.9556 148.642 51.8523C157.062 45.7751 148.002 35.3166 144.243 29.0741C140.827 23.4008 143.567 28.5185 145.903 23.9819C147.424 21.0285 151.545 13.2081 150.078 11.1753C147.646 7.8055 143.902 7.46915 141.294 4.70791C137.366 0.547298 131.743 4.28344 127.698 7.20268C123.761 10.0438 117.951 13.2122 118.229 18.3734C118.336 20.3593 118.928 22.1007 119.247 24.0083C119.641 26.3662 119.692 25.5231 118.895 28.802C117.363 33.5034 115.043 37.1099 111.772 37.9414C106.453 39.2932 102.411 42.5287 97.9126 45.7755C88.1002 52.8574 77.3691 58.1629 67.6371 65.1869Z" stroke="#2F90DD" stroke-width="5" stroke-linecap="round"/>
</svg>
