<svg width="253" height="170" viewBox="0 0 253 170" fill="none" xmlns="http://www.w3.org/2000/svg">
<path d="M0.589965 166.021C0.589965 165.514 0.420911 158.036 0.0828022 143.588C-0.110403 133.601 0.0345008 125.49 0.517513 119.255C0.614116 118.19 1.02468 117.329 1.74919 116.67C2.52201 116.01 3.41559 115.706 4.42991 115.757C4.91293 115.808 5.37179 115.96 5.8065 116.213C11.4577 114.997 16.5535 114.718 21.0938 115.377C29.0635 116.543 34.2318 120.345 36.5985 126.783C37.5163 129.875 37.8544 132.41 37.6129 134.387C37.4197 136.314 36.8642 138.063 35.9465 139.634C35.077 141.155 33.942 142.397 32.5412 143.36C31.1888 144.323 29.8122 145.109 28.4115 145.717C27.0107 146.275 25.5134 146.706 23.9195 147.01C18.9927 148.075 13.5105 148.252 7.47289 147.542C7.7144 157.276 7.83515 163.435 7.83515 166.021C7.83515 167.085 7.47289 167.998 6.74837 168.758C6.07216 169.468 5.22688 169.823 4.21256 169.823C3.19823 169.823 2.32881 169.468 1.60429 168.758C0.928074 167.998 0.589965 167.085 0.589965 166.021ZM7.32799 140.014C7.6178 139.964 7.93175 139.938 8.26986 139.938C13.5347 140.597 18.2682 140.471 22.4704 139.558C27.4455 138.493 30.102 136.466 30.4401 133.475C30.5367 132.765 30.3194 131.447 29.7881 129.521C28.4839 125.871 25.2719 123.665 20.152 122.905C16.4811 122.398 12.2789 122.626 7.54534 123.589C7.30384 128.05 7.23139 133.525 7.32799 140.014Z" fill="black"/>
<path d="M58.7592 169.975C55.1849 169.721 52.0695 168.961 49.4129 167.693C46.7563 166.426 44.7277 164.829 43.3269 162.903C41.9262 160.976 40.9119 159.202 40.284 157.58C39.656 155.958 39.2696 154.361 39.1247 152.789C38.9798 151.167 39.0523 149.089 39.3421 146.554C39.6802 144.425 40.3806 142.321 41.4432 140.242C42.5541 138.164 44.0032 136.314 45.7903 134.691C47.6257 133.018 49.8235 131.751 52.3834 130.889C54.9434 129.977 57.6724 129.698 60.5705 130.053C63.3719 130.408 65.7629 131.219 67.7432 132.486C69.7236 133.703 71.4141 135.274 72.8148 137.201C74.0224 138.823 74.7469 140.04 74.9884 140.851C75.2782 141.662 75.5197 142.422 75.7129 143.132C75.9544 143.842 76.1476 144.45 76.2925 144.957C76.4374 145.464 76.5582 145.996 76.6548 146.554C76.7997 147.061 76.8963 147.669 76.9446 148.379C76.9929 149.342 76.8238 150.229 76.4374 151.04C76.051 151.851 75.4714 152.485 74.6986 152.941C74.0707 153.195 73.3945 153.322 72.6699 153.322L60.2807 153.55C51.5864 153.6 47.2393 153.702 47.2393 153.854H47.022C47.6499 156.439 48.954 158.467 50.9344 159.937C52.963 161.407 55.7162 162.269 59.1939 162.523C61.0776 162.624 62.6474 162.523 63.9033 162.218C65.304 161.813 66.3183 161.458 66.9462 161.154C67.5742 160.799 68.347 160.343 69.2647 159.785C70.1824 159.43 71.1001 159.481 72.0179 159.937C72.9356 160.393 73.5635 161.103 73.9016 162.066C74.2397 163.03 74.1914 163.967 73.7567 164.88C73.3703 165.792 72.7424 166.502 71.873 167.009C71.1001 167.465 70.3032 167.871 69.4821 168.226C68.6609 168.53 67.4534 168.91 65.8595 169.366C64.2655 169.823 61.8988 170.025 58.7592 169.975ZM47.1669 146.402C49.9684 146.25 57.2377 146.098 68.9749 145.946C68.5402 144.425 67.8398 142.98 66.8738 141.611C64.9417 139.279 62.5508 137.936 59.7011 137.581C56.7064 137.175 54.074 137.86 51.8038 139.634C49.5336 141.358 47.988 143.614 47.1669 146.402Z" fill="black"/>
<path d="M95.8381 169.366C95.5483 169.265 94.9445 169.113 94.0268 168.91C93.1574 168.707 92.3846 168.479 91.7084 168.226C91.0804 167.972 90.3318 167.617 89.4624 167.161C88.6412 166.654 87.8926 165.995 87.2163 165.184C86.5401 164.322 85.9605 163.308 85.4775 162.142C84.9462 160.774 84.6081 158.087 84.4632 154.082C84.3183 150.99 84.2941 147.01 84.3907 142.143C84.3907 141.231 84.4149 139.71 84.4632 137.581L83.8836 137.657C82.8692 137.758 81.9757 137.48 81.2028 136.821C80.43 136.161 79.9712 135.325 79.8263 134.311C79.7297 133.247 79.9953 132.309 80.6232 131.498C81.2511 130.687 82.0481 130.205 83.0141 130.053L84.6805 129.901C84.7288 127.214 84.8013 124.502 84.8979 121.764C84.9462 120.7 85.3326 119.813 86.0571 119.103C86.7816 118.393 87.6511 118.064 88.6654 118.114C89.6797 118.165 90.525 118.571 91.2012 119.331C91.8774 120.091 92.1914 121.004 92.1431 122.068L91.9257 129.292L94.3166 129.14C95.331 129.09 96.2004 129.394 96.9249 130.053C97.6977 130.712 98.1083 131.574 98.1566 132.638C98.2532 133.703 97.9875 134.641 97.3596 135.452C96.7317 136.212 95.9106 136.643 94.8962 136.744L91.7084 136.897C91.6601 139.33 91.6359 141.104 91.6359 142.219C91.5393 146.985 91.5635 150.863 91.7084 153.854C91.805 156.896 91.9499 158.644 92.1431 159.101C92.3363 159.557 92.4812 159.886 92.5778 160.089C92.6744 160.241 92.8434 160.419 93.0849 160.622C93.3747 160.774 93.6646 160.875 93.9544 160.926C94.2442 160.976 94.7755 161.128 95.5483 161.382C96.3694 161.585 97.2389 161.864 98.1566 162.218C99.0743 162.523 99.7505 163.156 100.185 164.119C100.668 165.032 100.741 165.995 100.403 167.009C100.113 167.972 99.509 168.707 98.5913 169.214C97.7219 169.67 96.8041 169.721 95.8381 169.366Z" fill="black"/>
<path d="M117.258 169.518C115.857 169.113 115.012 168.15 114.722 166.629C114.577 166.325 114.456 165.995 114.36 165.64C111.317 151.091 107.598 135.781 103.202 119.711C102.912 118.697 103.009 117.734 103.492 116.822C103.975 115.909 104.7 115.301 105.666 114.997C106.632 114.692 107.549 114.794 108.419 115.301C109.288 115.808 109.868 116.568 110.158 117.582C113.249 129.039 116.099 141.054 118.707 153.626L124.358 135.68C126.821 128.228 128.657 122.499 129.864 118.495C129.913 117.683 130.154 116.974 130.589 116.365C131.072 115.706 131.7 115.25 132.473 114.997C132.618 114.895 132.835 114.845 133.125 114.845C133.415 114.845 133.753 114.895 134.139 114.997C134.912 115.25 135.516 115.706 135.95 116.365C136.433 117.024 136.675 117.759 136.675 118.571C140.008 129.318 143.799 141.637 148.05 155.527L158.483 117.278C158.773 116.264 159.352 115.504 160.222 114.997C161.14 114.49 162.057 114.388 162.975 114.692C163.941 114.997 164.665 115.63 165.149 116.593C165.632 117.506 165.728 118.444 165.438 119.407L151.817 166.933C151.528 167.896 150.924 168.631 150.006 169.138C149.137 169.645 148.219 169.747 147.253 169.442C146.383 169.138 145.707 168.581 145.224 167.769C144.886 167.364 144.62 166.908 144.427 166.401C140.128 152.916 136.313 140.699 132.98 129.749L130.299 139.938L127.111 149.443L124.503 157.732C123.44 161.128 122.523 164.196 121.75 166.933C121.46 167.947 120.88 168.707 120.011 169.214C119.142 169.721 118.224 169.823 117.258 169.518Z" fill="black"/>
<path d="M168.717 165.944C168.621 162.142 168.621 156.313 168.717 148.455C168.862 140.597 168.935 135.452 168.935 133.018C168.935 131.954 169.273 131.067 169.949 130.357C170.674 129.597 171.543 129.216 172.557 129.216C173.572 129.216 174.417 129.597 175.093 130.357C175.818 131.067 176.18 131.954 176.18 133.018C176.18 135.452 176.107 140.572 175.962 148.379C175.866 156.186 175.866 161.99 175.962 165.792C175.962 166.857 175.624 167.769 174.948 168.53C174.272 169.29 173.427 169.67 172.412 169.67C171.398 169.67 170.529 169.316 169.804 168.606C169.08 167.896 168.717 167.009 168.717 165.944ZM175.455 116.061C176.276 116.923 176.687 117.988 176.687 119.255C176.687 120.522 176.276 121.587 175.455 122.449C174.634 123.31 173.62 123.741 172.412 123.741C171.205 123.741 170.191 123.31 169.369 122.449C168.548 121.587 168.138 120.522 168.138 119.255C168.138 117.988 168.548 116.923 169.369 116.061C170.191 115.199 171.205 114.768 172.412 114.768C173.668 114.718 174.683 115.149 175.455 116.061Z" fill="black"/>
<path d="M193.378 169.594C189.804 168.935 187.22 167.415 185.626 165.032C184.853 163.967 184.297 162.548 183.959 160.774L183.67 159.101C183.573 158.594 183.476 158.188 183.38 157.884C183.09 156.921 183.187 155.983 183.67 155.071C184.153 154.158 184.877 153.575 185.843 153.322C186.809 153.068 187.727 153.169 188.596 153.626C189.466 154.082 190.045 154.817 190.335 155.831C190.48 156.389 190.625 157.022 190.77 157.732C190.818 157.985 190.842 158.239 190.842 158.492C190.891 158.695 190.987 159.075 191.132 159.633C191.277 160.292 191.615 160.85 192.146 161.306C192.726 161.864 193.595 162.218 194.755 162.371C196.687 162.776 198.764 162.725 200.986 162.218C203.159 161.711 204.85 160.976 206.057 160.013C206.927 159.202 207.289 158.366 207.144 157.504C206.999 156.084 206.154 155.02 204.608 154.31C203.642 153.854 201.13 153.246 197.073 152.485C192.871 151.623 189.9 150.508 188.162 149.139C184.974 146.655 183.935 142.955 185.046 138.037C185.722 135.198 187.099 133.12 189.176 131.802C191.301 130.433 193.644 129.673 196.204 129.521C198.377 129.419 200.575 129.698 202.797 130.357C205.067 130.965 206.999 131.827 208.593 132.942C209.124 133.348 209.68 133.83 210.259 134.387C210.839 134.945 211.394 135.553 211.926 136.212C212.505 136.871 212.844 137.226 212.94 137.277C213.665 138.037 214.027 138.924 214.027 139.938C214.027 140.901 213.665 141.763 212.94 142.524C212.264 143.233 211.419 143.588 210.404 143.588C209.438 143.588 208.593 143.233 207.868 142.524C207.385 142.067 206.902 141.586 206.419 141.079L205.405 139.786C205.115 139.533 204.777 139.279 204.391 139.026C203.473 138.417 202.29 137.91 200.841 137.505C199.392 137.049 197.967 136.846 196.566 136.897C194.006 137.049 192.533 137.987 192.146 139.71C191.712 141.535 191.857 142.726 192.581 143.284C193.451 143.943 195.407 144.602 198.45 145.261C202.942 146.072 206.009 146.858 207.651 147.618C211.612 149.494 213.858 152.51 214.389 156.667C214.824 160.064 213.616 163.004 210.767 165.488C208.593 167.364 205.84 168.657 202.507 169.366C199.319 170.127 196.276 170.203 193.378 169.594Z" fill="black"/>
<path d="M252.29 165.944C252.242 167.009 251.855 167.896 251.131 168.606C250.406 169.316 249.537 169.645 248.522 169.594C247.556 169.594 246.735 169.214 246.059 168.454C245.383 167.693 245.045 166.806 245.045 165.792C245.045 165.742 245.19 163.359 245.479 158.644C245.769 153.474 245.818 149.545 245.624 146.858C245.19 140.521 242.968 137.201 238.959 136.897C236.834 136.744 235.071 137.099 233.67 137.961C232.317 138.772 230.989 140.217 229.685 142.296C229.588 142.448 229.395 142.802 229.105 143.36C229.443 154.31 229.613 161.813 229.613 165.868C229.613 166.933 229.25 167.845 228.526 168.606C227.85 169.316 227.004 169.67 225.99 169.67C224.976 169.67 224.106 169.316 223.382 168.606C222.705 167.845 222.367 166.933 222.367 165.868C222.367 163.536 222.174 155.653 221.788 142.219C221.498 132.131 221.45 124.122 221.643 118.19C221.691 117.176 222.078 116.315 222.802 115.605C223.527 114.845 224.372 114.49 225.338 114.54C226.352 114.591 227.197 114.997 227.874 115.757C228.598 116.517 228.936 117.43 228.888 118.495C228.84 119.863 228.816 125.161 228.816 134.387C231.907 130.636 235.529 128.938 239.683 129.292C247.701 130.002 252.097 135.655 252.87 146.25C253.014 149.19 253.039 151.75 252.942 153.93C252.894 156.11 252.773 158.518 252.58 161.154C252.387 163.79 252.29 165.387 252.29 165.944Z" fill="black"/>
<path d="M152.336 35.8053C151.585 33.4845 150.16 31.4691 148.26 30.043C146.361 28.6168 144.084 27.8517 141.748 27.8552H132.78V0L129.011 0.565083C120.462 1.84686 113.802 6.39395 109.22 14.0803C105.916 19.6209 104.38 25.7328 103.667 30.3042C98.7456 34.2781 94.4643 39.7499 90.9262 46.5917C87.9444 52.3569 85.4761 59.1141 83.5895 66.6759C80.4018 79.4525 79.9703 90.0504 79.9535 90.4953L79.9519 102.761H86.5545V90.7104C86.6371 88.9276 88.7164 49.9157 108.642 35.0607L109.81 34.1898L110.002 32.6994C110.996 24.9832 114.43 12.2386 126.177 8.32116V34.786H141.748C142.703 34.7831 143.635 35.0944 144.412 35.6761C145.19 36.2579 145.774 37.0809 146.082 38.0293C148.715 46.1852 153.238 56.3911 160.288 61.1873L158.168 69.532C157.43 72.508 155.751 75.1329 153.407 76.9771C151.062 78.8212 148.19 79.7755 145.262 79.6836C139.346 79.4973 133.188 80.3074 126.959 82.0901L124.526 82.7865V102.761H131.129V88.1338C135.693 87.0023 140.376 86.4905 145.063 86.6112C149.478 86.7389 153.804 85.298 157.34 82.5221C160.877 79.7463 163.417 75.7982 164.548 71.3178L168.074 57.4385L165.448 56.2572C160.536 54.048 155.88 46.7847 152.336 35.8053Z" fill="black"/>
</svg>
