<svg width="371" height="371" viewBox="0 0 371 371" fill="none" xmlns="http://www.w3.org/2000/svg">
<mask id="mask0_521_364" style="mask-type:alpha" maskUnits="userSpaceOnUse" x="28" y="28" width="314" height="314">
<circle cx="185.23" cy="185.23" r="156.201" transform="rotate(-78.016 185.23 185.23)" fill="#F03019"/>
</mask>
<g mask="url(#mask0_521_364)">
<path d="M175.387 397.113C206.539 368.738 237.221 337.538 261.656 302.972C272.284 287.937 283.183 272.463 296.015 259.238C318.987 235.563 340.365 208.87 365.148 187.216" stroke="#A44AFF" stroke-width="6" stroke-linecap="round"/>
<path d="M139.021 403.723C203.626 339.484 249.213 258.867 311.862 192.955C327.483 176.519 343.456 160.538 357.464 142.957C364.422 134.226 375.95 124.21 385.054 118.295" stroke="#A44AFF" stroke-width="6" stroke-linecap="round"/>
<path d="M103.619 404.238C131.983 379.809 160.77 350.951 181.607 319.808C213.847 271.622 247.712 224.234 284.215 179.371C294.119 167.198 305.7 152.759 317.744 142.751C330.427 132.212 343.741 119.93 354.225 107.34C366.285 92.8567 380.023 75.5819 394.607 63.6214" stroke="#A44AFF" stroke-width="6" stroke-linecap="round"/>
<path d="M73.0547 397.75C87.8246 387.792 102.293 377.154 115.064 364.679C124.88 355.092 130.959 343.446 138.495 332.136C161.604 297.455 187.245 264.488 210.964 230.205C222.256 213.884 235.793 200.009 246.518 183.129C259 163.487 274.303 148.727 289.029 131.212C299.858 118.333 311.813 104.87 325.042 94.3416C334.025 87.1915 345.594 78.8891 352.558 69.5662C360.143 59.4122 373.913 52.9898 382.662 43.5906" stroke="#A44AFF" stroke-width="6" stroke-linecap="round"/>
<path d="M50.0977 370.52C66.5804 355.501 79.634 337.819 93.2228 320.288C110.638 297.82 131.621 277.814 150.326 256.403C170.023 233.857 192.501 212.367 210.257 188.356C228.414 163.803 245.268 138.281 263.422 113.722C286.5 82.5 303.506 47.0258 325.93 15.2168C335.147 2.14266 345.148 -10.284 354.502 -23.2332C361.41 -32.7953 371.312 -39.7487 377.267 -49.8918" stroke="#A44AFF" stroke-width="6" stroke-linecap="round"/>
<path d="M37.4062 355.057C71.1982 320.174 99.9771 280.622 127.235 240.482C162.625 188.367 199.499 138.001 230.248 83.0255C238.835 67.6743 247.274 52.5181 259.05 39.3756C263.8 34.0743 269.435 29.2075 273.854 23.6624C283.949 10.9939 296.025 -0.112348 305.504 -13.2596C315.861 -27.6249 330.762 -40.1247 343.518 -52.2325C352.621 -60.8739 366.006 -69.3634 377.107 -74.9411" stroke="#A44AFF" stroke-width="6" stroke-linecap="round"/>
<path d="M21.2793 319.693C43.7988 314.958 57.4124 284.043 69.6781 266.596C88.3654 240.015 106.97 213.556 126.161 187.32C151.396 152.821 175.443 117.264 199.805 82.1403C227.057 42.8491 254.134 2.84048 282.696 -35.4619C300.64 -59.5262 315.097 -86.0472 335.671 -108.29C350.477 -124.296 371.05 -133.41 386.605 -148.603" stroke="#A44AFF" stroke-width="6" stroke-linecap="round"/>
<path d="M4.81641 313.004C32.9952 265.011 69.5265 222.765 99.5889 176.055C126.918 133.592 145.854 86.4487 173.601 44.4192C191.466 17.3567 204.927 -12.0976 224.359 -38.1128C230.445 -46.2601 237.481 -53.6066 245.114 -60.3384C250.062 -64.7016 254.26 -70.9743 260.096 -73.6814" stroke="#A44AFF" stroke-width="6" stroke-linecap="round"/>
<path d="M-2.02734 270.037C20.4138 243.694 42.5015 218.223 61.538 189.446C86.1716 152.208 116.198 118.148 138.114 79.1538C149.204 59.4221 159.763 39.1842 170.204 19.0958C177.018 5.985 183.184 -8.38978 190.851 -20.9391C196.549 -30.2646 203.468 -37.6957 211.795 -44.9714" stroke="#A44AFF" stroke-width="6" stroke-linecap="round"/>
<path d="M-1.00781 235.121C38.8743 174.532 85.696 118.737 120.827 54.931C140.423 19.3399 164.518 -13.2971 188.177 -46.2394C199.323 -61.7571 213.436 -76.2391 221.035 -93.8879" stroke="#A44AFF" stroke-width="6" stroke-linecap="round"/>
</g>
</svg>
