<svg width="272" height="236" viewBox="0 0 272 236" fill="none" xmlns="http://www.w3.org/2000/svg">
<path d="M268.099 24.5012L261.974 63.8371L257.363 98.1742L250.837 122.046C248.792 129.528 244.458 136.183 238.442 141.08V141.08C233.684 144.954 228.041 147.589 222.017 148.753L221.653 148.823C213.437 150.41 204.928 149.288 197.403 145.626L190.375 142.206C177.4 135.892 167.029 125.256 161.043 112.127L157.329 103.981C152.411 93.1933 149.75 81.5144 149.508 69.6611L149.044 46.9513C148.893 39.5466 149.614 32.1499 151.193 24.9139V24.9139L152.189 16.2753C152.406 14.3996 152.998 12.5867 153.932 10.9452V10.9452C157.588 4.51368 165.608 2.02321 172.265 5.25224L177.237 7.6641C181.555 9.75872 184.983 13.3289 186.642 17.8322C189.483 25.5452 193.72 38.4744 195.068 50.1744C195.361 52.7154 195.601 55.9278 195.786 58.9232C196.16 64.9655 196.128 71.0225 195.905 77.0722V77.0722L194.549 86.9781L185.693 121.095C183.257 130.482 179.608 139.512 174.838 147.956L169.208 157.923C167.36 161.194 165.025 164.164 162.283 166.731L160.663 168.247C154.487 174.029 146.253 177.098 137.799 176.77V176.77C134.078 176.625 130.412 175.825 126.969 174.407L120.193 171.615C108.655 166.862 98.5308 159.225 90.7907 149.437L87.6199 145.427C85.5181 142.769 83.6667 139.922 82.0894 136.923V136.923C79.5595 132.112 77.7575 126.953 76.7423 121.613L74.4902 109.767L71.943 79.7325L71.8844 64.1156C71.8716 60.6946 72.5973 57.2671 73.9786 54.1373V54.1373C78.1798 44.6179 88.0776 38.7274 98.4337 39.7374L100.249 39.9144C106.347 40.5092 111.849 43.8282 115.22 48.9448V48.9448C116.735 51.2449 117.766 53.8295 118.25 56.5411L120.646 69.9643L123.204 89.2145L123.253 89.7451C124.715 105.388 123.866 121.161 120.736 136.557L119.671 141.795C118.354 148.27 116.424 154.605 113.907 160.714L111.042 167.668C109.759 170.785 108.104 173.735 106.114 176.455V176.455C100.387 184.284 92.1249 189.887 82.7325 192.311L65.996 196.629C59.382 198.335 52.4226 198.158 45.9039 196.118V196.118C38.5435 193.814 32.0979 189.246 27.4857 183.065L22.5277 176.42C17.057 169.088 13.2702 160.64 11.4368 151.678L4.51519 117.843C3.34829 112.139 3.51814 106.242 5.01145 100.614L8.35662 88.0074C11.8567 74.817 25.3957 66.9695 38.5811 70.4887V70.4887C45.929 72.4499 51.9627 77.6886 54.9358 84.6885L60.9723 98.9011C64.4521 107.094 65.9402 115.995 65.3144 124.875L64.2129 140.506C63.4954 150.687 61.4974 160.738 58.2663 170.42L52.3865 188.039L50.0771 193.645C48.011 198.66 45.3801 203.423 42.2352 207.842V207.842C39.4666 211.733 36.3146 215.336 32.8266 218.597L18.2425 232.232" stroke="#A44AFF" stroke-width="6" stroke-linecap="round"/>
</svg>
